<svg width="38" height="29" viewBox="0 0 38 29" fill="none" xmlns="http://www.w3.org/2000/svg">
<path d="M12.0591 17.405L11.3147 18.1361C10.9596 18.485 10.9582 19.0522 11.3108 19.4032L14.1651 22.241C14.5181 22.592 15.092 22.5934 15.4471 22.2448L16.1914 21.5138L12.0591 17.405Z" fill="#6D6E70"/>
<path d="M16.0971 10.1096C16.0971 10.1096 11.8914 7.49809 6.96368 12.3393L4.5 14.7596L5.60938 15.8627C5.60938 15.8627 9.42381 12.4454 11.5589 14.5683L16.0971 10.1096Z" fill="#B95F5F"/>
<path d="M23.5966 17.566C23.5966 17.566 26.2142 21.7382 21.2864 26.5794L18.8228 29L17.7134 27.8969C17.7134 27.8969 21.1936 24.1472 19.0585 22.0244L23.5966 17.5657V17.566Z" fill="#B95F5F"/>
<path d="M33.8918 0.0383301C24.6655 1.12988 16.1013 10.1135 16.1013 10.1135L16.0966 10.1089L10.375 15.7302L17.8748 23.1868L23.5965 17.5655L23.5919 17.5609C23.5919 17.5609 32.7328 9.15046 33.8918 0.0383301Z" fill="#D6D6D6"/>
<path d="M33.892 0.0383301C24.6657 1.12988 16.1015 10.1135 16.1015 10.1135L16.0968 10.1089L10.4326 15.6738L13.3922 18.7303C13.4194 18.7572 17.7148 23.0282 17.7418 23.0551C17.757 23.0702 20.2795 20.7603 20.2795 20.7603C20.3242 20.7252 23.4936 17.6096 23.5315 17.5679L23.5272 17.5634C23.6289 17.4509 29.6441 11.9021 32.5146 4.96957C33.1739 3.38374 33.6623 1.72155 33.8913 0.0383301H33.892Z" fill="#D7D7D7"/>
<path d="M33.8918 0.0384362C24.6655 1.12999 16.1013 10.1136 16.1013 10.1136L16.0967 10.109L10.4902 15.6172L13.3034 18.6417C13.3576 18.6957 17.5548 22.8685 17.6091 22.9225C17.6392 22.9526 20.1752 20.7986 20.1752 20.7986C20.2641 20.7285 23.3913 17.6535 23.4668 17.5702C23.4668 17.5702 23.4626 17.5656 23.4629 17.5656C23.6664 17.3411 29.6226 11.8329 32.4904 4.96933C33.1578 3.3849 33.6476 1.72095 33.8915 0.0380859L33.8918 0.0384362Z" fill="#D8D8D8"/>
<path d="M33.8915 0.0384362C24.6652 1.12999 16.101 10.1136 16.101 10.1136L16.0964 10.109L10.5474 15.5608L13.2141 18.5538C13.2957 18.6347 17.3943 22.7098 17.4755 22.7907C17.5209 22.8359 20.07 20.8374 20.07 20.8374C20.2036 20.7324 23.2879 17.698 23.4017 17.5726C23.4017 17.5726 23.3978 17.5684 23.3978 17.5681C23.7029 17.2311 29.5855 11.7575 32.4656 4.96933C33.138 3.3849 33.6324 1.72025 33.8912 0.0380859L33.8915 0.0384362Z" fill="#D9D9D9"/>
<path d="M33.8919 0.0384362C24.6656 1.12999 16.1013 10.1136 16.1013 10.1136L16.0967 10.109L10.6055 15.5041L13.1259 18.4655C13.2343 18.5734 17.2348 22.5508 17.3433 22.6587C17.4039 22.7189 19.9661 20.876 19.9661 20.876C20.1444 20.7359 23.1858 17.7422 23.3375 17.5747C23.3375 17.5747 23.3339 17.5705 23.3339 17.5702C23.7408 17.1211 29.5603 11.6861 32.4419 4.96933C33.1213 3.38595 33.6182 1.71955 33.8915 0.0380859L33.8919 0.0384362Z" fill="#DADADA"/>
<path d="M33.8916 0.0384362C24.6653 1.12999 16.1011 10.1136 16.1011 10.1136L16.0964 10.109L10.6626 15.4477L13.0366 18.3773C13.1724 18.5121 17.074 22.3914 17.2097 22.5263C17.2852 22.6012 19.8609 20.9145 19.8609 20.9145C20.0835 20.7394 23.0827 17.7863 23.272 17.5772C23.272 17.5772 23.2684 17.573 23.2688 17.5726C23.7774 17.0111 29.5338 11.615 32.4168 4.96933C33.1033 3.387 33.6027 1.7192 33.8909 0.0380859L33.8916 0.0384362Z" fill="#DBDBDB"/>
<path d="M33.8919 0.0384362C24.6656 1.12999 16.1014 10.1136 16.1014 10.1136L16.0968 10.109L10.7207 15.3909L12.9487 18.289C13.1114 18.4508 16.9148 22.2324 17.0779 22.3942C17.1686 22.4842 19.7574 20.953 19.7574 20.953C20.0246 20.7429 22.981 17.8301 23.2082 17.5793C23.2082 17.5793 23.205 17.5751 23.2053 17.5747C23.8157 16.9007 29.5097 11.5439 32.3937 4.96933C33.0873 3.38805 33.5892 1.7185 33.8923 0.0380859L33.8919 0.0384362Z" fill="#DCDCDC"/>
<path d="M33.8916 0.0383301C24.6653 1.12988 16.1011 10.1135 16.1011 10.1135L16.0965 10.1089L10.7778 15.3344L12.8594 18.2009C13.0494 18.3898 16.7543 22.0736 16.9443 22.2624C17.0499 22.3675 19.6522 20.9918 19.6522 20.9918C19.9641 20.7466 22.8775 17.8745 23.1427 17.582C23.1427 17.582 23.1395 17.5778 23.1398 17.5774C23.8519 16.7913 29.4835 11.4733 32.3683 4.96957C33.0693 3.38935 33.5737 1.71804 33.8913 0.0383301H33.8916Z" fill="#DDDDDD"/>
<path d="M33.8919 0.0382983C24.6656 1.12985 16.1014 10.1134 16.1014 10.1134L16.0968 10.1089L10.8359 15.2776L12.7712 18.1123C12.9881 18.3281 16.5948 21.9138 16.8117 22.1296C16.9326 22.2497 19.5483 21.03 19.5483 21.03C19.9045 20.7497 22.7758 17.9182 23.0785 17.5837C23.0785 17.5833 23.0756 17.5795 23.076 17.5791C23.8898 16.6806 29.4594 11.4018 32.3445 4.96884C33.0526 3.38967 33.5595 1.71696 33.8916 0.0375977L33.8919 0.0382983Z" fill="#DEDEDE"/>
<path d="M33.8917 0.0383301C24.6654 1.12988 16.1011 10.1135 16.1011 10.1135L16.0965 10.1089L10.8931 15.2212L12.6819 18.0244C12.9261 18.2672 16.4343 21.7551 16.6785 21.9979C16.8146 22.1331 19.4435 21.0689 19.4435 21.0689C19.8443 20.7536 22.6727 17.9627 23.0137 17.5865C23.014 17.5862 23.0112 17.5823 23.0116 17.582C23.9271 16.5713 29.435 11.3318 32.3201 4.96957C33.0357 3.39145 33.5447 1.71699 33.8917 0.0383301Z" fill="#DFDFDF"/>
<path d="M33.892 0.0383301C24.6657 1.12988 16.1015 10.1135 16.1015 10.1135L16.0969 10.1089L10.9512 15.1645L12.5936 17.9361C12.8648 18.2059 16.2748 21.5961 16.5459 21.8658C16.6969 22.0161 19.3392 21.1078 19.3392 21.1078C19.7848 20.7575 22.5703 18.0069 22.9492 17.589C22.9495 17.5886 22.9467 17.5848 22.947 17.5844C23.9643 16.4613 29.4112 11.2614 32.296 4.96957C33.019 3.3925 33.5301 1.71664 33.892 0.0383301Z" fill="#E0E0E0"/>
<path d="M33.8917 0.0384362C24.6654 1.12999 16.1012 10.1136 16.1012 10.1136L16.0966 10.109L11.0083 15.1082L12.5044 17.8479C12.8028 18.1447 16.1143 21.4368 16.4127 21.7335C16.579 21.8989 19.2344 21.1461 19.2344 21.1461C19.7246 20.7607 22.4675 18.0508 22.884 17.5912C22.8844 17.5908 22.8819 17.587 22.8822 17.5866C24.0012 16.3511 29.3868 11.1907 32.2712 4.96933C33.0017 3.39331 33.5149 1.7157 33.8917 0.0380859V0.0384362Z" fill="#E1E1E1"/>
<path d="M33.892 0.0384362C24.6657 1.12999 16.1015 10.1136 16.1015 10.1136L16.0969 10.109L11.0664 15.0515L12.4161 17.7597C12.7415 18.0833 15.9548 21.2778 16.2801 21.6015C16.4616 21.7819 19.1302 21.1846 19.1302 21.1846C19.6646 20.7642 22.3651 18.0949 22.8195 17.5933C22.8198 17.5926 22.8173 17.5891 22.8181 17.5887C24.0387 16.2411 29.3638 11.12 32.2471 4.96933C32.9854 3.39436 33.5004 1.715 33.8917 0.0380859L33.892 0.0384362Z" fill="#E2E2E2"/>
<path d="M33.8917 0.0383301C24.6654 1.12988 16.1012 10.1135 16.1012 10.1135L16.0966 10.1089L11.1235 14.995L12.3272 17.6716C12.6799 18.0223 15.7943 21.119 16.1469 21.4696C16.3433 21.6651 19.0253 21.2237 19.0253 21.2237C19.6045 20.7683 22.2624 18.1396 22.7543 17.596C22.755 17.5953 22.7526 17.5921 22.7533 17.5914C24.0757 16.1313 29.3404 11.0502 32.2227 4.96957C32.9684 3.396 33.4856 1.71489 33.8917 0.0386804V0.0383301Z" fill="#E3E3E3"/>
<path d="M33.8916 0.0384362C24.6653 1.12999 16.1011 10.1136 16.1011 10.1136L16.0965 10.109L11.1812 14.9383L12.2384 17.5831C12.618 17.9607 15.6343 20.9593 16.0142 21.337C16.2258 21.5472 18.921 21.2617 18.921 21.2617C19.5448 20.7709 22.1598 18.1828 22.6897 17.5978C22.6904 17.5971 22.6882 17.594 22.6886 17.5933C24.1124 16.0211 29.3172 10.9799 32.1981 4.96898C32.9516 3.39646 33.4705 1.71359 33.8916 0.0380859V0.0384362Z" fill="#E4E4E4"/>
<path d="M33.8918 0.0383301C24.6655 1.12988 16.1013 10.1135 16.1013 10.1135L16.0967 10.1089L11.2388 14.8818L12.1497 17.4951C12.5566 17.8997 15.4743 20.8006 15.8812 21.2052C16.108 21.4304 18.8162 21.3004 18.8162 21.3004C19.4844 20.7746 22.0568 18.2272 22.6246 17.6002C22.6254 17.5995 22.6232 17.5963 22.6239 17.5956C24.1494 15.911 29.2948 10.9097 32.1735 4.96922C32.9348 3.39811 33.4555 1.71314 33.8914 0.0383301H33.8918Z" fill="#E5E5E5"/>
<path d="M33.8916 0.0383301C24.6653 1.12988 16.1011 10.1135 16.1011 10.1135L16.0965 10.1089L11.2964 14.8251L12.0609 17.4068C12.4951 17.8384 15.3143 20.6415 15.7484 21.0731C15.9902 21.3134 18.7119 21.3393 18.7119 21.3393C19.4246 20.7785 21.9546 18.2717 22.5603 17.603C22.561 17.6023 22.5593 17.5991 22.56 17.5984C24.1872 15.8014 29.273 10.8403 32.1496 4.96957C32.9187 3.39951 33.4411 1.71314 33.8916 0.0386804V0.0383301Z" fill="#E6E6E6"/>
<path d="M33.8918 0.0383301C24.6655 1.12988 16.1013 10.1135 16.1013 10.1135L16.0967 10.1089L11.354 14.7687L11.9721 17.3185C12.4333 17.7771 15.1543 20.4821 15.6154 20.9407C15.8723 21.1961 18.6072 21.3775 18.6072 21.3775C19.3646 20.7816 21.8517 18.3155 22.4953 17.6047C22.496 17.604 22.4943 17.6009 22.4953 17.6002C24.2243 15.691 29.2509 10.7703 32.1253 4.96922C32.9026 3.40056 33.4265 1.71209 33.8918 0.0383301Z" fill="#E7E7E7"/>
<path d="M33.8917 0.0383301C24.6654 1.12988 16.1012 10.1135 16.1012 10.1135L16.0965 10.1089L11.4116 14.7119L11.8834 17.2302C12.3718 17.7158 14.9943 20.3231 15.4823 20.8086C15.7542 21.0791 18.5025 21.416 18.5025 21.416C19.3042 20.7851 21.7487 18.3596 22.4303 17.6072C22.431 17.6065 22.4296 17.6033 22.4303 17.6026C24.261 15.581 29.2287 10.7009 32.1004 4.96922C32.8854 3.40196 33.4111 1.71139 33.8913 0.0383301H33.8917Z" fill="#E7E7E7"/>
<path d="M33.8919 0.0383301C24.6656 1.12988 16.1014 10.1135 16.1014 10.1135L16.0967 10.1089L11.4692 14.6552L11.795 17.142C12.3103 17.6545 14.8346 20.1641 15.3499 20.6766C15.637 20.962 18.3984 21.4549 18.3984 21.4549C19.2448 20.789 21.6468 18.4038 22.366 17.6096C22.3667 17.6089 22.3656 17.6058 22.366 17.6051C24.2984 15.4714 29.2077 10.6316 32.0761 4.96922C32.8693 3.40336 33.3964 1.71104 33.8915 0.0383301H33.8919Z" fill="#E8E8E8"/>
<path d="M33.8917 0.0383301C24.6654 1.12988 16.1012 10.1135 16.1012 10.1135L16.0966 10.1089L11.5269 14.5988L11.7062 17.0537C12.2488 17.5932 14.6742 20.0047 15.2169 20.5441C15.5192 20.8447 18.2937 21.4931 18.2937 21.4931C19.1848 20.7922 21.5439 18.4476 22.301 17.6117C22.3017 17.6107 22.301 17.6079 22.3017 17.6072C24.3358 15.361 29.1866 10.5622 32.0518 4.96922C32.8532 3.40476 33.382 1.71034 33.8914 0.0383301H33.8917Z" fill="#E9E9E9"/>
<path d="M33.8919 0.0384362C24.6656 1.12999 16.1014 10.1136 16.1014 10.1136L16.0968 10.109L11.5845 14.5421L11.6174 16.9655C12.187 17.532 14.5142 19.8457 15.0842 20.4122C15.4014 20.7278 18.1894 21.5317 18.1894 21.5317C19.1247 20.7958 21.4413 18.4918 22.2363 17.6139C22.237 17.6129 22.2363 17.6101 22.237 17.6094C24.3728 15.2508 29.1659 10.4929 32.0276 4.96898C32.8375 3.40592 33.3673 1.70974 33.8916 0.0380859L33.8919 0.0384362Z" fill="#EAEAEA"/>
<path d="M33.8919 0.0383301C24.6656 1.12988 16.1014 10.1135 16.1014 10.1135L16.0968 10.1089L11.6422 14.4856L11.5288 16.8775C12.1257 17.4709 14.3544 19.6869 14.9512 20.2804C15.2837 20.611 18.0848 21.5709 18.0848 21.5709C19.0648 20.7999 21.3389 18.5365 22.1718 17.6166C22.1729 17.6156 22.1718 17.6131 22.1729 17.6121C24.4104 15.1414 29.1457 10.4242 32.0035 4.96922C32.8215 3.40756 33.3528 1.70929 33.8919 0.0383301Z" fill="#EBEBEB"/>
<path d="M33.892 0.0384362C24.6657 1.12999 16.1015 10.1136 16.1015 10.1136L16.0969 10.109L11.6997 14.429L11.4399 16.789C12.0637 17.4094 14.1943 19.5273 14.8181 20.1477C15.1658 20.4934 17.98 21.6088 17.98 21.6088C19.0047 20.8028 21.2358 18.5797 22.1067 17.6185C22.1077 17.6174 22.107 17.615 22.1081 17.6139C24.4474 15.0308 29.1252 10.3549 31.9788 4.96898C32.8053 3.40907 33.3377 1.70834 33.8913 0.0380859L33.892 0.0384362Z" fill="#ECECEC"/>
<path d="M33.8917 0.0383301C24.6654 1.12988 16.1012 10.1135 16.1012 10.1135L16.0966 10.1089L11.7573 14.3725L11.3511 16.7009C12.0022 17.3483 14.0341 19.3685 14.6852 20.0159C15.0478 20.3763 17.8759 21.6479 17.8759 21.6479C18.9448 20.8069 21.1335 18.6245 22.0423 17.6212C22.0433 17.6201 22.043 17.6177 22.0437 17.6166C24.4847 14.9214 29.1054 10.2865 31.9547 4.96922C32.7898 3.41072 33.3232 1.70823 33.8917 0.0383301Z" fill="#EDEDED"/>
<path d="M33.8918 0.0383301C24.6655 1.12988 16.1013 10.1135 16.1013 10.1135L16.0967 10.1089L11.8148 14.3157L11.2622 16.6127C11.9402 17.287 13.874 19.2095 14.5521 19.8838C14.9299 20.2593 17.7711 21.6865 17.7711 21.6865C18.8847 20.8104 21.0308 18.6686 21.9771 17.6236C21.9782 17.6226 21.9778 17.6201 21.9789 17.6191C24.5216 14.8114 29.0853 10.2182 31.93 4.96957C32.7736 3.41282 33.3081 1.70788 33.8915 0.0386804L33.8918 0.0383301Z" fill="#EEEEEE"/>
<path d="M33.8917 0.0384362C24.6654 1.12999 16.1012 10.1136 16.1012 10.1136L16.0966 10.109L11.8724 14.2594L11.1738 16.5245C11.8792 17.2258 13.7144 19.0502 14.4197 19.7515C14.8128 20.1421 17.6671 21.7248 17.6671 21.7248C18.8254 20.8136 20.9286 18.7125 21.9129 17.6255C21.9139 17.6244 21.9139 17.622 21.915 17.6209C24.5594 14.7008 29.0664 10.1493 31.9062 4.96898C32.7586 3.41398 33.2938 1.70659 33.8921 0.0380859L33.8917 0.0384362Z" fill="#EFEFEF"/>
<path d="M33.8918 0.0384362C24.6655 1.12999 16.1013 10.1136 16.1013 10.1136L16.0967 10.109L11.9299 14.2027L11.085 16.4362C11.8172 17.1645 13.5543 18.8912 14.2866 19.6194C14.6945 20.0251 17.5623 21.7637 17.5623 21.7637C18.7649 20.8175 20.8256 18.757 21.8477 17.6283C21.8488 17.6269 21.8488 17.6248 21.8502 17.6234C24.5964 14.5912 29.0474 10.0813 31.8814 4.96898C32.7427 3.41573 33.2786 1.70624 33.8914 0.0380859L33.8918 0.0384362Z" fill="#F0F0F0"/>
<path d="M33.8915 0.0383301C24.6652 1.12988 16.101 10.1135 16.101 10.1135L16.0964 10.1089L11.9874 14.1462L10.9961 16.3482C11.7556 17.1034 13.3938 18.7324 14.1534 19.4876C14.5766 19.9083 17.4574 21.8024 17.4574 21.8024C18.7047 20.8212 20.7229 18.801 21.783 17.6306C21.784 17.6292 21.7844 17.6271 21.7855 17.6257C24.6333 14.4811 29.028 10.0133 31.8571 4.96922C32.7272 3.41772 33.2638 1.70578 33.8915 0.0383301Z" fill="#F1F1F1"/>
<path d="M33.8916 0.0382983C24.6653 1.12985 16.1011 10.1134 16.1011 10.1134L16.0965 10.1089L12.045 14.0894L10.9072 16.2595C11.6941 17.0418 13.2337 18.5726 14.0206 19.3548C14.4587 19.7906 17.353 21.8402 17.353 21.8402C18.6449 20.824 20.6202 18.8444 21.7182 17.6324C21.7193 17.631 21.72 17.6289 21.721 17.6275C24.6707 14.3707 29.0096 9.94492 31.8327 4.96849C32.7117 3.41909 33.249 1.70435 33.8916 0.0375977V0.0382983Z" fill="#F2F2F2"/>
<path d="M33.8917 0.0384362C24.6654 1.12999 16.1012 10.1136 16.1012 10.1136L16.0966 10.109L12.1025 14.0331L10.8184 16.1717C11.6321 16.9809 13.0736 18.414 13.8874 19.2232C14.3407 19.6741 17.2482 21.8796 17.2482 21.8796C18.5847 20.8283 20.5171 18.8894 21.6531 17.6353C21.6545 17.6339 21.6549 17.6318 21.6563 17.6304C24.7076 14.2612 28.991 9.87815 31.808 4.96898C32.6962 3.42133 33.2339 1.70449 33.8914 0.0380859L33.8917 0.0384362Z" fill="#F3F3F3"/>
<path d="M33.892 0.0383301C24.6657 1.12988 16.1014 10.1135 16.1014 10.1135L16.0968 10.1089L12.1605 13.9763L10.73 16.0834C11.5711 16.9195 12.914 18.2549 13.7551 19.0911C14.2236 19.557 17.1442 21.918 17.1442 21.918C18.5251 20.8317 20.4153 18.9334 21.5888 17.6377C21.5902 17.6363 21.5909 17.6342 21.592 17.6327C24.7451 14.1511 28.9731 9.81044 31.7841 4.96922C32.6816 3.42368 33.2196 1.70403 33.8916 0.0383301H33.892Z" fill="#F4F4F4"/>
<path d="M33.8917 0.0382983C24.6654 1.12985 16.1012 10.1134 16.1012 10.1134L16.0966 10.1089L12.2176 13.9198L10.6411 15.995C11.5091 16.8582 12.7539 18.0955 13.6219 18.9586C14.1054 19.4396 17.0394 21.9562 17.0394 21.9562C18.4649 20.8349 20.3122 18.9768 21.5237 17.6394C21.5251 17.638 21.5258 17.6362 21.5272 17.6345C24.782 14.0407 28.9548 9.7428 31.7594 4.96849C32.6661 3.42505 33.2045 1.70295 33.8914 0.0375977L33.8917 0.0382983Z" fill="#F5F5F5"/>
<path d="M33.8919 0.0382983C24.6656 1.12985 16.1014 10.1134 16.1014 10.1134L16.0968 10.1089L12.2756 13.8631L10.5527 15.9068C11.448 16.7969 12.5943 17.9364 13.4892 18.8266C13.9879 19.3222 16.935 21.9951 16.935 21.9951C18.4052 20.8387 20.2097 19.0213 21.4591 17.6418C21.4605 17.6404 21.4615 17.6387 21.463 17.6369C24.8195 13.9307 28.9465 9.68079 31.7352 4.96849C32.6542 3.4289 33.1898 1.70225 33.8916 0.0375977L33.8919 0.0382983Z" fill="#F6F6F6"/>
<path d="M33.8915 0.0383301C24.6652 1.12988 16.101 10.1135 16.101 10.1135L16.0964 10.1089L12.3327 13.8067L10.4634 15.8189C11.3856 16.736 12.4337 17.7778 13.3559 18.6949C13.8699 19.2056 16.8301 22.034 16.8301 22.034C18.3446 20.8426 20.1069 19.0658 21.3942 17.6447C21.3956 17.6433 21.397 17.6415 21.3984 17.6398C24.8566 13.8214 28.9248 9.61217 31.7107 4.96922C32.6379 3.43103 33.1752 1.70228 33.8915 0.0383301Z" fill="#F7F7F7"/>
<path d="M21.3299 17.6469C24.8909 13.7147 28.902 9.54466 31.6868 4.96898C32.6222 3.43219 33.1609 1.70168 33.8879 0.0678619C33.8893 0.0580533 33.8907 0.0478945 33.8918 0.0380859C24.6655 1.12964 16.1013 10.1132 16.1013 10.1132L16.0966 10.1087L10.375 15.73C11.3245 16.6741 12.2737 17.6178 13.2232 18.5619C13.7521 19.0877 16.7258 22.0719 16.7258 22.0719C18.2849 20.8455 20.0043 19.1094 21.3295 17.6462L21.3299 17.6469Z" fill="white"/>
<path d="M24.7531 3.92822C24.7531 3.92822 20.6292 6.38666 15.0908 12.0991C15.0908 12.0991 19.5436 8.49165 25.9539 5.30352L24.7531 3.92822Z" fill="white"/>
<g style="mix-blend-mode:multiply">
<path d="M26.0889 13.7466C28.043 12.2115 28.4103 9.45401 26.9094 7.58767C25.4084 5.72133 22.6075 5.45283 20.6534 6.98797C18.6993 8.52311 18.332 11.2805 19.833 13.1469C21.334 15.0132 24.1349 15.2817 26.0889 13.7466Z" fill="#DBDBDB"/>
<path d="M26.0866 13.7437C28.0389 12.21 28.4058 9.45505 26.9061 7.59037C25.4065 5.7257 22.6082 5.45738 20.6559 6.99107C18.7037 8.52476 18.3368 11.2797 19.8364 13.1444C21.3361 15.009 24.1344 15.2773 26.0866 13.7437Z" fill="#DCDCDC"/>
<path d="M26.0843 13.7407C28.0347 12.2085 28.4012 9.45608 26.9029 7.59307C25.4046 5.73007 22.6089 5.46193 20.6585 6.99418C18.7081 8.52642 18.3416 11.2788 19.8399 13.1418C21.3382 15.0048 24.1339 15.273 26.0843 13.7407Z" fill="#DDDDDD"/>
<path d="M26.0818 13.7378C28.0305 12.2069 28.3967 9.45693 26.8998 7.59559C25.4028 5.73425 22.6095 5.46639 20.6608 6.99731C18.7121 8.52823 18.3459 11.2782 19.8428 13.1395C21.3398 15.0009 24.1331 15.2687 26.0818 13.7378Z" fill="#DEDEDE"/>
<path d="M26.079 13.7343C28.0259 12.2049 28.3918 9.45754 26.8963 7.59802C25.4008 5.73849 22.6102 5.47094 20.6633 7.00041C18.7164 8.52989 18.3505 11.2772 19.846 13.1367C21.3415 14.9963 24.1321 15.2638 26.079 13.7343Z" fill="#DFDFDF"/>
<path d="M26.0767 13.7314C28.0217 12.2034 28.3872 9.45858 26.8931 7.60072C25.3989 5.74286 22.6109 5.47548 20.6659 7.00352C18.7208 8.53155 18.3553 11.2764 19.8495 13.1342C21.3436 14.9921 24.1316 15.2595 26.0767 13.7314Z" fill="#E0E0E0"/>
<path d="M26.0742 13.728C28.0175 12.2013 28.3827 9.45893 26.8899 7.60274C25.3971 5.74655 22.6115 5.47945 20.6682 7.00616C18.7248 8.53287 18.3596 11.2752 19.8524 13.1314C21.3452 14.9876 24.1308 15.2547 26.0742 13.728Z" fill="#E1E1E1"/>
<path d="M26.0714 13.7248C28.0129 12.1995 28.3778 9.45979 26.8865 7.60542C25.3951 5.75104 22.6122 5.48424 20.6707 7.00951C18.7292 8.53477 18.3643 11.2745 19.8556 13.1289C21.347 14.9833 24.1299 15.2501 26.0714 13.7248Z" fill="#E2E2E2"/>
<path d="M26.0691 13.7216C28.0087 12.1978 28.3733 9.46058 26.8832 7.60787C25.3932 5.75516 22.6129 5.48855 20.6732 7.01237C18.7336 8.53619 18.369 11.2734 19.8591 13.1261C21.3491 14.9788 24.1294 15.2454 26.0691 13.7216Z" fill="#E3E3E3"/>
<path d="M26.0665 13.719C28.0045 12.1965 28.3688 9.46167 26.8801 7.61063C25.3914 5.75959 22.6135 5.49325 20.6756 7.01574C18.7376 8.53823 18.3733 11.273 19.862 13.1241C21.3507 14.9751 24.1285 15.2415 26.0665 13.719Z" fill="#E4E4E4"/>
<path d="M26.0642 13.7155C28.0004 12.1945 28.3642 9.46222 26.8769 7.61284C25.3895 5.76347 22.6142 5.49731 20.6781 7.01836C18.7419 8.53941 18.3781 11.2717 19.8654 13.1211C21.3528 14.9704 24.1281 15.2366 26.0642 13.7155Z" fill="#E5E5E5"/>
<path d="M26.0614 13.7128C27.9958 12.1932 28.3593 9.46357 26.8734 7.61601C25.3875 5.76845 22.6149 5.50259 20.6806 7.02219C18.7463 8.5418 18.3828 11.2714 19.8686 13.119C21.3545 14.9665 24.1271 15.2324 26.0614 13.7128Z" fill="#E6E6E6"/>
<path d="M26.0594 13.7097C27.992 12.1914 28.3553 9.46417 26.8707 7.61827C25.3862 5.77238 22.616 5.5068 20.6834 7.02508C18.7508 8.54336 18.3875 11.2706 19.8721 13.1165C21.3566 14.9624 24.1268 15.2279 26.0594 13.7097Z" fill="#E7E7E7"/>
<path d="M26.0566 13.7067C27.9874 12.1899 28.3502 9.4652 26.867 7.62098C25.3838 5.77675 22.6163 5.51135 20.6855 7.02818C18.7547 8.54502 18.3918 11.2697 19.875 13.1139C21.3582 14.9582 24.1258 15.2236 26.0566 13.7067Z" fill="#E8E8E8"/>
<path d="M26.0543 13.703C27.9833 12.1876 28.3458 9.46557 26.8641 7.62316C25.3823 5.78075 22.6174 5.51565 20.6885 7.03104C18.7595 8.54643 18.397 11.2685 19.8787 13.1109C21.3605 14.9533 24.1254 15.2184 26.0543 13.703Z" fill="#E9E9E9"/>
<path d="M26.0518 13.7003C27.9791 12.1863 28.3413 9.46666 26.8609 7.62592C25.3805 5.78517 22.6181 5.52035 20.6908 7.03442C18.7635 8.54848 18.4013 11.2681 19.8817 13.1088C21.3621 14.9496 24.1245 15.2144 26.0518 13.7003Z" fill="#EAEAEA"/>
<path d="M26.0495 13.6974C27.9749 12.1848 28.3367 9.4677 26.8577 7.62862C25.3786 5.78954 22.6188 5.5249 20.6933 7.03752C18.7679 8.55014 18.406 11.2672 19.8851 13.1063C21.3642 14.9454 24.124 15.21 26.0495 13.6974Z" fill="#EBEBEB"/>
<path d="M26.0467 13.6942C27.9702 12.1831 28.3317 9.46849 26.854 7.63108C25.3763 5.79366 22.619 5.5292 20.6954 7.04038C18.7718 8.55156 18.4103 11.2661 19.888 13.1035C21.3658 14.941 24.1231 15.2054 26.0467 13.6942Z" fill="#ECECEC"/>
<path d="M26.0442 13.691C27.9661 12.1812 28.3273 9.46916 26.8511 7.63356C25.3748 5.79797 22.6201 5.5339 20.6982 7.04375C18.7763 8.55361 18.415 11.2656 19.8913 13.1012C21.3675 14.9368 24.1223 15.2009 26.0442 13.691Z" fill="#EDEDED"/>
<path d="M26.0418 13.6881C27.9619 12.1797 28.3228 9.47019 26.8479 7.63626C25.3729 5.80233 22.6208 5.53845 20.7007 7.04686C18.7806 8.55527 18.4198 11.2648 19.8947 13.0987C21.3696 14.9326 24.1218 15.1965 26.0418 13.6881Z" fill="#EDEDED"/>
<path d="M26.0395 13.6849C27.9577 12.178 28.3182 9.47099 26.8446 7.63872C25.3711 5.80646 22.6215 5.54275 20.7032 7.04972C18.785 8.55668 18.4245 11.2637 19.8981 13.0959C21.3717 14.9282 24.1213 15.1919 26.0395 13.6849Z" fill="#EEEEEE"/>
<path d="M26.037 13.682C27.9535 12.1764 28.3137 9.47183 26.8415 7.64123C25.3692 5.81064 22.6221 5.54721 20.7056 7.05285C18.789 8.55849 18.4288 11.263 19.9011 13.0936C21.3733 14.9242 24.1205 15.1877 26.037 13.682Z" fill="#EFEFEF"/>
<path d="M26.0342 13.6788C27.9489 12.1746 28.3088 9.47269 26.838 7.64391C25.3673 5.81513 22.6228 5.552 20.7081 7.0562C18.7934 8.56039 18.4335 11.2623 19.9043 13.0911C21.3751 14.9199 24.1195 15.183 26.0342 13.6788Z" fill="#F0F0F0"/>
<path d="M26.0319 13.6756C27.9448 12.1729 28.3042 9.47348 26.8348 7.64637C25.3654 5.81925 22.6235 5.5563 20.7106 7.05906C18.7978 8.56181 18.4383 11.2612 19.9077 13.0883C21.3772 14.9154 24.119 15.1784 26.0319 13.6756Z" fill="#F1F1F1"/>
<path d="M26.0296 13.6727C27.9406 12.1714 28.2997 9.47452 26.8316 7.64907C25.3635 5.82362 22.6242 5.56085 20.7131 7.06216C18.8021 8.56347 18.4431 11.2603 19.9111 13.0858C21.3792 14.9112 24.1186 15.174 26.0296 13.6727Z" fill="#F2F2F2"/>
<path d="M26.0266 13.6695C27.9359 12.1695 28.2948 9.47518 26.8282 7.65155C25.3616 5.82792 22.6248 5.56555 20.7155 7.06553C18.8061 8.56552 18.4472 11.2598 19.9139 13.0835C21.3805 14.9071 24.1173 15.1695 26.0266 13.6695Z" fill="#F3F3F3"/>
<path d="M26.0243 13.6663C27.9318 12.1678 28.2903 9.47597 26.825 7.65401C25.3597 5.83204 22.6255 5.56986 20.718 7.06839C18.8105 8.56693 18.452 11.2587 19.9173 13.0807C21.3826 14.9027 24.1168 15.1649 26.0243 13.6663Z" fill="#F4F4F4"/>
<path d="M26.022 13.6634C27.9276 12.1663 28.2857 9.47701 26.8217 7.65671C25.3578 5.83641 22.6262 5.5744 20.7205 7.0715C18.8149 8.56859 18.4568 11.2579 19.9207 13.0782C21.3847 14.8985 24.1163 15.1605 26.022 13.6634Z" fill="#F5F5F5"/>
<path d="M26.0194 13.6602C27.9234 12.1645 28.2812 9.47761 26.8186 7.65898C25.356 5.84035 22.6268 5.57861 20.7228 7.07438C18.8189 8.57015 18.4611 11.257 19.9237 13.0756C21.3863 14.8943 24.1155 15.156 26.0194 13.6602Z" fill="#F6F6F6"/>
<path d="M26.0167 13.6572C27.9188 12.1629 28.2763 9.47871 26.8151 7.6619C25.354 5.84508 22.6275 5.58365 20.7254 7.07798C18.8232 8.5723 18.4657 11.2565 19.9269 13.0733C21.388 14.8901 24.1145 15.1516 26.0167 13.6572Z" fill="#F7F7F7"/>
<path d="M26.0143 13.6541C27.9146 12.1612 28.2717 9.4795 26.8119 7.66436C25.3521 5.84921 22.6282 5.58796 20.7279 7.08084C18.8276 8.57372 18.4705 11.2554 19.9303 13.0706C21.3901 14.8857 24.114 15.147 26.0143 13.6541Z" fill="white"/>
<path d="M26.0118 13.6509C27.9104 12.1594 28.2672 9.48011 26.8088 7.66662C25.3503 5.85314 22.6288 5.59217 20.7302 7.08372C18.8316 8.57528 18.4748 11.2545 19.9333 13.068C21.3917 14.8815 24.1132 15.1425 26.0118 13.6509Z" fill="#F9F9F9"/>
<path d="M26.0095 13.6477C27.9063 12.1576 28.2628 9.48096 26.8058 7.6693C25.3488 5.85763 22.63 5.59696 20.7332 7.08707C18.8365 8.57718 18.48 11.2538 19.937 13.0655C21.394 14.8771 24.1128 15.1378 26.0095 13.6477Z" fill="#FAFAFA"/>
<path d="M26.0072 13.6445C27.9022 12.1559 28.2582 9.48175 26.8026 7.67175C25.3469 5.86175 22.6307 5.60126 20.7358 7.08993C18.8408 8.5786 18.4847 11.2527 19.9404 13.0627C21.3961 14.8727 24.1123 15.1332 26.0072 13.6445Z" fill="#FBFBFB"/>
<path d="M26.0047 13.6416C27.8979 12.1543 28.2537 9.4826 26.7994 7.67427C25.3451 5.86593 22.6313 5.60572 20.7381 7.09306C18.8448 8.5804 18.489 11.2521 19.9434 13.0604C21.3977 14.8687 24.1114 15.129 26.0047 13.6416Z" fill="#FCFCFC"/>
<path d="M26.0024 13.6387C27.8938 12.1528 28.2492 9.48364 26.7962 7.67697C25.3432 5.8703 22.632 5.61027 20.7406 7.09616C18.8492 8.58206 18.4938 11.2512 19.9468 13.0579C21.3998 14.8646 24.111 15.1246 26.0024 13.6387Z" fill="#FDFDFD"/>
<path d="M25.9996 13.6352C27.8892 12.1508 28.2443 9.48425 26.7927 7.6794C25.3412 5.87455 22.6327 5.61481 20.7431 7.09927C18.8536 8.58372 18.4985 11.2502 19.95 13.0551C21.4015 14.8599 24.11 15.1197 25.9996 13.6352Z" fill="#FEFEFE"/>
<path d="M25.9971 13.6326C27.885 12.1494 28.2398 9.48534 26.7896 7.68215C25.3394 5.87897 22.6334 5.61951 20.7455 7.10264C18.8576 8.58577 18.5028 11.2499 19.9529 13.053C21.4031 14.8562 24.1092 15.1157 25.9971 13.6326Z" fill="white"/>
</g>
<path d="M23.3886 13.8774C25.3553 13.8774 26.9497 12.3017 26.9497 10.3579C26.9497 8.41412 25.3553 6.83838 23.3886 6.83838C21.422 6.83838 19.8276 8.41412 19.8276 10.3579C19.8276 12.3017 21.422 13.8774 23.3886 13.8774Z" fill="#525252"/>
<path d="M25.9024 12.8424C27.2908 11.4701 27.2908 9.24522 25.9024 7.87296C24.5139 6.50069 22.2628 6.50069 20.8744 7.87296C19.4859 9.24522 19.4859 11.4701 20.8744 12.8424C22.2628 14.2146 24.5139 14.2146 25.9024 12.8424Z" fill="#535353"/>
<path d="M23.3887 13.866C25.3489 13.866 26.938 12.2954 26.938 10.3581C26.938 8.42066 25.3489 6.8501 23.3887 6.8501C21.4284 6.8501 19.8394 8.42066 19.8394 10.3581C19.8394 12.2954 21.4284 13.866 23.3887 13.866Z" fill="#545454"/>
<path d="M23.3884 13.8602C25.3455 13.8602 26.932 12.2921 26.932 10.3578C26.932 8.42352 25.3455 6.85547 23.3884 6.85547C21.4313 6.85547 19.8447 8.42352 19.8447 10.3578C19.8447 12.2921 21.4313 13.8602 23.3884 13.8602Z" fill="#555555"/>
<path d="M23.3887 13.8544C25.3425 13.8544 26.9263 12.289 26.9263 10.358C26.9263 8.42696 25.3425 6.86157 23.3887 6.86157C21.4349 6.86157 19.8511 8.42696 19.8511 10.358C19.8511 12.289 21.4349 13.8544 23.3887 13.8544Z" fill="#555656"/>
<path d="M23.3885 13.8483C25.339 13.8483 26.9201 12.2856 26.9201 10.3579C26.9201 8.43015 25.339 6.86743 23.3885 6.86743C21.4381 6.86743 19.8569 8.43015 19.8569 10.3579C19.8569 12.2856 21.4381 13.8483 23.3885 13.8483Z" fill="#565757"/>
<path d="M23.3887 13.843C25.336 13.843 26.9146 12.2827 26.9146 10.3581C26.9146 8.4335 25.336 6.87329 23.3887 6.87329C21.4414 6.87329 19.8628 8.4335 19.8628 10.3581C19.8628 12.2827 21.4414 13.843 23.3887 13.843Z" fill="#575758"/>
<path d="M23.3885 13.8369C25.3325 13.8369 26.9084 12.2794 26.9084 10.358C26.9084 8.4367 25.3325 6.87915 23.3885 6.87915C21.4446 6.87915 19.8687 8.4367 19.8687 10.358C19.8687 12.2794 21.4446 13.8369 23.3885 13.8369Z" fill="#585859"/>
<path d="M23.3887 13.8313C25.3296 13.8313 26.903 12.2763 26.903 10.358C26.903 8.4398 25.3296 6.88477 23.3887 6.88477C21.4479 6.88477 19.8745 8.4398 19.8745 10.358C19.8745 12.2763 21.4479 13.8313 23.3887 13.8313Z" fill="#59595A"/>
<path d="M23.3886 13.8253C25.3261 13.8253 26.8968 12.2729 26.8968 10.3579C26.8968 8.443 25.3261 6.89062 23.3886 6.89062C21.451 6.89062 19.8804 8.443 19.8804 10.3579C19.8804 12.2729 21.451 13.8253 23.3886 13.8253Z" fill="#5A5A5B"/>
<path d="M23.3888 13.8197C25.3232 13.8197 26.8913 12.2698 26.8913 10.358C26.8913 8.4461 25.3232 6.89624 23.3888 6.89624C21.4544 6.89624 19.8862 8.4461 19.8862 10.358C19.8862 12.2698 21.4544 13.8197 23.3888 13.8197Z" fill="#5B5B5C"/>
<path d="M23.3886 13.8139C25.3197 13.8139 26.8851 12.2667 26.8851 10.3581C26.8851 8.44954 25.3197 6.90234 23.3886 6.90234C21.4575 6.90234 19.8921 8.44954 19.8921 10.3581C19.8921 12.2667 21.4575 13.8139 23.3886 13.8139Z" fill="#5C5C5D"/>
<path d="M25.8566 12.797C27.2197 11.4498 27.2197 9.26552 25.8566 7.91829C24.4935 6.57105 22.2834 6.57105 20.9203 7.91829C19.5572 9.26552 19.5572 11.4498 20.9203 12.797C22.2834 14.1443 24.4935 14.1443 25.8566 12.797Z" fill="#5C5D5E"/>
<path d="M25.8524 12.7931C27.2133 11.448 27.2133 9.26729 25.8524 7.92225C24.4915 6.57721 22.285 6.57721 20.9241 7.92225C19.5632 9.26729 19.5632 11.448 20.9241 12.7931C22.285 14.1381 24.4914 14.1381 25.8524 12.7931Z" fill="#5D5E5F"/>
<path d="M23.3884 13.7962C25.3097 13.7962 26.8672 12.2568 26.8672 10.3579C26.8672 8.45903 25.3097 6.91968 23.3884 6.91968C21.4672 6.91968 19.9097 8.45903 19.9097 10.3579C19.9097 12.2568 21.4672 13.7962 23.3884 13.7962Z" fill="#5E5F60"/>
<path d="M25.8441 12.7849C27.2005 11.4444 27.2005 9.27095 25.8441 7.93042C24.4878 6.5899 22.2888 6.5899 20.9324 7.93042C19.5761 9.27095 19.5761 11.4444 20.9324 12.7849C22.2888 14.1254 24.4878 14.1254 25.8441 12.7849Z" fill="#5F6061"/>
<path d="M25.8401 12.7807C27.1941 11.4425 27.1941 9.27284 25.8401 7.93464C24.4862 6.59643 22.2909 6.59643 20.937 7.93464C19.583 9.27284 19.583 11.4425 20.937 12.7807C22.2909 14.1189 24.4862 14.1189 25.8401 12.7807Z" fill="#606061"/>
<path d="M23.3888 13.7787C25.3003 13.7787 26.8499 12.2472 26.8499 10.358C26.8499 8.46877 25.3003 6.93726 23.3888 6.93726C21.4773 6.93726 19.9277 8.46877 19.9277 10.358C19.9277 12.2472 21.4773 13.7787 23.3888 13.7787Z" fill="#616162"/>
<path d="M25.8319 12.7725C27.1814 11.4388 27.1814 9.2765 25.8319 7.94281C24.4825 6.60912 22.2947 6.60912 20.9453 7.94281C19.5959 9.2765 19.5959 11.4388 20.9453 12.7725C22.2947 14.1062 24.4825 14.1062 25.8319 12.7725Z" fill="#626263"/>
<path d="M25.8275 12.7683C27.1745 11.437 27.1745 9.27838 25.8275 7.94702C24.4804 6.61566 22.2964 6.61566 20.9493 7.94702C19.6023 9.27838 19.6023 11.4369 20.9493 12.7683C22.2964 14.0997 24.4804 14.0997 25.8275 12.7683Z" fill="#636364"/>
<path d="M25.8237 12.7643C27.1686 11.4352 27.1686 9.28016 25.8237 7.95098C24.4789 6.62181 22.2985 6.62181 20.9536 7.95098C19.6088 9.28016 19.6088 11.4352 20.9536 12.7643C22.2985 14.0935 24.4789 14.0935 25.8237 12.7643Z" fill="#636465"/>
<path d="M25.8192 12.7601C27.1617 11.4333 27.1617 9.28204 25.8192 7.9552C24.4768 6.62835 22.3001 6.62835 20.9577 7.95519C19.6152 9.28204 19.6152 11.4333 20.9577 12.7601C22.3001 14.087 24.4768 14.087 25.8192 12.7601Z" fill="#646566"/>
<path d="M23.3887 13.7496C25.2839 13.7496 26.8203 12.2311 26.8203 10.358C26.8203 8.4848 25.2839 6.96631 23.3887 6.96631C21.4934 6.96631 19.957 8.4848 19.957 10.358C19.957 12.2311 21.4934 13.7496 23.3887 13.7496Z" fill="#656667"/>
<path d="M25.811 12.752C27.149 11.4296 27.149 9.2857 25.811 7.96337C24.4731 6.64103 22.3039 6.64103 20.966 7.96337C19.6281 9.2857 19.6281 11.4296 20.966 12.752C22.3039 14.0743 24.4731 14.0743 25.811 12.752Z" fill="#666768"/>
<path d="M25.8066 12.7478C27.1421 11.4277 27.1421 9.28759 25.8066 7.96758C24.471 6.64757 22.3056 6.64757 20.97 7.96758C19.6345 9.28759 19.6345 11.4277 20.97 12.7478C22.3056 14.0678 24.471 14.0678 25.8066 12.7478Z" fill="#676869"/>
<path d="M23.3884 13.7324C25.274 13.7324 26.8027 12.2216 26.8027 10.3579C26.8027 8.49421 25.274 6.9834 23.3884 6.9834C21.5027 6.9834 19.9741 8.49421 19.9741 10.3579C19.9741 12.2216 21.5027 13.7324 23.3884 13.7324Z" fill="#68696A"/>
<path d="M25.7983 12.7396C27.1293 11.4241 27.1294 9.29125 25.7983 7.97575C24.4673 6.66026 22.3094 6.66026 20.9784 7.97575C19.6474 9.29125 19.6474 11.4241 20.9784 12.7396C22.3094 14.0551 24.4673 14.0551 25.7983 12.7396Z" fill="#69696B"/>
<path d="M25.7946 12.7356C27.1234 11.4223 27.1234 9.29302 25.7946 7.97972C24.4658 6.66641 22.3114 6.66641 20.9826 7.97972C19.6539 9.29302 19.6539 11.4223 20.9826 12.7356C22.3114 14.0489 24.4658 14.0489 25.7946 12.7356Z" fill="#6A6A6C"/>
<path d="M23.3887 13.7149C25.2646 13.7149 26.7853 12.212 26.7853 10.3579C26.7853 8.50394 25.2646 7.00098 23.3887 7.00098C21.5129 7.00098 19.9922 8.50394 19.9922 10.3579C19.9922 12.212 21.5129 13.7149 23.3887 13.7149Z" fill="#6A6B6D"/>
<path d="M25.7857 12.7272C27.1097 11.4185 27.1097 9.29679 25.7857 7.98814C24.4616 6.67948 22.3148 6.67949 20.9907 7.98814C19.6666 9.29679 19.6666 11.4185 20.9907 12.7272C22.3148 14.0358 24.4616 14.0358 25.7857 12.7272Z" fill="#6B6C6E"/>
<path d="M25.7819 12.7232C27.1038 11.4168 27.1038 9.29857 25.7819 7.9921C24.4601 6.68564 22.3169 6.68564 20.995 7.9921C19.6731 9.29857 19.6731 11.4168 20.995 12.7232C22.3169 14.0297 24.4601 14.0297 25.7819 12.7232Z" fill="#6C6D6F"/>
<path d="M25.7774 12.719C27.097 11.4149 27.097 9.30045 25.7774 7.99631C24.4579 6.69217 22.3186 6.69217 20.9991 7.99631C19.6795 9.30045 19.6795 11.4149 20.9991 12.719C22.3186 14.0232 24.4579 14.0232 25.7774 12.719Z" fill="#6D6E70"/>
<path d="M25.3005 12.2476C26.3564 11.204 26.3564 9.51185 25.3005 8.46818C24.2445 7.42452 22.5324 7.42452 21.4765 8.46818C20.4205 9.51185 20.4205 11.204 21.4765 12.2476C22.5324 13.2913 24.2445 13.2913 25.3005 12.2476Z" fill="white"/>
<path d="M30.482 9.05188C32.1549 6.31495 33.4656 3.10545 33.8605 0C30.4483 0.25222 27.5721 1.73646 24.793 3.37344L30.482 9.05188Z" fill="#B95F5F"/>
<path d="M13.9459 12.2233L13.1099 13.0447L20.6097 20.5013L21.4458 19.6799L13.9459 12.2233Z" fill="#6D6E70"/>
<path d="M14.1654 22.2408L12.7381 20.8217L11.3107 19.4026C11.3107 19.4026 6.94445 20.7986 7.14436 26.3169C12.7267 26.5474 14.165 22.2404 14.165 22.2404L14.1654 22.2408Z" fill="#F2D139"/>
<path d="M13.6936 21.7714L12.7384 20.8217L11.7832 19.8721C11.7832 19.8721 8.86122 20.806 8.99519 24.4992C12.7309 24.6534 13.6936 21.7711 13.6936 21.7711V21.7714Z" fill="#B95F5F"/>
<path d="M21.4454 19.6798L16.505 14.7678L15.6841 15.6044L20.6093 20.5013L21.4454 19.6798Z" fill="#6D6E70"/>
<path opacity="0.21" d="M14.5107 12.7788L13.6987 13.6304L15.3057 15.2523L16.1266 14.4161L14.5107 12.7788Z" fill="white"/>
<path d="M26.7525 7.85992C26.7142 7.70649 26.5575 7.61261 26.4023 7.65009C26.247 7.68792 26.1521 7.84276 26.19 7.99619C26.2279 8.14962 26.3849 8.24351 26.5402 8.20602C26.6954 8.16819 26.7904 8.01336 26.7525 7.85992ZM26.4905 8.08727L26.4569 7.95205L26.3201 7.98533L26.3105 7.94715L26.4473 7.91387L26.4136 7.77865L26.4523 7.76919L26.4859 7.90441L26.6227 7.87113L26.6323 7.90931L26.4955 7.94259L26.5292 8.07781L26.4905 8.08727Z" fill="#BFBFBF"/>
<path d="M20.5585 12.7547C20.5344 12.5985 20.3866 12.491 20.2286 12.5148C20.0705 12.5386 19.9617 12.6847 19.9858 12.8409C20.0099 12.9971 20.1577 13.1047 20.3157 13.0809C20.4738 13.0571 20.5826 12.911 20.5585 12.7547ZM20.2768 12.9579L20.2555 12.8202L20.1162 12.8413L20.1102 12.8024L20.2495 12.7814L20.2282 12.6437L20.2675 12.6377L20.2888 12.7754L20.4281 12.7544L20.4341 12.7933L20.2948 12.8143L20.3161 12.952L20.2768 12.9579Z" fill="#BFBFBF"/>
<path d="M23.9057 6.1315C23.7469 6.11363 23.6034 6.22643 23.585 6.38337C23.5665 6.54031 23.681 6.68218 23.8398 6.70039C23.9986 6.71826 24.1421 6.60546 24.1606 6.44853C24.1786 6.29159 24.0645 6.14972 23.9057 6.1315ZM24.0301 6.45343L23.8901 6.43767L23.8742 6.57604L23.8348 6.57148L23.8508 6.43311L23.7108 6.41735L23.7154 6.37846L23.8554 6.39423L23.8713 6.25586L23.9107 6.26041L23.8947 6.39878L24.0347 6.41455L24.0301 6.45343Z" fill="#BFBFBF"/>
<path d="M23.0014 13.9484C22.8426 13.9305 22.699 14.0433 22.6806 14.2003C22.6625 14.3572 22.7766 14.4991 22.9354 14.5173C23.0942 14.5352 23.2378 14.4224 23.2562 14.2654C23.2743 14.1085 23.1601 13.9666 23.0014 13.9484ZM23.1261 14.2703L22.9861 14.2546L22.9702 14.3929L22.9308 14.3884L22.9468 14.25L22.8068 14.2342L22.8114 14.1954L22.9514 14.2111L22.9673 14.0728L23.0067 14.0773L22.9907 14.2157L23.1307 14.2314L23.1261 14.2703Z" fill="#BFBFBF"/>
<path d="M20.79 7.05317C20.6649 7.15161 20.644 7.33166 20.7436 7.45532C20.8432 7.57898 21.0254 7.59965 21.1505 7.50121C21.2756 7.40277 21.2965 7.22272 21.1969 7.09906C21.0973 6.9754 20.9151 6.95473 20.79 7.05317ZM21.1087 7.19364L20.9984 7.28017L21.086 7.38911L21.0548 7.41363L20.9672 7.30469L20.857 7.39121L20.8322 7.36039L20.9424 7.27386L20.8549 7.16492L20.8861 7.1404L20.9736 7.24934L21.0839 7.16282L21.1087 7.19364Z" fill="#BFBFBF"/>
<path d="M25.6914 13.1477C25.5663 13.2461 25.5454 13.4261 25.645 13.5498C25.7446 13.6735 25.9267 13.6941 26.0519 13.5957C26.177 13.4973 26.1979 13.3172 26.0983 13.1935C25.9987 13.0699 25.8165 13.0492 25.6914 13.1477ZM26.0097 13.2881L25.8995 13.3747L25.987 13.4836L25.9558 13.5081L25.8683 13.3992L25.758 13.4857L25.7332 13.4549L25.8435 13.3683L25.7559 13.2594L25.7871 13.2349L25.8746 13.3438L25.9849 13.2573L26.0097 13.2881Z" fill="#BFBFBF"/>
<path d="M19.1786 9.84535C19.1606 10.0023 19.2747 10.1442 19.4335 10.1624C19.5923 10.1802 19.7358 10.0674 19.7542 9.9105C19.7723 9.75357 19.6582 9.61169 19.4994 9.59348C19.3406 9.57526 19.1971 9.68841 19.1786 9.84535ZM19.5044 9.72204L19.4884 9.86041L19.6284 9.87617L19.6238 9.91506L19.4838 9.89929L19.4679 10.0377L19.4285 10.0331L19.4445 9.89474L19.3045 9.87898L19.3091 9.84009L19.4491 9.85586L19.465 9.71749L19.5044 9.72204Z" fill="#BFBFBF"/>
<path d="M27.0873 10.7386C27.0693 10.8955 27.1834 11.0374 27.3422 11.0556C27.501 11.0735 27.6445 10.9607 27.6629 10.8038C27.681 10.6468 27.5669 10.5049 27.4081 10.4867C27.2493 10.4689 27.1058 10.5817 27.0873 10.7386ZM27.4131 10.6156L27.3971 10.754L27.5371 10.7698L27.5325 10.8087L27.3925 10.7929L27.3766 10.9313L27.3372 10.9267L27.3532 10.7883L27.2132 10.7726L27.2178 10.7337L27.3578 10.7495L27.3737 10.6111L27.4131 10.6156Z" fill="#BFBFBF"/>
<path d="M11.5589 14.5682L16.0971 10.1095C16.0971 10.1095 15.4697 9.72032 14.416 9.521C14.3401 10.5632 13.7103 11.489 12.9135 12.142C11.8275 13.0321 10.5785 13.0423 9.30503 13.4497C7.87595 13.9068 6.56312 14.7066 5.49414 15.748L5.60969 15.8629C5.60969 15.8629 9.42412 12.4457 11.5592 14.5685L11.5589 14.5682Z" fill="#A54949"/>
<path d="M22.4934 20.0929C22.9974 19.7724 23.6645 19.4855 24.2429 19.6235C24.0859 18.3466 23.5968 17.5662 23.5968 17.5662L19.0586 22.0248C19.2957 22.2606 19.4634 22.5163 19.5743 22.785C20.477 21.8199 21.4039 20.8821 22.4934 20.0933V20.0929Z" fill="#A54949"/>
<path d="M12.0591 17.405L11.3147 18.1361C10.9596 18.485 10.9582 19.0522 11.3108 19.4032L11.3116 19.4039L12.6832 18.0258L12.0587 17.405H12.0591Z" fill="#6D6E70"/>
<path opacity="0.21" d="M12.6832 18.0256L11.3115 19.4037L11.8939 19.9824L13.2893 18.6282L12.6832 18.0256Z" fill="white"/>
<path d="M15.4473 22.2447L16.1916 21.5136L13.2895 18.6282L11.894 19.9828L14.1653 22.2412C14.5183 22.5922 15.0921 22.5936 15.4473 22.2451V22.2447Z" fill="#6D6E70"/>
<path opacity="0.13" d="M26.7341 4.94842L33.0774 0.459961C33.0774 0.459961 29.6759 0.814119 25.3071 3.4929L26.7341 4.94842Z" fill="white"/>
</svg>
