<svg width="228" height="228" viewBox="0 0 228 228" fill="none" xmlns="http://www.w3.org/2000/svg">
<circle cx="114" cy="114" r="114" fill="#8480D4"/>
<g clip-path="url(#clip0_23_4015)">
<path d="M114 73.7514C127.573 73.7514 138.575 67.5391 138.575 59.8757C138.575 52.2124 127.573 46 114 46C100.427 46 89.4243 52.2124 89.4243 59.8757C89.4243 67.5391 100.427 73.7514 114 73.7514Z" fill="#D0DEE2"/>
<path d="M25.7632 106.608V73.8985C25.7632 72.0784 27.2439 70.6021 29.0694 70.6021C29.9827 70.6021 30.8089 70.9711 31.4072 71.5676C32.0054 72.1652 32.3756 72.989 32.3756 73.8985V98.1173L25.7632 106.609V106.608Z" fill="#BDCFD6"/>
<path d="M45.0537 143.032C32.0097 141.947 23 131.906 23 118.773C23 105.64 32.0064 94.1123 45.046 92.8579L45.0537 143.031V143.032Z" fill="#D0DEE2"/>
<path d="M195.624 98.1173V73.8985C195.624 72.9879 195.994 72.1641 196.592 71.5676C197.191 70.9711 198.018 70.6021 198.93 70.6021C200.755 70.6021 202.236 72.0784 202.236 73.8985V106.608L195.624 98.1162V98.1173Z" fill="#BDCFD6"/>
<path d="M182.954 92.8579C195.994 94.1123 205 105.642 205 118.773C205 131.905 195.99 141.947 182.946 143.031L182.954 92.8579Z" fill="#D0DEE2"/>
<path d="M114 182.001C155.373 182.001 188.912 153.318 188.912 117.937C188.912 82.5551 155.373 53.8726 114 53.8726C72.6271 53.8726 39.0879 82.5551 39.0879 117.937C39.0879 153.318 72.6271 182.001 114 182.001Z" fill="#E6ECEF"/>
<path d="M173.12 117.937C173.12 128.961 168.995 139.161 161.992 147.469C158.458 151.662 153.225 154.053 147.731 154.053H80.267C74.7739 154.053 69.5409 151.662 66.0066 147.469C59.0043 139.161 54.8784 128.961 54.8784 117.937C54.8784 106.913 59.0032 96.7126 66.0066 88.405C69.5409 84.2121 74.7739 81.8208 80.267 81.8208H147.731C153.225 81.8208 158.458 84.2121 161.992 88.405C168.994 96.7126 173.12 106.913 173.12 117.937Z" fill="#1D2F35"/>
<path d="M141.075 126.315C132.599 129.708 123.237 123.843 124.071 119.614C124.932 115.243 129.587 117.406 136.391 114.682C143.197 111.958 145.059 107.188 148.712 109.751C152.247 112.231 149.551 122.922 141.075 126.315Z" fill="#EF3F3F"/>
<path d="M86.9247 126.314C78.4483 122.921 75.7524 112.229 79.2878 109.75C82.941 107.187 84.8028 111.957 91.6091 114.681C91.9451 114.816 92.2767 114.938 92.6006 115.05C94.013 115.537 95.3218 115.825 96.5128 116.026C100.603 116.72 103.295 116.396 103.929 119.613C104.763 123.842 95.4011 129.707 86.9247 126.314Z" fill="#EF3F3F"/>
<path d="M113.999 140.296C108.881 140.296 105.504 136.249 105.362 136.077C104.596 135.143 104.735 133.768 105.671 133.004C106.608 132.241 107.987 132.379 108.753 133.313C108.767 133.329 110.986 135.93 113.999 135.93C117.012 135.93 119.231 133.329 119.253 133.303C120.018 132.369 121.394 132.237 122.33 133C123.266 133.763 123.401 135.143 122.635 136.077C122.494 136.249 119.116 140.296 113.998 140.296H113.999Z" fill="black"/>
<path d="M87.6286 101.347C89.7703 103.06 91.9704 104.701 94.2311 106.255C96.3948 107.741 98.6125 109.148 100.88 110.473C102.158 111.219 103.45 111.939 104.758 112.632C105.106 112.817 105.512 112.887 105.898 112.781C106.242 112.686 106.614 112.421 106.783 112.102C106.964 111.759 107.055 111.344 106.931 110.965C106.816 110.607 106.593 110.264 106.251 110.083C104.158 108.973 102.104 107.796 100.09 106.551C98.0826 105.311 96.1161 104.005 94.1947 102.635C93.114 101.865 92.0475 101.074 90.9954 100.265L91.2951 100.495C90.7663 100.088 90.2418 99.676 89.7207 99.2586C89.5863 99.1147 89.4277 99.0126 89.2448 98.9533C89.0685 98.861 88.8779 98.8181 88.6741 98.8258C88.3106 98.8258 87.8776 98.9862 87.6275 99.2586C87.3774 99.531 87.1758 99.9089 87.1935 100.302C87.21 100.668 87.3268 101.106 87.6275 101.346L87.6286 101.347Z" fill="black"/>
<path d="M138.277 99.2587C137.756 99.6761 137.23 100.088 136.703 100.496L137.002 100.265C135.127 101.708 133.205 103.091 131.238 104.408C129.278 105.721 127.274 106.97 125.232 108.152C124.083 108.816 122.92 109.46 121.747 110.083C121.426 110.253 121.162 110.621 121.066 110.965C120.97 111.309 121.012 111.789 121.215 112.102C121.418 112.415 121.722 112.695 122.1 112.781C122.497 112.871 122.877 112.825 123.24 112.632C125.567 111.399 127.847 110.081 130.076 108.68C132.299 107.284 134.471 105.807 136.585 104.251C137.866 103.31 139.126 102.34 140.368 101.347C140.512 101.213 140.615 101.055 140.674 100.872C140.767 100.697 140.81 100.507 140.802 100.303C140.802 99.9408 140.641 99.5091 140.368 99.2598C140.095 99.0104 139.716 98.8094 139.321 98.827L138.928 98.8797C138.677 98.95 138.46 99.0763 138.275 99.2598L138.277 99.2587Z" fill="black"/>
<path d="M98.3172 119.775C98.3172 122.429 96.159 124.58 93.4962 124.58C90.8334 124.58 88.6763 122.429 88.6763 119.775C88.6763 117.425 90.3674 115.47 92.6016 115.05C94.014 115.537 95.3228 115.824 96.5137 116.025C97.6143 116.906 98.3183 118.259 98.3183 119.775H98.3172Z" fill="white"/>
<path d="M129.683 119.775C129.683 122.429 131.841 124.58 134.504 124.58C137.165 124.58 139.324 122.429 139.324 119.775C139.324 117.425 137.633 115.47 135.398 115.05C133.986 115.537 132.677 115.824 131.486 116.025C130.386 116.906 129.682 118.259 129.682 119.775H129.683Z" fill="white"/>
</g>
<defs>
<clipPath id="clip0_23_4015">
<rect width="182" height="136" fill="white" transform="translate(23 46)"/>
</clipPath>
</defs>
</svg>
