<svg width="228" height="228" viewBox="0 0 228 228" fill="none" xmlns="http://www.w3.org/2000/svg">
<circle cx="114" cy="114" r="114" fill="#8480D4"/>
<g clip-path="url(#clip0_23_3351)">
<path d="M170.429 49.4679H160.615C161.557 57.2021 160.316 63.4177 158.203 68.309C153.608 56.8578 148.503 49 148.503 49L82.1547 54.5887C82.1547 54.5887 77.5513 63.7797 73.4848 76.4846C69.4712 71.0812 65.9768 62.8791 67.3939 51.269H57.5798C57.5798 51.269 22.9532 165.472 79.0564 141.086C85.8163 147.037 96.0177 150.816 110.972 150.983L115.778 150.63L110.919 173.453H86.3532L90.8158 197H147.148L151.056 173.453H127.81L121.121 150.242L124.817 149.968C134.376 147.028 141.858 143.179 147.658 138.702C205.592 165.428 170.429 49.4679 170.429 49.4679ZM60.458 57.5818C60.458 57.5818 63.8556 73.5975 71.8477 81.9144C66.9978 99.1309 64.1636 120.735 73.8369 135.153C62.0072 139.003 42.2733 135.78 60.458 57.5729V57.5818ZM153.688 133.193C169.654 115.888 166.512 92.1825 160.439 74.3303C165.377 65.9781 167.542 55.7718 167.542 55.7718C185.973 135.021 165.456 137.272 153.688 133.184V133.193Z" fill="#FFD503"/>
<path d="M84.144 56.6193C84.144 56.6193 92.321 76.1843 118.014 75.169C142.721 74.1889 147.667 53.2378 147.667 53.2378L84.144 56.6193Z" fill="#002E41"/>
<path d="M127.924 151.743C127.924 154.224 123.796 156.228 118.7 156.228C113.604 156.228 109.467 154.215 109.467 151.743C109.467 149.271 113.604 147.258 118.7 147.258C123.796 147.258 127.924 149.271 127.924 151.743Z" fill="#FF9500"/>
<path d="M145.229 194.713L93.3682 194.307L90.314 176.464L148.292 177.285L145.229 194.713ZM94.178 193.345L144.419 193.733L147.139 178.23L91.4494 177.444L94.1692 193.345H94.178Z" fill="#FF9500"/>
<path d="M95.3749 181.505C96.4395 181.505 97.3025 180.991 97.3025 180.357C97.3025 179.724 96.4395 179.21 95.3749 179.21C94.3103 179.21 93.4473 179.724 93.4473 180.357C93.4473 180.991 94.3103 181.505 95.3749 181.505Z" fill="#FF9500"/>
<path d="M144.877 181.549C144.877 182.212 144.182 182.75 143.328 182.75C142.474 182.75 141.779 182.212 141.779 181.549C141.779 180.887 142.474 180.349 143.328 180.349C144.182 180.349 144.877 180.887 144.877 181.549Z" fill="#FF9500"/>
<path d="M98.4292 190.025C98.4292 190.634 97.7427 191.12 96.9065 191.12C96.0703 191.12 95.3838 190.626 95.3838 190.025C95.3838 189.425 96.0703 188.93 96.9065 188.93C97.7427 188.93 98.4292 189.425 98.4292 190.025Z" fill="#FF9500"/>
<path d="M143.328 191.994C143.328 192.471 142.729 192.859 141.99 192.859C141.25 192.859 140.652 192.471 140.652 191.994C140.652 191.517 141.25 191.129 141.99 191.129C142.729 191.129 143.328 191.517 143.328 191.994Z" fill="#FF9500"/>
<path d="M101.519 191.226L99.0718 181.549H139.525L136.964 191.226H101.519Z" fill="#FF9500"/>
<path d="M129.164 182.974L107.994 183.804L108.069 185.736L129.239 184.906L129.164 182.974Z" fill="#FFD503"/>
<path d="M132.95 187.147H104.292V189.081H132.95V187.147Z" fill="#FFD503"/>
<path d="M116.394 139.1C96.1675 139.1 79.708 126.412 79.708 110.812C79.708 95.2109 96.1675 82.5237 116.394 82.5237C136.621 82.5237 153.081 95.2109 153.081 110.812C153.081 126.412 136.621 139.1 116.394 139.1ZM116.394 83.486C96.6957 83.486 80.6674 95.7406 80.6674 110.812C80.6674 125.883 96.6957 138.137 116.394 138.137C136.093 138.137 152.112 125.883 152.112 110.812C152.112 95.7406 136.084 83.486 116.394 83.486Z" fill="#FF9500"/>
<path d="M118.137 84.9341L116.491 88.8188L112.196 88.7217L115.541 91.0437L114.018 94.7254L117.142 92.421L120.725 95.1845L119.537 90.8142L122.996 88.6687L119.105 88.9513L118.137 84.9341Z" fill="#FF9500"/>
<path d="M133.866 90.0547L132.22 93.9394L127.925 93.8423L131.261 96.1643L129.747 99.846L132.871 97.5417L136.454 100.305L135.257 95.9348L138.725 93.7982L134.825 94.0807L133.866 90.0547Z" fill="#FF9500"/>
<path d="M144.666 102.945L143.02 106.821L138.725 106.724L142.069 109.046L140.547 112.728L143.671 110.423L147.254 113.187L146.065 108.816L149.525 106.68L145.634 106.962L144.666 102.945Z" fill="#FF9500"/>
<path d="M140.01 118.237L138.364 122.122L134.068 122.024L137.413 124.346L135.89 128.028L139.015 125.724L142.606 128.487L141.409 124.117L144.877 121.98L140.978 122.263L140.01 118.237Z" fill="#FF9500"/>
<path d="M121.851 126.289L120.197 130.174L115.91 130.076L119.246 132.398L117.732 136.08L120.857 133.776L124.439 136.539L123.242 132.169L126.71 130.032L122.811 130.315L121.851 126.289Z" fill="#FF9500"/>
<path d="M102.584 123.366L100.938 127.242L96.6431 127.145L99.9878 129.467L98.4651 133.149L101.59 130.845L105.172 133.608L103.984 129.238L107.443 127.101L103.544 127.384L102.584 123.366Z" fill="#FF9500"/>
<path d="M91.784 113.116L90.1293 117.001L85.8428 116.904L89.1787 119.226L87.656 122.907L90.7806 120.603L94.3718 123.366L93.1747 118.996L96.6427 116.851L92.7435 117.133L91.784 113.116Z" fill="#FF9500"/>
<path d="M90.0941 98.8662L88.4394 102.742L84.144 102.645L87.4888 104.967L85.966 108.649L89.0907 106.344L92.6819 109.108L91.4848 104.737L94.9528 102.601L91.0535 102.883L90.0941 98.8662Z" fill="#FF9500"/>
<path d="M100.894 87.9888L99.2484 91.8647L94.9531 91.7676L98.289 94.0984L96.7751 97.7713L99.8998 95.4757L103.482 98.2304L102.285 93.86L105.753 91.7234L101.854 92.0059L100.894 87.9888Z" fill="#FF9500"/>
<path d="M135.75 105.55C134.412 105.55 133.32 106.115 133.32 106.812C133.32 107.315 133.884 107.739 134.702 107.942C131.217 111.297 121.57 118.422 116.958 100.084C118.023 99.952 118.815 99.4576 118.815 98.866C118.815 98.1685 117.732 97.6123 116.394 97.6035C116.394 97.5858 116.394 97.577 116.385 97.5593C116.385 97.5593 116.385 97.577 116.385 97.6035C115.048 97.6035 113.956 98.1685 113.956 98.866C113.956 99.5282 114.933 100.058 116.174 100.111C115.479 105.726 112.407 118.025 99.0809 109.726C99.8291 109.514 100.34 109.108 100.34 108.631C100.34 107.933 99.257 107.368 97.9103 107.368C96.5636 107.368 95.481 107.933 95.481 108.631C95.481 109.328 96.5284 109.867 97.8399 109.885L106.439 123.366H127.907L135.468 108.057C135.556 108.057 135.644 108.075 135.741 108.075C137.079 108.075 138.17 107.51 138.17 106.812C138.17 106.115 137.087 105.55 135.741 105.55H135.75Z" fill="#FF9500"/>
<path d="M151.047 61.3252L159.92 118.246C159.92 118.246 169.549 87.9887 151.047 61.3252Z" fill="#F7EEC5"/>
<path d="M121.306 157.146V173.568H126.71L121.306 157.146Z" fill="#F7EEC5"/>
<path d="M116.227 78.7889C92.6555 78.7889 79.9103 59.3034 79.7783 59.0915L80.5881 58.5706C80.7201 58.7736 94.0726 79.1509 118.665 77.7471C143.205 76.3344 150.51 54.1472 150.59 53.9265L151.505 54.2179C151.435 54.4474 143.935 77.2615 118.718 78.7094C117.873 78.7624 117.046 78.7801 116.227 78.7801V78.7889Z" fill="#FF9500"/>
</g>
<defs>
<clipPath id="clip0_23_3351">
<rect width="134" height="148" fill="white" transform="translate(47 49)"/>
</clipPath>
</defs>
</svg>
