<svg width="36" height="36" viewBox="0 0 36 36" fill="none" xmlns="http://www.w3.org/2000/svg">
<path d="M36 18C36 8.04857 27.9257 0 18 0C8.04857 0 0 8.04857 0 18C0 27.9514 8.04857 36 18 36C27.9257 36 36 27.9514 36 18ZM19.8 21.8057H15.7886V20.7C15.7886 19.7229 15.9943 18.9 16.4057 18.18C16.8171 17.46 17.5886 16.7143 18.6686 15.8914C19.7229 15.1457 20.4171 14.5286 20.7514 14.0657C21.1114 13.6029 21.2657 13.0629 21.2657 12.4714C21.2657 11.8286 21.0343 11.34 20.5457 10.98C20.0571 10.6457 19.3886 10.4914 18.5143 10.4914C17.0229 10.4914 15.3 10.98 13.3714 11.9571L11.7257 8.66571C13.9629 7.40571 16.3543 6.76286 18.8486 6.76286C20.9314 6.76286 22.5771 7.27714 23.7857 8.25429C25.02 9.25714 25.6114 10.5943 25.6114 12.24C25.6114 13.3457 25.38 14.2971 24.8657 15.0943C24.3771 15.9171 23.4 16.8171 22.0114 17.82C21.0343 18.54 20.4429 19.08 20.1857 19.44C19.9286 19.8257 19.8 20.3143 19.8 20.9057V21.8057ZM16.02 28.8514C15.5571 28.4143 15.3257 27.7714 15.3257 26.9743C15.3257 26.1257 15.5314 25.4829 15.9943 25.0457C16.4571 24.6086 17.1 24.4029 17.9743 24.4029C18.7971 24.4029 19.44 24.6343 19.9029 25.0714C20.3657 25.5086 20.5971 26.1514 20.5971 26.9743C20.5971 27.7457 20.3657 28.3886 19.9029 28.8257C19.44 29.2886 18.7971 29.52 17.9743 29.52C17.1257 29.52 16.4829 29.2886 16.02 28.8514Z" fill="#EF8DD1"/>
</svg>
