<svg width="54" height="53" viewBox="0 0 54 53" fill="none" xmlns="http://www.w3.org/2000/svg">
<path d="M24.4339 4.90599L26.8502 3.2937L21.4531 24.3261L19.1865 23.7958L24.4339 4.90599Z" fill="#FFEF99"/>
<path d="M26.8502 3.2937L21.4531 24.3261L22.7703 24.0011L27.7868 5.68433L26.8502 3.2937Z" fill="#EBD156"/>
<path d="M45.6499 16.735L48.4554 15.978L36.6091 34.1793L34.6333 32.9562L45.6499 16.735Z" fill="#FFEF99"/>
<path d="M48.4551 15.978L36.6089 34.1793L37.9603 34.2948L48.5749 18.5483L48.4551 15.978Z" fill="#EBD156"/>
<path d="M28.0047 5.25657L30.421 3.64429L25.0239 24.6767L22.7573 24.1507L28.0047 5.25657Z" fill="#FFEF99"/>
<path d="M30.421 3.64429L25.0239 24.6767L26.3411 24.3517L31.3576 6.0392L30.421 3.64429Z" fill="#EBD156"/>
<path d="M20.3838 3.23402L22.5906 1.34375L19.7595 22.8723L17.4458 22.62L20.3838 3.23402Z" fill="#FFEF99"/>
<path d="M22.5904 1.34351L19.7593 22.872L21.0252 22.3931L23.805 3.60584L22.5904 1.34351Z" fill="#EBD156"/>
<path d="M31.4817 5.86369L33.7611 4.06323L30.0533 25.4592L27.7524 25.1128L31.4817 5.86369Z" fill="#FFEF99"/>
<path d="M33.7611 4.06323L30.0532 25.4592L31.3405 25.0315L34.8815 6.37689L33.7611 4.06323Z" fill="#EBD156"/>
<path d="M41.6301 8.31023L44.1576 6.88184L37.2166 27.4567L34.9971 26.7596L41.6301 8.31023Z" fill="#FFEF99"/>
<path d="M44.1578 6.88184L37.2168 27.4567L38.5554 27.23L44.9147 9.33662L44.1578 6.88184Z" fill="#EBD156"/>
<path d="M46.5437 10.3071L49.4219 9.90942L35.3989 26.4899L33.5898 25.023L46.5437 10.3071Z" fill="#FFEF99"/>
<path d="M49.422 9.90942L35.3989 26.4899L36.7247 26.7679L49.221 12.4711L49.422 9.90942Z" fill="#EBD156"/>
<path d="M35.6854 3.79386L38.3454 2.63062L29.3346 22.3843L27.1963 21.4691L35.6854 3.79386Z" fill="#FFEF99"/>
<path d="M38.3453 2.63062L29.3345 22.3843L30.6859 22.2945L38.8457 5.14955L38.3453 2.63062Z" fill="#EBD156"/>
<path d="M40.8387 4.56795L43.6185 3.72974L32.3283 22.2775L30.314 21.1099L40.8387 4.56795Z" fill="#FFEF99"/>
<path d="M43.6184 3.72998L32.3281 22.2777L33.6838 22.3461L43.8151 6.29168L43.6184 3.72998Z" fill="#EBD156"/>
<path d="M37.6229 7.24514L40.1675 5.84668L32.9742 26.336L30.7632 25.6132L37.6229 7.24514Z" fill="#FFEF99"/>
<path d="M40.1674 5.84668L32.9741 26.336L34.317 26.1222L40.8944 8.31002L40.1674 5.84668Z" fill="#EBD156"/>
<path d="M18.3995 9.83276L8.14844 40.6843C8.14844 40.6843 20.1273 49.5883 29.0226 50.9782L46.4371 22.3932C46.4371 22.3932 33.3934 13.2626 18.3995 9.83276Z" fill="#F85551"/>
</svg>
