<svg width="38" height="29" viewBox="0 0 38 29" fill="none" xmlns="http://www.w3.org/2000/svg">
<path d="M34.4311 23.2138H34.2817V20.1275C34.2817 19.0041 33.4255 18.0797 32.326 17.9616C32.1752 16.4118 31.1383 15.0525 29.6518 14.5017C29.3436 14.3875 29.0201 14.3147 28.6927 14.2787C28.5894 13.564 28.0132 13.0021 27.2885 12.9159C27.2939 12.3424 27.2836 11.749 27.2532 11.1409C27.2523 11.1218 27.2509 11.1022 27.25 11.0831C27.2456 10.9956 27.2406 10.9081 27.2353 10.8202C27.2335 10.7895 27.2312 10.7584 27.2295 10.7278C27.2241 10.6434 27.2183 10.559 27.212 10.4741L27.2102 10.4497L28.6905 10.2552C28.9387 10.2227 29.017 9.27348 28.8654 8.13589C28.7137 6.99785 28.3894 6.1019 28.1411 6.13477L26.5786 6.33999C26.5625 6.2738 26.5455 6.20717 26.5289 6.14099C26.5177 6.09657 26.507 6.05171 26.4958 6.00729C26.4735 5.92022 26.4502 5.83316 26.4269 5.7461C26.4171 5.71012 26.4081 5.67458 26.3983 5.6386C26.3647 5.51556 26.3299 5.39251 26.2936 5.26947H26.2829C25.9845 4.09146 23.517 3.13598 20.315 2.91566C19.8573 2.88412 19.3849 2.86769 18.9018 2.86769C15.2775 2.86769 12.2615 3.79518 11.6174 5.02072C11.5744 5.10245 11.5422 5.18552 11.5207 5.26947L11.5145 5.29168C11.4814 5.40584 11.4487 5.52 11.4174 5.63416C11.4058 5.67725 11.3946 5.71989 11.383 5.76298C11.3619 5.84204 11.3405 5.92111 11.3203 5.99973C11.3078 6.0486 11.2962 6.09746 11.2837 6.14632C11.2676 6.21117 11.251 6.27558 11.2353 6.34043L9.67279 6.13521C9.42452 6.10279 9.1002 6.99874 8.94856 8.13633C8.79691 9.27437 8.87519 10.2232 9.12346 10.2556L10.6037 10.4502C10.5872 10.6718 10.5742 10.8917 10.563 11.1098C10.5625 11.1205 10.5617 11.1311 10.5612 11.1413H10.5617C10.5326 11.7295 10.5214 12.3042 10.5254 12.8604C9.7484 12.8773 9.10736 13.4374 8.97182 14.1743C7.66604 14.0038 6.5052 13.1282 6.04757 11.8769C5.94379 11.5935 5.87758 11.3017 5.84672 11.0045C6.92704 10.8682 7.76266 9.95444 7.76266 8.84483V5.75853H7.91208C8.13082 5.75853 8.30797 5.58263 8.30797 5.36542V4.50723C8.30797 4.29001 8.13082 4.11411 7.91208 4.11411H7.39003L8.13664 2.6296C8.24042 2.42349 8.15587 2.17252 7.94831 2.06946C7.74074 1.96641 7.488 2.04992 7.38422 2.25647L6.44973 4.11411H6.41976L6.85815 2.11655C6.9078 1.89134 6.76376 1.6688 6.53696 1.61949C6.31016 1.57018 6.08604 1.71322 6.03639 1.93842L5.57429 4.04393V1.91755C5.57429 1.68701 5.38596 1.5 5.15379 1.5C4.92162 1.5 4.73329 1.68701 4.73329 1.91755V4.11411H4.72793L4.26493 2.17207C4.21125 1.94775 3.9849 1.80872 3.75899 1.86202C3.53309 1.91533 3.39307 2.14009 3.44675 2.36441L3.86367 4.11411H3.22353C3.00478 4.11411 2.82764 4.29001 2.82764 4.50723V5.36542C2.82764 5.58263 3.00478 5.75853 3.22353 5.75853H3.37294V8.84483C3.37294 9.96821 4.22915 10.8926 5.3287 11.0107C5.47945 12.5606 6.51638 13.9198 8.00288 14.4706C8.3111 14.5848 8.63452 14.6576 8.96198 14.6936C9.07426 15.4709 9.74616 16.0688 10.5599 16.0688C10.6104 16.0688 10.6605 16.0657 10.7102 16.0613C10.924 18.0522 11.2667 19.5407 11.4326 20.1879L11.4335 20.1914C11.438 20.2083 11.442 20.2239 11.446 20.2394L11.4532 20.2665C11.4568 20.2807 11.4604 20.2941 11.4639 20.3074L11.4706 20.3327C11.4738 20.3442 11.4765 20.3549 11.4796 20.3656C11.4823 20.3749 11.4845 20.3838 11.4867 20.3922L11.4935 20.4162C11.4966 20.4273 11.4993 20.438 11.502 20.4477L11.5046 20.4571C11.5163 20.4984 11.5239 20.5259 11.5275 20.5379L11.5284 20.5415L11.5297 20.5455C11.9171 21.875 15.0695 22.9117 18.9014 22.9117C22.7333 22.9117 25.8856 21.875 26.273 20.5455H26.2833C26.2833 20.5455 26.3039 20.4757 26.3393 20.3442C26.3397 20.342 26.3401 20.3402 26.341 20.338C26.346 20.3198 26.3509 20.3007 26.3562 20.2803C26.358 20.2727 26.3603 20.2647 26.3625 20.2572C26.367 20.2407 26.3715 20.2234 26.3759 20.2052C26.3773 20.1994 26.3786 20.1941 26.3804 20.1883C26.545 19.5465 26.8828 18.0788 27.097 16.1141C27.8888 16.1128 28.546 15.5456 28.6833 14.7984C29.9891 14.969 31.1499 15.8445 31.6075 17.0958C31.7113 17.3792 31.7775 17.6711 31.8084 17.9682C30.7281 18.1046 29.8925 19.0183 29.8925 20.1279V23.2142H29.743C29.5243 23.2142 29.3471 23.3901 29.3471 23.6073V24.4655C29.3471 24.6827 29.5243 24.8586 29.743 24.8586H30.2651L29.5185 26.3432C29.4147 26.5493 29.4988 26.8002 29.7068 26.9033C29.9144 27.0063 30.1671 26.9228 30.2709 26.7163L31.2054 24.8586H31.2354L30.797 26.8562C30.7473 27.0814 30.8914 27.304 31.1182 27.3533C31.345 27.4026 31.5691 27.2595 31.6187 27.0343L32.0808 24.9288V27.0556C32.0808 27.2862 32.2692 27.4732 32.5013 27.4732C32.7335 27.4732 32.9218 27.2862 32.9218 27.0556V24.8591H32.9272L33.3902 26.8011C33.4439 27.0254 33.6702 27.1645 33.8961 27.1112C34.122 27.0579 34.262 26.8331 34.2084 26.6088L33.7914 24.8591H34.4316C34.6503 24.8591 34.8275 24.6832 34.8275 24.466V23.6078C34.8275 23.3906 34.6503 23.2147 34.4316 23.2147L34.4311 23.2138Z" fill="white"/>
<path d="M22.1313 23.8709C22.0087 23.8092 21.8454 23.7607 21.6401 23.7159C21.0259 23.5835 20.0337 23.5 18.9069 23.5C17.9916 23.5 17.1636 23.5555 16.557 23.647C16.2533 23.6928 16.0059 23.747 15.8229 23.8118C15.7312 23.8447 15.6552 23.8793 15.5912 23.926C15.5594 23.9495 15.5295 23.9766 15.5049 24.0131C15.4803 24.049 15.4615 24.0974 15.4619 24.1494C15.4619 24.2014 15.4807 24.2498 15.5049 24.2858C15.5523 24.3533 15.6127 24.3915 15.6825 24.4284C15.805 24.4901 15.9683 24.5385 16.1736 24.5834C16.7878 24.7158 17.78 24.7993 18.9069 24.7993C19.8221 24.7993 20.6501 24.7438 21.2567 24.6523C21.5605 24.6065 21.8079 24.5523 21.9908 24.4875C22.0825 24.4546 22.1586 24.4199 22.2225 24.3733C22.2543 24.3498 22.2843 24.3227 22.3089 24.2862C22.3335 24.2503 22.3523 24.2018 22.3518 24.1499C22.3518 24.0979 22.333 24.0495 22.3089 24.0135C22.2615 23.946 22.2011 23.9073 22.1313 23.8709ZM21.9747 24.1619C21.8884 24.2032 21.739 24.2485 21.5471 24.2885C20.9682 24.4102 19.9993 24.4919 18.9069 24.4915C18.005 24.4915 17.1877 24.4359 16.6035 24.348C16.3119 24.304 16.0775 24.2516 15.9276 24.1978C15.8806 24.1814 15.8431 24.1645 15.8153 24.1494L15.839 24.1374C15.9254 24.0961 16.0748 24.0508 16.2667 24.0108C16.8455 23.8891 17.8145 23.8074 18.9069 23.8078C19.8087 23.8078 20.626 23.8634 21.2102 23.9513C21.5019 23.9953 21.7363 24.0477 21.8861 24.1014C21.9331 24.1179 21.9707 24.1348 21.9984 24.1499L21.9747 24.1619Z" fill="white"/>
<path d="M20.9807 25.7306C20.8854 25.6747 20.7678 25.6294 20.6291 25.5889C20.2135 25.4686 19.5989 25.3957 18.9073 25.3953C18.3052 25.3953 17.7608 25.4512 17.3564 25.5445C17.1537 25.5916 16.9864 25.6471 16.8576 25.7173C16.7932 25.7528 16.7368 25.7919 16.6912 25.8435C16.646 25.8941 16.6089 25.9643 16.6089 26.0451C16.6089 26.1255 16.6456 26.1962 16.6912 26.2468C16.7315 26.2921 16.7793 26.3276 16.8339 26.3596C16.9292 26.4156 17.0468 26.4609 17.1855 26.5013C17.6011 26.6217 18.2157 26.6945 18.9073 26.695C19.5094 26.695 20.0538 26.639 20.4582 26.5457C20.6609 26.4987 20.8282 26.4431 20.957 26.3729C21.0214 26.3374 21.0773 26.2983 21.1234 26.2468C21.1686 26.1962 21.2057 26.126 21.2057 26.0451C21.2057 25.9647 21.169 25.8941 21.1234 25.8435C21.0832 25.7982 21.0353 25.7626 20.9807 25.7306ZM20.8483 26.0784C20.7964 26.114 20.7038 26.1562 20.5826 26.1935C20.4005 26.2503 20.154 26.2997 19.8677 26.3334C19.581 26.3676 19.254 26.3872 18.9069 26.3872C18.3249 26.3872 17.7979 26.3321 17.4262 26.2459C17.241 26.2033 17.0942 26.1517 17.0066 26.1033C16.9645 26.0807 16.9372 26.0589 16.9252 26.0456C16.9323 26.0376 16.9439 26.026 16.9654 26.0118C17.0173 25.9763 17.1099 25.9341 17.2311 25.8968C17.4132 25.8399 17.6597 25.7906 17.946 25.7568C18.2327 25.7226 18.5597 25.7031 18.9069 25.7031C19.4888 25.7031 20.0158 25.7582 20.3875 25.8443C20.5727 25.887 20.7195 25.9385 20.8071 25.9869C20.8492 26.0096 20.8765 26.0314 20.8886 26.0447C20.8814 26.0527 20.8698 26.0642 20.8483 26.0784Z" fill="white"/>
<path d="M4.2647 2.17202C4.21102 1.9477 3.98467 1.80866 3.75876 1.86197C3.53286 1.91527 3.39284 2.14004 3.44652 2.36436L3.86344 4.11406H4.7277L4.2647 2.17202Z" fill="#C5BEC0"/>
<path d="M6.41986 4.11411L6.85825 2.11655C6.90791 1.89134 6.76386 1.6688 6.53706 1.61949C6.31026 1.57018 6.08615 1.71322 6.03649 1.93842L5.57439 4.04393V1.91755C5.57439 1.68701 5.38606 1.5 5.1539 1.5C4.92173 1.5 4.7334 1.68701 4.7334 1.91755V4.11411H6.41986Z" fill="#C5BEC0"/>
<path d="M8.13662 2.62942C8.2404 2.42331 8.15585 2.17234 7.94829 2.06928C7.74072 1.96623 7.48798 2.04974 7.38419 2.25629L6.44971 4.11393H7.39001L8.13662 2.62942Z" fill="#C5BEC0"/>
<path d="M5.3291 11.0104C5.47985 12.5602 6.51678 13.9195 8.00329 14.4703C8.3115 14.5844 8.63493 14.6573 8.96238 14.6933C8.95164 14.6182 8.94404 14.5418 8.94404 14.4636C8.94404 14.3646 8.95433 14.2682 8.97177 14.1744C7.66599 14.0039 6.50515 13.1284 6.04753 11.877C5.94374 11.5936 5.87754 11.3018 5.84667 11.0046C5.75497 11.0162 5.66237 11.0242 5.56798 11.0242C5.48701 11.0242 5.40783 11.0193 5.3291 11.0109V11.0104Z" fill="black"/>
<path d="M3.37305 8.84435C3.37305 9.96773 4.22925 10.8921 5.32881 11.0103C5.40709 11.0187 5.48672 11.0236 5.56768 11.0236C5.66252 11.0236 5.75512 11.0156 5.84638 11.004C6.9267 10.8677 7.76232 9.95396 7.76232 8.84435V5.75806H3.37305V8.84435Z" fill="#C5BEC0"/>
<path d="M3.22353 5.75819H7.91208C8.13082 5.75819 8.30797 5.58229 8.30797 5.36508V4.50689C8.30797 4.28967 8.13082 4.11377 7.91208 4.11377H3.22353C3.00478 4.11377 2.82764 4.28967 2.82764 4.50689V5.36508C2.82764 5.58229 3.00478 5.75819 3.22353 5.75819Z" fill="#4B4949"/>
<path d="M8.96215 14.6933C9.07443 15.4707 9.74633 16.0686 10.56 16.0686C10.6106 16.0686 10.6607 16.0654 10.7103 16.061C10.607 15.0984 10.5336 14.019 10.5247 12.8601C9.74767 12.877 9.10664 13.4371 8.97109 14.174C8.95365 14.2682 8.94336 14.3646 8.94336 14.4632C8.94336 14.5414 8.95096 14.6178 8.9617 14.6929L8.96215 14.6933Z" fill="#4B4949"/>
<path d="M33.3893 26.7999C33.4429 27.0243 33.6693 27.1633 33.8952 27.11C34.1211 27.0567 34.2611 26.8319 34.2074 26.6076L33.7905 24.8579H32.9263L33.3893 26.7999Z" fill="#C5BEC0"/>
<path d="M31.2343 24.8579L30.7959 26.855C30.7463 27.0802 30.8903 27.3028 31.1171 27.3521C31.3439 27.4014 31.568 27.2584 31.6177 27.0331L32.0798 24.9276V27.0545C32.0798 27.285 32.2681 27.472 32.5003 27.472C32.7325 27.472 32.9208 27.285 32.9208 27.0545V24.8579H31.2343Z" fill="#C5BEC0"/>
<path d="M29.5176 26.3424C29.4138 26.5485 29.4979 26.7995 29.7059 26.9026C29.9135 27.0056 30.1662 26.9221 30.27 26.7155L31.2045 24.8579H30.2642L29.5176 26.3424Z" fill="#C5BEC0"/>
<path d="M28.6831 14.7981C29.9889 14.9686 31.1497 15.8442 31.6074 17.0955C31.7111 17.3789 31.7773 17.6707 31.8082 17.9679C31.8999 17.9563 31.9925 17.9483 32.0869 17.9483C32.1679 17.9483 32.247 17.9532 32.3258 17.9617C32.175 16.4119 31.1381 15.0526 29.6516 14.5018C29.3434 14.3876 29.02 14.3148 28.6925 14.2788C28.7032 14.3539 28.7108 14.4303 28.7108 14.5085C28.7108 14.6075 28.7006 14.7039 28.6831 14.7976V14.7981Z" fill="black"/>
<path d="M31.8075 17.9678C30.7272 18.1042 29.8916 19.0179 29.8916 20.1275V23.2138H34.2809V20.1275C34.2809 19.0041 33.4247 18.0797 32.3251 17.9616C32.2468 17.9531 32.1672 17.9482 32.0862 17.9482C31.9914 17.9482 31.8988 17.9562 31.8075 17.9678Z" fill="#C5BEC0"/>
<path d="M29.7421 23.2139C29.5233 23.2139 29.3462 23.3898 29.3462 23.607V24.4652C29.3462 24.6824 29.5233 24.8583 29.7421 24.8583H34.4306C34.6494 24.8583 34.8265 24.6824 34.8265 24.4652V23.607C34.8265 23.3898 34.6494 23.2139 34.4306 23.2139H29.7421Z" fill="#4B4949"/>
<path d="M28.683 14.7981C28.7004 14.704 28.7107 14.608 28.7107 14.509C28.7107 14.4308 28.7031 14.3544 28.6924 14.2793C28.589 13.5646 28.0129 13.0027 27.2882 12.9165C27.277 14.0754 27.2023 15.1539 27.0972 16.1138C27.889 16.1125 28.5461 15.5453 28.6834 14.7981H28.683Z" fill="#4B4949"/>
<path d="M11.4792 20.3656C11.4765 20.355 11.4733 20.3443 11.4702 20.3328C11.4733 20.3443 11.476 20.355 11.4792 20.3656Z" fill="#4B4949"/>
<path d="M11.4165 5.63374C11.4478 5.51958 11.48 5.40542 11.5136 5.29126C11.4805 5.40542 11.4478 5.51958 11.4165 5.63374Z" fill="#4B4949"/>
<path d="M27.2349 10.8203C27.2402 10.9083 27.2452 10.9962 27.2496 11.0837C27.2452 10.9962 27.2402 10.9087 27.2349 10.8203Z" fill="#4B4949"/>
<path d="M11.2827 6.14575C11.2666 6.2106 11.25 6.27501 11.2344 6.33987C11.25 6.27546 11.2661 6.2106 11.2822 6.14575H11.2827Z" fill="#4B4949"/>
<path d="M11.4325 20.1874H21.5061V18.965C21.5061 18.6176 21.7897 18.336 22.1395 18.336H24.1413C24.4911 18.336 24.7748 18.6176 24.7748 18.965V20.1874H26.3802C26.3207 20.4202 26.2836 20.545 26.2836 20.545C26.2836 20.545 26.8048 18.7891 27.0969 16.1132C27.2016 15.1529 27.2767 14.0744 27.2879 12.9159C27.2933 12.3424 27.283 11.749 27.2526 11.1409H10.5602C10.5713 10.9126 10.5857 10.682 10.6031 10.4497C10.5414 11.2808 10.519 12.0879 10.5248 12.8599C10.5338 14.0188 10.6071 15.0982 10.7105 16.0608C10.9243 18.0517 11.2669 19.5402 11.4329 20.1874H11.4325ZM23.2878 12.2731C25.987 12.2731 26.0698 12.2745 25.987 14.9534C25.9043 17.6337 25.3916 17.6337 23.2878 17.6337C21.184 17.6337 20.7527 17.6337 20.5886 14.9534C20.4329 12.4162 20.585 12.2731 23.2878 12.2731ZM15.119 12.1505C17.8182 12.1505 17.901 12.1523 17.8182 15.7979C17.7354 19.4452 17.2228 19.4452 15.119 19.4452C13.0151 19.4452 12.5839 19.4452 12.4197 15.7979C12.2641 12.3451 12.4162 12.1505 15.119 12.1505Z" fill="#4B4949"/>
<path d="M27.2523 11.0834C27.2478 10.9959 27.2429 10.9084 27.2375 10.8204C27.2357 10.7898 27.2335 10.7587 27.2317 10.728C27.2263 10.6436 27.2205 10.5592 27.2142 10.4744C27.2138 10.4664 27.2133 10.4584 27.2124 10.4499L27.0483 10.4717L27.0474 10.4655C26.8031 10.434 26.4967 9.56422 26.3504 8.46705C26.2041 7.36987 26.2721 6.45083 26.4998 6.3571L26.4989 6.35088L26.5804 6.34022C26.5643 6.27404 26.5477 6.20741 26.5311 6.14122C26.52 6.0968 26.5092 6.05194 26.498 6.00752C26.4757 5.92045 26.4524 5.83339 26.4292 5.74633C26.4193 5.71035 26.4104 5.67481 26.4005 5.63883C26.367 5.51579 26.3321 5.39275 26.2958 5.2697C25.955 3.92289 22.7704 2.86792 18.904 2.86792C15.2797 2.86792 12.2638 3.79541 11.6196 5.02095C11.5767 5.10268 11.5444 5.18575 11.523 5.2697C11.5207 5.27725 11.5189 5.28436 11.5167 5.29191C11.4836 5.40607 11.451 5.52023 11.4196 5.63439C11.408 5.67748 11.3968 5.72012 11.3852 5.76321C11.3642 5.84228 11.3427 5.92134 11.3226 5.99997C11.31 6.04883 11.2984 6.09769 11.2859 6.14655C11.2698 6.2114 11.2537 6.27581 11.238 6.34067L11.3194 6.35133L11.3185 6.35755C11.5462 6.45127 11.6142 7.37032 11.468 8.46749C11.3217 9.56466 11.0152 10.4344 10.771 10.4659L10.7701 10.4722L10.6059 10.4504C10.5889 10.6827 10.5746 10.9132 10.563 11.1416H27.2554C27.2545 11.1225 27.2532 11.1029 27.2523 11.0838V11.0834ZM18.913 9.76277C12.4275 9.76277 12.8811 8.61052 12.8811 7.18864C12.8811 5.76676 15.5817 4.61451 18.913 4.61451C22.2443 4.61451 24.9449 5.76676 24.9449 7.18864C24.9449 8.61052 24.9449 9.76277 18.913 9.76277Z" fill="#C5BEC0"/>
<path d="M24.7745 20.1875H11.4326C11.4326 20.1875 11.4331 20.1897 11.4335 20.1911C11.438 20.2079 11.442 20.2235 11.446 20.239C11.4483 20.2479 11.451 20.2572 11.4532 20.2661C11.4568 20.2803 11.4604 20.2937 11.4639 20.307C11.4662 20.3159 11.4684 20.3243 11.4706 20.3323C11.4738 20.3439 11.4765 20.3545 11.4796 20.3652C11.4823 20.3745 11.4845 20.3834 11.4867 20.3918C11.489 20.4003 11.4912 20.4083 11.4935 20.4158C11.4966 20.4269 11.4993 20.4376 11.502 20.4474C11.5028 20.4505 11.5037 20.4536 11.5046 20.4567C11.5163 20.498 11.5239 20.5255 11.5275 20.5375L11.5283 20.5411L11.5297 20.5451C11.9171 21.8746 15.0695 22.9113 18.9014 22.9113C22.7333 22.9113 25.8856 21.8746 26.273 20.5451H26.2833C26.2833 20.5451 26.3205 20.4203 26.38 20.1875H24.7745Z" fill="black"/>
<path d="M15.1193 19.4458C17.2232 19.4458 17.7358 19.4458 17.8186 15.7984C17.9013 12.1529 17.8186 12.1511 15.1193 12.1511C12.4201 12.1511 12.2644 12.3457 12.4201 15.7984C12.5843 19.4458 12.9788 19.4458 15.1193 19.4458ZM13.0965 13.669C13.258 12.8205 13.7715 12.7512 15.1166 12.7512C16.4618 12.7512 16.9767 12.7521 17.1238 13.669C17.1659 13.9315 17.1811 14.27 17.182 14.7044C17.1824 15.002 17.1766 15.3445 17.1686 15.7398V15.766C17.1601 16.1489 17.1467 16.4834 17.1265 16.7752C17.0966 17.2066 17.0509 17.545 16.9843 17.8107C16.7405 18.7803 16.2126 18.7808 15.1171 18.7808C14.0216 18.7808 13.5107 18.7808 13.2714 17.8107C13.2061 17.545 13.1591 17.2066 13.1242 16.7752C13.1005 16.4834 13.0817 16.1494 13.0656 15.766L13.0647 15.7398C13.0486 15.3445 13.037 15.0024 13.0347 14.7044C13.0312 14.2708 13.0473 13.9319 13.0974 13.669H13.0965Z" fill="#C5BEC0"/>
<path d="M15.1164 12.751C13.7712 12.751 13.2577 12.8203 13.0962 13.6687H17.1236C16.9759 12.7514 16.496 12.751 15.1164 12.751Z" fill="#666666"/>
<path d="M17.1817 14.7044C17.1809 14.2699 17.1661 13.9319 17.1236 13.6689H13.0962C13.0461 13.9319 13.0305 14.2708 13.0336 14.7044H17.1813H17.1817Z" fill="#4B4949"/>
<path d="M13.0642 15.7393H17.1685C17.1765 15.3444 17.1823 15.0015 17.1819 14.7039H13.0342C13.0364 15.0019 13.048 15.3439 13.0642 15.7393Z" fill="#666666"/>
<path d="M13.0649 15.7655C13.0805 16.1484 13.0993 16.4828 13.1235 16.7747H17.1262C17.1464 16.4828 17.1598 16.1488 17.1678 15.7655V15.7393H13.064L13.0649 15.7655Z" fill="#4B4949"/>
<path d="M13.2707 17.8098H16.9836C17.0502 17.5442 17.0959 17.2057 17.1258 16.7744H13.123C13.1584 17.2057 13.2049 17.5442 13.2702 17.8098H13.2707Z" fill="#666666"/>
<path d="M15.1167 18.7797C16.2122 18.7797 16.7401 18.7797 16.9839 17.8096H13.271C13.5103 18.7793 14.0019 18.7797 15.1167 18.7797Z" fill="#4B4949"/>
<path d="M23.2878 17.634C25.3916 17.634 25.9043 17.634 25.987 14.9537C26.0698 12.2748 25.987 12.2734 23.2878 12.2734C20.5885 12.2734 20.4329 12.4165 20.5885 14.9537C20.7527 17.634 21.1473 17.634 23.2878 17.634ZM25.1782 13.3448C25.3433 13.3448 25.477 13.4777 25.477 13.6416C25.477 13.8055 25.3433 13.9383 25.1782 13.9383C25.0132 13.9383 24.8794 13.8055 24.8794 13.6416C24.8794 13.4777 25.0132 13.3448 25.1782 13.3448ZM25.1782 14.5713C25.3433 14.5713 25.477 14.7041 25.477 14.868C25.477 15.0319 25.3433 15.1647 25.1782 15.1647C25.0132 15.1647 24.8794 15.0319 24.8794 14.868C24.8794 14.7041 25.0132 14.5713 25.1782 14.5713ZM25.1782 15.7982C25.3433 15.7982 25.477 15.931 25.477 16.0949C25.477 16.2588 25.3433 16.3916 25.1782 16.3916C25.0132 16.3916 24.8794 16.2588 24.8794 16.0949C24.8794 15.931 25.0132 15.7982 25.1782 15.7982ZM22.8713 12.9357C24.4871 12.9357 24.5367 12.9366 24.4871 14.9533C24.4374 16.9708 24.1306 16.9708 22.8713 16.9708C21.6121 16.9708 21.3535 16.9708 21.2551 14.9533C21.162 13.0432 21.2528 12.9357 22.8713 12.9357Z" fill="#C5BEC0"/>
<path d="M24.7746 18.9649C24.7746 18.6176 24.4909 18.3359 24.1411 18.3359H22.1393C21.7895 18.3359 21.5059 18.6176 21.5059 18.9649V20.1874H24.7741V18.9649H24.7746Z" fill="#666666"/>
<path d="M25.1782 13.9384C25.3433 13.9384 25.477 13.8056 25.477 13.6417C25.477 13.4778 25.3433 13.345 25.1782 13.345C25.0131 13.345 24.8794 13.4778 24.8794 13.6417C24.8794 13.8056 25.0131 13.9384 25.1782 13.9384Z" fill="black"/>
<path d="M25.1782 15.1655C25.3433 15.1655 25.477 15.0327 25.477 14.8687C25.477 14.7048 25.3433 14.572 25.1782 14.572C25.0131 14.572 24.8794 14.7048 24.8794 14.8687C24.8794 15.0327 25.0131 15.1655 25.1782 15.1655Z" fill="black"/>
<path d="M25.1782 16.3915C25.3433 16.3915 25.477 16.2587 25.477 16.0948C25.477 15.9309 25.3433 15.7981 25.1782 15.7981C25.0131 15.7981 24.8794 15.9309 24.8794 16.0948C24.8794 16.2587 25.0131 16.3915 25.1782 16.3915Z" fill="black"/>
<path d="M10.767 10.4714L10.7679 10.4652C11.0122 10.4337 11.3186 9.56394 11.4649 8.46677C11.6111 7.36959 11.5431 6.45055 11.3154 6.35682L11.3163 6.3506L11.2349 6.33994L9.67238 6.13428C9.92065 6.1667 9.99893 7.11596 9.84729 8.25355C9.69564 9.39159 9.37132 10.2875 9.12305 10.2547L10.6033 10.4492L10.7675 10.471L10.767 10.4714Z" fill="#4B4949"/>
<path d="M9.84658 8.25391C9.99823 7.11588 9.91994 6.16707 9.67167 6.13464C9.4234 6.10222 9.09908 6.99816 8.94743 8.13576C8.79578 9.2738 8.87407 10.2226 9.12234 10.255C9.37061 10.2875 9.69493 9.39151 9.84658 8.25391Z" fill="#C5BEC0"/>
<path d="M26.4962 6.35065L26.4971 6.35687C26.2694 6.45059 26.2015 7.36964 26.3477 8.46681C26.494 9.56398 26.8004 10.4337 27.0447 10.4653L27.0456 10.4715L27.2097 10.4497L28.69 10.2552C28.4417 10.2876 28.1174 9.39163 27.9657 8.25404C27.8141 7.116 27.8924 6.16719 28.1407 6.13477L26.5781 6.33999L26.4967 6.35065H26.4962Z" fill="#4B4949"/>
<path d="M27.966 8.25394C28.1176 9.39198 28.442 10.2879 28.6902 10.2551C28.9385 10.2226 29.0168 9.27337 28.8651 8.13578C28.7135 6.99774 28.3892 6.10179 28.1409 6.13467C27.8926 6.16709 27.8143 7.11635 27.966 8.25394Z" fill="#C5BEC0"/>
<path d="M15.9004 8.07087C16.295 8.07087 16.6148 7.75327 16.6148 7.36149C16.6148 6.9697 16.295 6.6521 15.9004 6.6521C15.5059 6.6521 15.186 6.9697 15.186 7.36149C15.186 7.75327 15.5059 8.07087 15.9004 8.07087ZM16.3773 7.35305C16.4229 7.41124 16.422 7.48764 16.3755 7.52362C16.329 7.5596 16.2543 7.54139 16.2086 7.4832C16.163 7.42501 16.1639 7.3486 16.21 7.31262C16.2565 7.27664 16.3312 7.29486 16.3768 7.35305H16.3773ZM15.8638 6.86931C15.951 6.80179 16.0914 6.836 16.1773 6.94527C16.2632 7.05499 16.2619 7.19846 16.1742 7.26598C16.087 7.3335 15.9465 7.2993 15.8606 7.18958C15.7747 7.07986 15.7761 6.93639 15.8638 6.86931Z" fill="black"/>
<path d="M16.1741 7.26615C16.2614 7.19863 16.2627 7.05515 16.1773 6.94544C16.0914 6.83572 15.9514 6.80196 15.8637 6.86948C15.7765 6.937 15.7751 7.08047 15.8606 7.18975C15.9464 7.29946 16.0865 7.33322 16.1741 7.26615Z" fill="white"/>
<path d="M16.2089 7.48324C16.2545 7.54143 16.3292 7.55964 16.3758 7.52366C16.4223 7.48768 16.4232 7.41128 16.3775 7.35309C16.3319 7.2949 16.2572 7.27668 16.2107 7.31266C16.1642 7.34864 16.1633 7.42505 16.2094 7.48324H16.2089Z" fill="white"/>
<path d="M21.9126 8.07087C22.3072 8.07087 22.627 7.75327 22.627 7.36149C22.627 6.9697 22.3072 6.6521 21.9126 6.6521C21.5181 6.6521 21.1982 6.9697 21.1982 7.36149C21.1982 7.75327 21.5181 8.07087 21.9126 8.07087ZM22.3899 7.35305C22.4356 7.41124 22.4347 7.48764 22.3882 7.52362C22.3416 7.5596 22.2669 7.54139 22.2213 7.4832C22.1757 7.42501 22.1766 7.3486 22.2231 7.31262C22.2696 7.27664 22.3443 7.29486 22.3899 7.35305ZM21.876 6.86931C21.9632 6.80179 22.1037 6.836 22.1895 6.94527C22.2754 7.05499 22.2741 7.19846 22.1864 7.26598C22.0992 7.3335 21.9587 7.2993 21.8728 7.18958C21.7869 7.07986 21.7883 6.93639 21.876 6.86931Z" fill="black"/>
<path d="M22.1864 7.26615C22.2736 7.19863 22.2749 7.05515 22.1895 6.94544C22.1036 6.83572 21.9636 6.80196 21.8759 6.86948C21.7887 6.937 21.7873 7.08047 21.8728 7.18975C21.9587 7.29946 22.0987 7.33322 22.1864 7.26615Z" fill="white"/>
<path d="M22.2212 7.48324C22.2668 7.54143 22.3415 7.55964 22.388 7.52366C22.4345 7.48768 22.4354 7.41128 22.3898 7.35309C22.3442 7.2949 22.2695 7.27668 22.223 7.31266C22.1764 7.34864 22.1755 7.42505 22.2212 7.48324Z" fill="white"/>
<path d="M21.9903 24.4875C22.082 24.4546 22.1581 24.4199 22.222 24.3733C22.2538 24.3498 22.2838 24.3227 22.3084 24.2862C22.333 24.2503 22.3518 24.2018 22.3513 24.1499C22.3513 24.0979 22.3325 24.0495 22.3084 24.0135C22.261 23.946 22.2006 23.9073 22.1308 23.8709C22.0082 23.8092 21.8449 23.7607 21.6396 23.7159C21.0254 23.5835 20.0332 23.5 18.9064 23.5C17.9911 23.5 17.1631 23.5555 16.5565 23.647C16.2528 23.6928 16.0054 23.747 15.8224 23.8118C15.7307 23.8447 15.6547 23.8793 15.5907 23.926C15.559 23.9495 15.529 23.9766 15.5044 24.0131C15.4798 24.049 15.461 24.0974 15.4614 24.1494C15.4614 24.2014 15.4802 24.2498 15.5044 24.2858C15.5518 24.3533 15.6122 24.3915 15.682 24.4284C15.8045 24.4901 15.9678 24.5385 16.1731 24.5834C16.7873 24.7158 17.7795 24.7993 18.9064 24.7993C19.8216 24.7993 20.6497 24.7438 21.2562 24.6523C21.56 24.6061 21.8074 24.5523 21.9903 24.4875ZM16.6035 24.348C16.3118 24.3044 16.0774 24.2516 15.9276 24.1978C15.8806 24.1814 15.843 24.1645 15.8153 24.1494C15.8229 24.1454 15.83 24.1414 15.839 24.1374C15.9253 24.0961 16.0747 24.0508 16.2666 24.0108C16.8455 23.8891 17.8144 23.8074 18.9068 23.8078C19.8087 23.8078 20.6259 23.8634 21.2102 23.9513C21.5018 23.9953 21.7362 24.0477 21.8861 24.1014C21.9331 24.1179 21.9706 24.1348 21.9984 24.1499C21.9908 24.1539 21.9836 24.1579 21.9747 24.1619C21.8883 24.2032 21.7389 24.2485 21.547 24.2885C20.9682 24.4102 19.9992 24.4919 18.9068 24.4915C18.005 24.4915 17.1877 24.4359 16.6035 24.348Z" fill="#F9B233"/>
<path d="M20.956 26.3729C21.0204 26.3374 21.0768 26.2983 21.1224 26.2468C21.1676 26.1962 21.2048 26.126 21.2048 26.0451C21.2048 25.9647 21.1681 25.8941 21.1224 25.8435C21.0822 25.7982 21.0343 25.7626 20.9797 25.7306C20.8845 25.6747 20.7668 25.6294 20.6281 25.5889C20.2126 25.4686 19.5979 25.3957 18.9063 25.3953C18.3042 25.3953 17.7598 25.4512 17.3554 25.5445C17.1528 25.5916 16.9855 25.6471 16.8566 25.7173C16.7922 25.7528 16.7358 25.7919 16.6902 25.8435C16.645 25.8941 16.6079 25.9643 16.6079 26.0451C16.6079 26.1255 16.6446 26.1962 16.6902 26.2468C16.7305 26.2921 16.7783 26.3276 16.8329 26.3596C16.9282 26.4156 17.0459 26.4609 17.1845 26.5013C17.6001 26.6217 18.2147 26.6945 18.9063 26.695C19.5084 26.695 20.0529 26.639 20.4572 26.5457C20.6599 26.4987 20.8272 26.4431 20.956 26.3729ZM18.9063 26.3872C18.3243 26.3872 17.7974 26.3321 17.4256 26.2459C17.2404 26.2033 17.0937 26.1517 17.006 26.1033C16.964 26.0807 16.9367 26.0589 16.9246 26.0456C16.9318 26.0376 16.9434 26.026 16.9649 26.0118C17.0168 25.9763 17.1094 25.9341 17.2306 25.8968C17.4127 25.8399 17.6592 25.7906 17.9455 25.7568C18.2322 25.7226 18.5592 25.7031 18.9063 25.7031C19.4883 25.7031 20.0153 25.7582 20.387 25.8443C20.5722 25.887 20.7189 25.9385 20.8066 25.9869C20.8487 26.0096 20.876 26.0314 20.888 26.0447C20.8809 26.0527 20.8692 26.0642 20.8478 26.0784C20.7959 26.114 20.7033 26.1562 20.5821 26.1935C20.4 26.2503 20.1535 26.2997 19.8672 26.3334C19.5805 26.3676 19.2535 26.3872 18.9063 26.3872Z" fill="#F9B233"/>
</svg>
