<svg width="177" height="228" viewBox="0 0 177 228" fill="none" xmlns="http://www.w3.org/2000/svg">
<path d="M28.9585 83.4732C28.9585 82.6014 29.4324 81.7537 30.3048 80.9333C27.365 81.8669 24.7755 83.916 23.23 86.8643C13.0093 106.38 -4.74973 158.355 1.18484 161.462C5.00385 163.459 17.7041 144.74 28.9963 125.941C26.5819 101.493 28.9551 83.4767 28.9551 83.4767L28.9585 83.4732Z" fill="#5D73B7"/>
<path d="M114.251 189.401C113.794 189.459 113.33 189.514 112.863 189.569C113.33 189.514 113.794 189.455 114.251 189.401Z" fill="#7D8ACE"/>
<path d="M64.3942 189.6C64.7995 189.648 65.2082 189.692 65.6237 189.737C65.2116 189.692 64.7995 189.644 64.3942 189.6Z" fill="#7D8ACE"/>
<path d="M111.376 189.74C111.792 189.696 112.197 189.648 112.602 189.603C112.197 189.651 111.788 189.696 111.376 189.74Z" fill="#7D8ACE"/>
<path d="M62.5431 189.373C62.0726 189.311 61.6055 189.249 61.1453 189.184C61.6021 189.249 62.0692 189.311 62.5431 189.373Z" fill="#7D8ACE"/>
<path d="M115.855 189.188C115.398 189.253 114.931 189.315 114.457 189.377C114.927 189.315 115.394 189.253 115.855 189.188Z" fill="#7D8ACE"/>
<path d="M64.1366 189.572C63.6696 189.517 63.2059 189.459 62.7491 189.401C63.2059 189.459 63.6696 189.514 64.1366 189.572Z" fill="#7D8ACE"/>
<path d="M118.272 152.184C118.272 147.822 104.944 144.283 88.5 144.283C72.0563 144.283 58.7275 147.818 58.7275 152.184C58.7275 152.184 57.0859 168.573 59.6239 188.965C60.091 189.037 60.5649 189.105 61.0492 189.174C61.0801 189.177 61.1144 189.184 61.1453 189.188C61.6021 189.253 62.0692 189.315 62.5431 189.376C62.6118 189.387 62.6805 189.394 62.7492 189.404C63.2059 189.462 63.6696 189.517 64.1367 189.576C64.2225 189.586 64.3084 189.596 64.3942 189.606C64.7995 189.654 65.2082 189.699 65.6237 189.744V157.559C65.6237 157.463 65.6375 157.37 65.6615 157.274C66.3209 154.587 76.2943 152.448 88.5034 152.448C100.713 152.448 110.686 154.583 111.345 157.274C111.369 157.367 111.383 157.463 111.383 157.559V189.744C111.795 189.699 112.207 189.654 112.609 189.606C112.695 189.596 112.781 189.586 112.867 189.576C113.334 189.521 113.797 189.462 114.254 189.407C114.323 189.397 114.392 189.39 114.46 189.38C114.931 189.318 115.398 189.256 115.858 189.191C115.889 189.188 115.923 189.181 115.954 189.177C116.435 189.109 116.912 189.04 117.38 188.968C119.918 168.577 118.276 152.188 118.276 152.188L118.272 152.184Z" fill="#5D73B7"/>
<path d="M35.2297 25.7353V78.1154C33.0351 78.9975 31.366 79.9448 30.3048 80.9367C29.429 81.757 28.9585 82.6048 28.9585 83.4766C28.9585 83.4766 26.5819 101.493 28.9997 125.941C30.7032 143.185 34.7901 163.624 43.7778 183.209C44.4921 185.635 51.0998 187.777 61.0492 189.174C60.5684 189.105 60.091 189.037 59.6239 188.965C57.0859 168.573 58.7275 152.184 58.7275 152.184C58.7275 147.822 72.0563 144.283 88.5 144.283C104.944 144.283 118.272 147.818 118.272 152.184C118.272 152.184 119.914 168.573 117.376 188.965C116.909 189.037 116.435 189.105 115.951 189.174C125.904 187.774 132.511 185.632 133.222 183.205C142.21 163.624 146.297 143.188 148 125.948C156.002 139.268 164.705 152.538 170.458 158.434C170.461 158.438 170.464 158.441 170.468 158.445C170.646 158.627 170.822 158.802 170.993 158.97C171.035 159.008 171.072 159.045 171.11 159.083C171.275 159.241 171.436 159.395 171.594 159.54C171.618 159.56 171.639 159.581 171.663 159.601C171.962 159.869 172.247 160.113 172.525 160.329C172.577 160.367 172.628 160.411 172.676 160.449C172.789 160.535 172.896 160.61 173.006 160.686C173.085 160.744 173.167 160.799 173.243 160.851C173.339 160.912 173.435 160.974 173.528 161.029C173.621 161.084 173.71 161.132 173.796 161.18C173.875 161.221 173.954 161.266 174.026 161.304C174.18 161.376 174.328 161.438 174.472 161.486C174.52 161.503 174.568 161.51 174.617 161.523C174.72 161.551 174.823 161.575 174.922 161.589C174.97 161.595 175.018 161.599 175.066 161.602C175.166 161.609 175.259 161.606 175.352 161.595C175.386 161.592 175.424 161.589 175.458 161.582C175.582 161.558 175.702 161.523 175.808 161.465C181.746 158.359 163.984 106.38 153.763 86.8677C152.221 83.9228 149.635 81.8772 146.699 80.9402C146.699 80.9402 146.699 80.9402 146.695 80.9402C146.434 80.693 146.129 80.4528 145.792 80.2125C146.129 80.4528 146.427 80.693 146.692 80.9402C147.568 81.7605 148.038 82.6083 148.038 83.4801C148.038 83.4801 148.327 85.6767 148.601 89.5724C149.113 96.8385 149.57 110.029 147.997 125.948C146.767 138.383 144.298 152.483 139.644 166.723C128.036 158.294 116.796 145.165 106.912 128.549C104.24 135.901 98.913 135.915 88.5893 135.915C72.1525 135.915 69.1268 135.915 67.8664 107.733C66.7399 82.5499 67.7256 79.8007 85.2889 79.5707C84.0285 75.6167 82.847 71.5769 81.7378 67.4684H63.3502C51.7901 67.4684 42.4212 58.1017 42.4212 46.5521V27.5784C42.4212 16.0253 51.7936 6.66204 63.3502 6.66204H72.2898C72.204 4.42419 72.149 2.2035 72.125 0.00683594H60.9771C46.7554 0.00683594 35.2262 11.529 35.2262 25.7421L35.2297 25.7353ZM57.8449 95.4725C57.5015 106.686 55.3687 106.686 46.6249 106.686C37.881 106.686 36.0882 106.686 35.4048 95.4725C34.7591 84.8564 35.3911 84.2592 46.6249 84.2592C57.8586 84.2592 58.1883 84.2626 57.8449 95.4725Z" fill="#7D8ACE"/>
<path d="M63.3502 60.2606C55.7809 60.2606 49.6265 54.1065 49.6265 46.5452V27.5715C49.6265 20.0067 55.7843 13.8561 63.3502 13.8561H72.671C72.5062 11.4329 72.3826 9.03373 72.2898 6.65515H63.3502C51.7901 6.65515 42.4212 16.0219 42.4212 27.5715V46.5452C42.4212 58.0983 51.7936 67.4616 63.3502 67.4616H81.7377C81.099 65.0864 80.4842 62.6838 79.8969 60.2606H63.3502Z" fill="#D6CEC1"/>
<path d="M49.6265 27.5716V46.5453C49.6265 54.1101 55.7843 60.2607 63.3502 60.2607H79.8969C79.5054 58.6441 79.1242 57.0241 78.7567 55.3869C78.1351 52.5999 77.5615 49.8231 77.0292 47.0602C76.751 49.528 74.6595 51.45 72.1146 51.45C69.3809 51.45 67.1657 49.2362 67.1657 46.5041V27.6128C67.1657 24.8807 69.3809 22.6669 72.1146 22.6669C72.5749 22.6669 73.0213 22.7355 73.4437 22.8522C73.1347 19.8249 72.8736 16.8251 72.6744 13.8562H63.3536C55.7843 13.8562 49.6299 20.0103 49.6299 27.5716H49.6265Z" fill="#FFFBF1"/>
<path d="M73.4438 22.8522C73.0214 22.7355 72.5749 22.6669 72.1147 22.6669C69.3809 22.6669 67.1658 24.8807 67.1658 27.6128V46.5041C67.1658 49.2362 69.3809 51.45 72.1147 51.45C74.6595 51.45 76.7545 49.5314 77.0292 47.0601C77.0292 47.0567 77.0292 47.0498 77.0292 47.0464C75.446 38.8432 74.2577 30.7568 73.4472 22.8556L73.4438 22.8522Z" fill="#7D8ACE"/>
<path d="M65.6237 157.556C65.6237 157.46 65.6375 157.367 65.6615 157.271C65.6375 157.364 65.6237 157.46 65.6237 157.556Z" fill="#232946"/>
<path d="M111.342 157.271C110.683 154.583 100.709 152.445 88.5 152.445C76.2909 152.445 66.3209 154.58 65.6581 157.271H111.338H111.342Z" fill="#232946"/>
<path d="M111.342 157.271C111.366 157.364 111.38 157.46 111.38 157.556C111.38 157.46 111.366 157.367 111.342 157.271Z" fill="#232946"/>
<path d="M65.6787 223.236C65.6443 223.123 65.6203 223.006 65.6203 222.889C65.6203 223.006 65.6443 223.119 65.6787 223.236Z" fill="#232946"/>
<path d="M111.376 222.893C111.376 223.01 111.352 223.123 111.318 223.239C111.352 223.126 111.376 223.01 111.376 222.893Z" fill="#232946"/>
<path d="M65.871 223.644C65.7989 223.535 65.7473 223.421 65.7027 223.312C65.7439 223.425 65.7954 223.535 65.871 223.644Z" fill="#232946"/>
<path d="M65.871 223.644C67.5023 226.109 77.012 228 88.5 228C99.9879 228 110.339 225.937 111.294 223.312C111.253 223.425 111.201 223.535 111.126 223.644H65.871Z" fill="#232946"/>
<path d="M111.38 199.553H65.6237V205.532H111.38V199.553Z" fill="#232946"/>
<path d="M111.38 211.601H65.6237V217.576H111.38V211.601Z" fill="#232946"/>
<path d="M111.376 187.43H65.6237V189.737V189.74V193.485H111.376V189.74V189.737V187.43Z" fill="#232946"/>
<path d="M111.38 163.339H65.6237V169.318H111.38V163.339Z" fill="#232946"/>
<path d="M111.38 175.386H65.6237V181.366H111.38V175.386Z" fill="#232946"/>
<path d="M111.376 163.339V157.556C111.376 157.46 111.363 157.367 111.338 157.271H65.6581C65.634 157.364 65.6203 157.46 65.6203 157.556V163.339H111.376Z" fill="#1A1A1A"/>
<path d="M111.38 169.318H65.6237V175.386H111.38V169.318Z" fill="#1A1A1A"/>
<path d="M111.38 181.362H65.6237V187.43H111.38V181.362Z" fill="#1A1A1A"/>
<path d="M111.38 193.485H65.6237V199.553H111.38V193.485Z" fill="#1A1A1A"/>
<path d="M111.38 205.532H65.6237V211.601H111.38V205.532Z" fill="#1A1A1A"/>
<path d="M65.6237 222.893C65.6237 223.01 65.6478 223.123 65.6821 223.239C65.689 223.263 65.6993 223.288 65.7061 223.315C65.7474 223.428 65.7989 223.538 65.8744 223.648H111.129C111.201 223.538 111.256 223.425 111.297 223.315C111.308 223.291 111.314 223.267 111.321 223.239C111.356 223.126 111.38 223.01 111.38 222.893V217.576H65.6237V222.893Z" fill="#1A1A1A"/>
<path d="M103.185 121.994C103.096 122.44 103.003 122.872 102.904 123.274C101.032 130.767 96.9794 130.77 88.5686 130.77C80.1579 130.77 76.2359 130.77 74.3985 123.274C73.8971 121.222 73.5365 118.606 73.2686 115.273C73.0866 113.018 72.9423 110.437 72.8187 107.475L72.8118 107.273C72.6882 104.218 72.5989 101.575 72.5817 99.2721C72.5542 95.9221 72.6779 93.3033 73.0625 91.2714C74.2268 85.1001 77.7916 84.2627 86.8137 84.1871C86.2951 82.6563 85.7868 81.1187 85.2923 79.5604C67.729 79.7904 66.7433 82.5431 67.8698 107.722C69.1302 135.905 72.1593 135.905 88.5927 135.905C98.9129 135.905 104.243 135.891 106.915 128.539C106.915 128.539 106.915 128.536 106.915 128.532C105.651 126.408 104.411 124.221 103.192 121.987L103.185 121.994Z" fill="#EFE8DA"/>
<path d="M89.3208 91.2748C90.3271 93.9897 91.3677 96.6566 92.4392 99.2755H104.422C104.415 95.9187 104.301 93.3067 103.975 91.2748H89.3208C88.4588 88.9477 87.6242 86.5829 86.8137 84.1906C77.7917 84.2695 74.2268 85.1035 73.0626 91.2748H89.3208Z" fill="#B3BBE3"/>
<path d="M92.4358 99.2754C91.3643 96.6566 90.3237 93.9897 89.3174 91.2748H73.0591C72.6745 93.3067 72.5543 95.9255 72.5783 99.2754H92.4358Z" fill="#7D8ACE"/>
<path d="M95.8736 107.273C97.1065 110.001 98.3738 112.668 99.6754 115.273H103.989C104.144 113.018 104.247 110.437 104.308 107.475V107.273H95.8701C94.6922 104.661 93.5451 101.99 92.4324 99.2721H72.5749C72.5921 101.575 72.6814 104.218 72.805 107.273H95.8667H95.8736Z" fill="#B3BBE3"/>
<path d="M99.6754 115.273C98.3738 112.668 97.1065 110.001 95.8736 107.273H72.8118L72.8187 107.475C72.9389 110.434 73.0831 113.018 73.2686 115.273H99.6788H99.6754Z" fill="#7D8ACE"/>
<path d="M99.6754 115.273H73.2652C73.5365 118.606 73.8937 121.222 74.3951 123.274H102.9C103 122.873 103.093 122.44 103.182 121.994C103.182 121.994 103.182 121.99 103.178 121.987C101.987 119.801 100.819 117.563 99.6754 115.273Z" fill="#B3BBE3"/>
<path d="M74.3985 123.274C76.2359 130.767 80.0102 130.77 88.5687 130.77C97.1271 130.77 101.032 130.77 102.904 123.274H74.3985Z" fill="#7D8ACE"/>
<path d="M46.6214 84.2593C35.3842 84.2593 34.7557 84.8565 35.4014 95.4726C36.0848 106.686 37.723 106.686 46.6214 106.686C55.5198 106.686 57.498 106.686 57.8415 95.4726C58.1849 84.2627 57.8415 84.2593 46.6214 84.2593ZM54.4792 88.7418C55.1661 88.7418 55.7225 89.2979 55.7225 89.9843C55.7225 90.6708 55.1661 91.2268 54.4792 91.2268C53.7924 91.2268 53.236 90.6708 53.236 89.9843C53.236 89.2979 53.7924 88.7418 54.4792 88.7418ZM44.8905 103.916C39.5638 103.916 38.5816 103.916 38.1729 95.476C37.7848 87.4856 38.1626 87.036 44.8905 87.036C51.6184 87.036 51.8142 87.0394 51.6081 95.476C51.402 103.916 50.1279 103.916 44.8905 103.916ZM54.4792 101.489C53.7924 101.489 53.236 100.933 53.236 100.247C53.236 99.5604 53.7924 99.0044 54.4792 99.0044C55.1661 99.0044 55.7225 99.5604 55.7225 100.247C55.7225 100.933 55.1661 101.489 54.4792 101.489ZM54.4792 96.3581C53.7924 96.3581 53.236 95.8021 53.236 95.1156C53.236 94.4291 53.7924 93.8731 54.4792 93.8731C55.1661 93.8731 55.7225 94.4291 55.7225 95.1156C55.7225 95.8021 55.1661 96.3581 54.4792 96.3581Z" fill="#EFE8DA"/>
<path d="M44.8905 87.0325C38.1626 87.0325 37.7848 87.4821 38.1729 95.4725C38.5816 103.912 39.5638 103.912 44.8905 103.912C50.2172 103.912 51.402 103.912 51.6081 95.4725C51.8142 87.0359 51.6081 87.0325 44.8905 87.0325Z" fill="#FFFBF1"/>
<path d="M54.4792 91.2268C55.1661 91.2268 55.7224 90.6708 55.7224 89.9843C55.7224 89.2979 55.1661 88.7418 54.4792 88.7418C53.7923 88.7418 53.236 89.2979 53.236 89.9843C53.236 90.6708 53.7923 91.2268 54.4792 91.2268Z" fill="#232946"/>
<path d="M54.4792 93.8765C53.7923 93.8765 53.236 94.4325 53.236 95.119C53.236 95.8054 53.7923 96.3614 54.4792 96.3614C55.1661 96.3614 55.7224 95.8054 55.7224 95.119C55.7224 94.4325 55.1661 93.8765 54.4792 93.8765Z" fill="#232946"/>
<path d="M54.4792 99.0078C53.7923 99.0078 53.236 99.5638 53.236 100.25C53.236 100.937 53.7923 101.493 54.4792 101.493C55.1661 101.493 55.7224 100.937 55.7224 100.25C55.7224 99.5638 55.1661 99.0078 54.4792 99.0078Z" fill="#232946"/>
<path d="M113.643 6.65177C125.203 6.65177 134.572 16.0185 134.572 27.5681V46.5418C134.572 58.0949 125.2 67.4582 113.643 67.4582H81.7377C82.8436 71.5666 84.0284 75.6064 85.2888 79.5604C86.3294 79.5467 87.4216 79.5398 88.5858 79.5398C109.309 79.5398 109.944 79.5536 109.309 107.722C109.213 111.917 109.044 115.476 108.773 118.513C108.388 122.842 107.794 126.092 106.908 128.532C106.908 128.532 106.908 128.536 106.908 128.539C116.796 145.151 128.033 158.283 139.641 166.713C144.295 152.473 146.764 138.373 147.993 125.937C149.566 110.022 149.11 96.8317 148.598 89.5621C148.323 85.6665 148.035 83.4698 148.035 83.4698C148.035 82.598 147.561 81.7502 146.688 80.9299C146.427 80.6828 146.125 80.4425 145.789 80.2023C145.782 80.1988 145.775 80.192 145.768 80.1885C144.751 79.4643 143.405 78.771 141.763 78.112V25.7353C141.763 11.5222 130.234 0 116.013 0H72.1249C72.149 2.19666 72.2039 4.41392 72.2898 6.65177H113.643Z" fill="#B3BBE3"/>
<path d="M134.575 46.5452V27.5715C134.575 16.0184 125.203 6.65515 113.646 6.65515H72.2933C72.386 9.03373 72.5096 11.4329 72.6745 13.8561H113.646C121.216 13.8561 127.37 20.0102 127.37 27.5715V46.5452C127.37 54.11 121.212 60.2606 113.646 60.2606H79.9004C80.4877 62.6838 81.1024 65.0864 81.7412 67.4616H113.646C125.206 67.4616 134.575 58.0948 134.575 46.5452Z" fill="#FFFBF1"/>
<path d="M77.0567 46.5041V27.6127C77.0567 25.344 75.5249 23.4356 73.4437 22.8556C74.2542 30.7567 75.4425 38.8432 77.0258 47.0464C77.0464 46.8679 77.0567 46.6894 77.0567 46.5041Z" fill="#B3BBE3"/>
<path d="M104.882 51.45C107.616 51.45 109.831 49.2362 109.831 46.5041V27.6128C109.831 24.8807 107.616 22.6669 104.882 22.6669C102.148 22.6669 99.933 24.8807 99.933 27.6128V46.5041C99.933 49.2362 102.148 51.45 104.882 51.45Z" fill="#B3BBE3"/>
<path d="M86.8103 84.1906C87.3735 84.1872 87.9539 84.1838 88.5618 84.1838C99.1534 84.1838 102.842 84.1906 103.972 91.2749C104.295 93.3033 104.411 95.9187 104.418 99.2755C104.422 101.575 104.377 104.221 104.315 107.276V107.479C104.25 110.437 104.147 113.022 103.992 115.277C103.807 117.951 103.542 120.158 103.182 121.99C103.182 121.99 103.182 121.994 103.185 121.997C104.405 124.232 105.644 126.418 106.908 128.543C107.794 126.102 108.388 122.852 108.773 118.524C109.044 115.483 109.213 111.927 109.309 107.733C109.944 79.5639 109.309 79.5502 88.5859 79.5502C87.4251 79.5502 86.3329 79.557 85.2889 79.5708C85.7834 81.1256 86.2951 82.6667 86.8103 84.1975V84.1906Z" fill="#FFFBF1"/>
<path d="M89.3208 91.2748H103.975C102.842 84.1871 99.1568 84.1837 88.5652 84.1837C87.9574 84.1837 87.377 84.1837 86.8137 84.1906C87.6242 86.5829 88.4588 88.9477 89.3208 91.2748Z" fill="#E6E9F9"/>
<path d="M92.4358 99.2755C93.5485 101.994 94.6921 104.664 95.8736 107.276H104.315C104.377 104.225 104.422 101.575 104.418 99.2755H92.4358Z" fill="#E6E9F9"/>
<path d="M99.6754 115.273C100.819 117.563 101.987 119.801 103.178 121.987C103.539 120.154 103.804 117.951 103.989 115.273H99.6754Z" fill="#E6E9F9"/>
</svg>
