<svg width="54" height="53" viewBox="0 0 54 53" fill="none" xmlns="http://www.w3.org/2000/svg">
<ellipse cx="26.9206" cy="26.5" rx="26.9206" ry="26.5" fill="#D9BBEC"/>
<mask id="path-2-inside-1_23_3256" fill="white">
<path fill-rule="evenodd" clip-rule="evenodd" d="M26.6587 43C35.7714 43 43.1587 35.6127 43.1587 26.5C43.1587 17.3873 35.7714 10 26.6587 10C17.546 10 10.1587 17.3873 10.1587 26.5C10.1587 35.6127 17.546 43 26.6587 43ZM26.6587 33C30.2485 33 33.1587 30.0899 33.1587 26.5C33.1587 22.9101 30.2485 20 26.6587 20C23.0688 20 20.1587 22.9101 20.1587 26.5C20.1587 30.0899 23.0688 33 26.6587 33Z"/>
</mask>
<path fill-rule="evenodd" clip-rule="evenodd" d="M26.6587 43C35.7714 43 43.1587 35.6127 43.1587 26.5C43.1587 17.3873 35.7714 10 26.6587 10C17.546 10 10.1587 17.3873 10.1587 26.5C10.1587 35.6127 17.546 43 26.6587 43ZM26.6587 33C30.2485 33 33.1587 30.0899 33.1587 26.5C33.1587 22.9101 30.2485 20 26.6587 20C23.0688 20 20.1587 22.9101 20.1587 26.5C20.1587 30.0899 23.0688 33 26.6587 33Z" fill="#A751E8"/>
<path d="M42.1587 26.5C42.1587 35.0604 35.2191 42 26.6587 42V44C36.3237 44 44.1587 36.165 44.1587 26.5H42.1587ZM26.6587 11C35.2191 11 42.1587 17.9396 42.1587 26.5H44.1587C44.1587 16.835 36.3237 9 26.6587 9V11ZM11.1587 26.5C11.1587 17.9396 18.0983 11 26.6587 11V9C16.9937 9 9.15869 16.835 9.15869 26.5H11.1587ZM26.6587 42C18.0983 42 11.1587 35.0604 11.1587 26.5H9.15869C9.15869 36.165 16.9937 44 26.6587 44V42ZM32.1587 26.5C32.1587 29.5376 29.6963 32 26.6587 32V34C30.8008 34 34.1587 30.6421 34.1587 26.5H32.1587ZM26.6587 21C29.6963 21 32.1587 23.4624 32.1587 26.5H34.1587C34.1587 22.3579 30.8008 19 26.6587 19V21ZM21.1587 26.5C21.1587 23.4624 23.6211 21 26.6587 21V19C22.5166 19 19.1587 22.3579 19.1587 26.5H21.1587ZM26.6587 32C23.6211 32 21.1587 29.5376 21.1587 26.5H19.1587C19.1587 30.6421 22.5166 34 26.6587 34V32Z" fill="#D9BBEC" mask="url(#path-2-inside-1_23_3256)"/>
</svg>
