<svg width="38" height="36" viewBox="0 0 38 36" fill="none" xmlns="http://www.w3.org/2000/svg">
<mask id="path-1-inside-1_23_4278" fill="white">
<path d="M34.8952 19.1878C34.5852 18.8594 34.4142 18.4372 34.4142 18C34.4142 17.5628 34.5852 17.1406 34.8952 16.8122L37.3707 14.2205C37.6435 13.9374 37.8128 13.5811 37.8545 13.2028C37.8962 12.8245 37.8081 12.4436 37.6027 12.1148L33.7348 5.88765C33.5316 5.55923 33.2221 5.2989 32.8505 5.14378C32.479 4.98866 32.0642 4.94666 31.6655 5.02376L28.0297 5.70767C27.567 5.79663 27.0854 5.72493 26.6757 5.5061C26.266 5.28727 25.9565 4.93645 25.8056 4.51983L24.6259 1.22628C24.4962 0.868812 24.249 0.558329 23.9193 0.338717C23.5896 0.119106 23.1941 0.00147363 22.7887 0.00244759H15.0528C14.6311 -0.0180373 14.2138 0.0905031 13.8645 0.311491C13.5153 0.532479 13.2534 0.853766 13.1189 1.22628L12.0359 4.51983C11.885 4.93645 11.5755 5.28727 11.1658 5.5061C10.7561 5.72493 10.2745 5.79663 9.81182 5.70767L6.07929 5.02376C5.7013 4.97406 5.31596 5.02956 4.97181 5.18329C4.62765 5.33702 4.34009 5.5821 4.14534 5.88765L0.277427 12.1148C0.0669361 12.4399 -0.0277076 12.8187 0.00702711 13.1969C0.0417619 13.5751 0.204096 13.9333 0.470823 14.2205L2.92694 16.8122C3.23699 17.1406 3.40799 17.5628 3.40799 18C3.40799 18.4372 3.23699 18.8594 2.92694 19.1878L0.470823 21.7795C0.204096 22.0667 0.0417619 22.4249 0.00702711 22.8031C-0.0277076 23.1813 0.0669361 23.5601 0.277427 23.8852L4.14534 30.1124C4.34859 30.4408 4.65806 30.7011 5.02964 30.8562C5.40122 31.0113 5.81593 31.0533 6.21467 30.9762L9.8505 30.2923C10.3131 30.2034 10.7948 30.2751 11.2045 30.4939C11.6142 30.7127 11.9237 31.0636 12.0745 31.4802L13.2543 34.7737C13.3888 35.1462 13.6507 35.4675 13.9999 35.6885C14.3491 35.9095 14.7665 36.018 15.1882 35.9976H22.924C23.3295 35.9985 23.725 35.8809 24.0547 35.6613C24.3844 35.4417 24.6315 35.1312 24.7613 34.7737L25.941 31.4802C26.0918 31.0636 26.4013 30.7127 26.8111 30.4939C27.2208 30.2751 27.7024 30.2034 28.165 30.2923L31.8009 30.9762C32.1996 31.0533 32.6143 31.0113 32.9859 30.8562C33.3575 30.7011 33.667 30.4408 33.8702 30.1124L37.7381 23.8852C37.9435 23.5564 38.0316 23.1755 37.9899 22.7972C37.9482 22.4189 37.7788 22.0626 37.5061 21.7795L34.8952 19.1878ZM32.0136 21.5995L33.5608 23.2193L31.0853 27.2147L28.8033 26.7828C27.4104 26.5178 25.9614 26.738 24.7315 27.4016C23.5015 28.0651 22.5762 29.1258 22.1311 30.3823L21.3962 32.398H16.4453L15.7491 30.3463C15.304 29.0898 14.3786 28.0291 13.1487 27.3656C11.9187 26.702 10.4698 26.4818 9.07692 26.7468L6.79485 27.1788L4.28071 23.2013L5.82788 21.5815C6.77929 20.5916 7.30529 19.3101 7.30529 17.982C7.30529 16.6539 6.77929 15.3724 5.82788 14.3825L4.28071 12.7627L6.75617 8.80325L9.03824 9.23519C10.4311 9.50016 11.88 9.27997 13.11 8.61643C14.3399 7.9529 15.2653 6.8922 15.7104 5.63568L16.4453 3.60196H21.3962L22.1311 5.65368C22.5762 6.91019 23.5015 7.97089 24.7315 8.63443C25.9614 9.29797 27.4104 9.51815 28.8033 9.25319L31.0853 8.82125L33.5608 12.8167L32.0136 14.4365C31.0729 15.4241 30.5534 16.6982 30.5534 18.018C30.5534 19.3378 31.0729 20.6119 32.0136 21.5995ZM18.9207 10.801C17.3907 10.801 15.8951 11.2232 14.623 12.0142C13.3508 12.8053 12.3593 13.9296 11.7738 15.2451C11.1883 16.5605 11.0351 18.008 11.3336 19.4045C11.6321 20.8009 12.3688 22.0837 13.4507 23.0905C14.5326 24.0973 15.911 24.7829 17.4116 25.0607C18.9122 25.3385 20.4676 25.1959 21.8811 24.651C23.2947 24.1061 24.5028 23.1834 25.3528 21.9996C26.2029 20.8157 26.6566 19.4238 26.6566 18C26.6566 16.0907 25.8415 14.2596 24.3908 12.9095C22.94 11.5594 20.9724 10.801 18.9207 10.801ZM18.9207 21.5995C18.1557 21.5995 17.4079 21.3884 16.7719 20.9929C16.1358 20.5974 15.64 20.0352 15.3473 19.3775C15.0545 18.7197 14.9779 17.996 15.1272 17.2978C15.2764 16.5995 15.6448 15.9582 16.1857 15.4548C16.7267 14.9514 17.4159 14.6085 18.1662 14.4697C18.9165 14.3308 19.6942 14.402 20.4009 14.6745C21.1077 14.9469 21.7118 15.4083 22.1368 16.0002C22.5618 16.5922 22.7887 17.2881 22.7887 18C22.7887 18.9546 22.3811 19.8702 21.6558 20.5452C20.9304 21.2203 19.9466 21.5995 18.9207 21.5995Z"/>
</mask>
<path d="M34.8952 19.1878C34.5852 18.8594 34.4142 18.4372 34.4142 18C34.4142 17.5628 34.5852 17.1406 34.8952 16.8122L37.3707 14.2205C37.6435 13.9374 37.8128 13.5811 37.8545 13.2028C37.8962 12.8245 37.8081 12.4436 37.6027 12.1148L33.7348 5.88765C33.5316 5.55923 33.2221 5.2989 32.8505 5.14378C32.479 4.98866 32.0642 4.94666 31.6655 5.02376L28.0297 5.70767C27.567 5.79663 27.0854 5.72493 26.6757 5.5061C26.266 5.28727 25.9565 4.93645 25.8056 4.51983L24.6259 1.22628C24.4962 0.868812 24.249 0.558329 23.9193 0.338717C23.5896 0.119106 23.1941 0.00147363 22.7887 0.00244759H15.0528C14.6311 -0.0180373 14.2138 0.0905031 13.8645 0.311491C13.5153 0.532479 13.2534 0.853766 13.1189 1.22628L12.0359 4.51983C11.885 4.93645 11.5755 5.28727 11.1658 5.5061C10.7561 5.72493 10.2745 5.79663 9.81182 5.70767L6.07929 5.02376C5.7013 4.97406 5.31596 5.02956 4.97181 5.18329C4.62765 5.33702 4.34009 5.5821 4.14534 5.88765L0.277427 12.1148C0.0669361 12.4399 -0.0277076 12.8187 0.00702711 13.1969C0.0417619 13.5751 0.204096 13.9333 0.470823 14.2205L2.92694 16.8122C3.23699 17.1406 3.40799 17.5628 3.40799 18C3.40799 18.4372 3.23699 18.8594 2.92694 19.1878L0.470823 21.7795C0.204096 22.0667 0.0417619 22.4249 0.00702711 22.8031C-0.0277076 23.1813 0.0669361 23.5601 0.277427 23.8852L4.14534 30.1124C4.34859 30.4408 4.65806 30.7011 5.02964 30.8562C5.40122 31.0113 5.81593 31.0533 6.21467 30.9762L9.8505 30.2923C10.3131 30.2034 10.7948 30.2751 11.2045 30.4939C11.6142 30.7127 11.9237 31.0636 12.0745 31.4802L13.2543 34.7737C13.3888 35.1462 13.6507 35.4675 13.9999 35.6885C14.3491 35.9095 14.7665 36.018 15.1882 35.9976H22.924C23.3295 35.9985 23.725 35.8809 24.0547 35.6613C24.3844 35.4417 24.6315 35.1312 24.7613 34.7737L25.941 31.4802C26.0918 31.0636 26.4013 30.7127 26.8111 30.4939C27.2208 30.2751 27.7024 30.2034 28.165 30.2923L31.8009 30.9762C32.1996 31.0533 32.6143 31.0113 32.9859 30.8562C33.3575 30.7011 33.667 30.4408 33.8702 30.1124L37.7381 23.8852C37.9435 23.5564 38.0316 23.1755 37.9899 22.7972C37.9482 22.4189 37.7788 22.0626 37.5061 21.7795L34.8952 19.1878ZM32.0136 21.5995L33.5608 23.2193L31.0853 27.2147L28.8033 26.7828C27.4104 26.5178 25.9614 26.738 24.7315 27.4016C23.5015 28.0651 22.5762 29.1258 22.1311 30.3823L21.3962 32.398H16.4453L15.7491 30.3463C15.304 29.0898 14.3786 28.0291 13.1487 27.3656C11.9187 26.702 10.4698 26.4818 9.07692 26.7468L6.79485 27.1788L4.28071 23.2013L5.82788 21.5815C6.77929 20.5916 7.30529 19.3101 7.30529 17.982C7.30529 16.6539 6.77929 15.3724 5.82788 14.3825L4.28071 12.7627L6.75617 8.80325L9.03824 9.23519C10.4311 9.50016 11.88 9.27997 13.11 8.61643C14.3399 7.9529 15.2653 6.8922 15.7104 5.63568L16.4453 3.60196H21.3962L22.1311 5.65368C22.5762 6.91019 23.5015 7.97089 24.7315 8.63443C25.9614 9.29797 27.4104 9.51815 28.8033 9.25319L31.0853 8.82125L33.5608 12.8167L32.0136 14.4365C31.0729 15.4241 30.5534 16.6982 30.5534 18.018C30.5534 19.3378 31.0729 20.6119 32.0136 21.5995ZM18.9207 10.801C17.3907 10.801 15.8951 11.2232 14.623 12.0142C13.3508 12.8053 12.3593 13.9296 11.7738 15.2451C11.1883 16.5605 11.0351 18.008 11.3336 19.4045C11.6321 20.8009 12.3688 22.0837 13.4507 23.0905C14.5326 24.0973 15.911 24.7829 17.4116 25.0607C18.9122 25.3385 20.4676 25.1959 21.8811 24.651C23.2947 24.1061 24.5028 23.1834 25.3528 21.9996C26.2029 20.8157 26.6566 19.4238 26.6566 18C26.6566 16.0907 25.8415 14.2596 24.3908 12.9095C22.94 11.5594 20.9724 10.801 18.9207 10.801ZM18.9207 21.5995C18.1557 21.5995 17.4079 21.3884 16.7719 20.9929C16.1358 20.5974 15.64 20.0352 15.3473 19.3775C15.0545 18.7197 14.9779 17.996 15.1272 17.2978C15.2764 16.5995 15.6448 15.9582 16.1857 15.4548C16.7267 14.9514 17.4159 14.6085 18.1662 14.4697C18.9165 14.3308 19.6942 14.402 20.4009 14.6745C21.1077 14.9469 21.7118 15.4083 22.1368 16.0002C22.5618 16.5922 22.7887 17.2881 22.7887 18C22.7887 18.9546 22.3811 19.8702 21.6558 20.5452C20.9304 21.2203 19.9466 21.5995 18.9207 21.5995Z" fill="#272541" stroke="#272541" stroke-width="2" mask="url(#path-1-inside-1_23_4278)"/>
</svg>
