<svg width="55" height="55" viewBox="0 0 55 55" fill="none" xmlns="http://www.w3.org/2000/svg">
<path d="M53.8364 29.9266C53.0946 28.4144 51.4274 27.8653 49.8623 28.211C48.9061 28.4216 48.0374 28.7034 47.0462 28.7313C46.0941 28.7581 45.1431 28.6859 44.191 28.6931C42.4744 28.7075 40.7537 28.9098 39.0783 29.2794C35.6966 30.0246 32.4447 31.4883 29.6658 33.5609C28.3263 34.5601 27.1001 35.9546 25.2815 35.7492C24.3109 35.6398 23.365 35.3332 22.3954 35.1969C21.4505 35.0648 20.4995 34.9988 19.5454 35.0153C17.3671 35.0545 15.3342 35.5933 13.2508 36.1713C11.0406 36.7845 8.80569 37.0105 6.51927 36.7896C6.04324 36.7432 5.81964 37.1127 5.84334 37.4864C3.74343 37.8105 1.42507 38.4339 0.446207 40.5169C-0.583143 42.7072 0.250435 45.2939 2.16282 46.6832C3.12211 47.3799 4.29674 47.7588 5.4755 47.8217C5.92062 47.8455 6.64601 47.669 6.99531 48.0168C7.32091 48.3409 7.34152 48.9881 7.42189 49.4123C7.6156 50.4321 7.98963 51.3167 8.87885 51.9144C9.66709 52.4449 10.68 52.64 11.6176 52.5698C12.1225 52.5316 12.6274 52.4377 13.1013 52.2581C13.6578 52.0465 14.1585 51.6615 14.7283 51.4943C15.4022 51.2971 15.7268 51.7792 16.1513 52.2168C16.5665 52.6452 17.0292 53.0271 17.5258 53.3574C19.5083 54.6776 22.11 55.1039 24.3995 54.4422C25.7153 54.0624 26.96 53.2665 28.3551 53.2077C29.8234 53.1468 31.2433 53.7909 32.6734 54.0386C35.1721 54.4711 38.0788 54.1821 39.8129 52.1022C40.2313 51.5995 40.4951 51.0546 40.7743 50.4693C41.1112 49.7653 41.4451 49.4619 42.2127 49.2843C43.6058 48.9623 44.9247 48.4999 46.1323 47.7154C48.1065 46.4313 50.3599 43.9964 49.7468 41.4572C52.5309 40.0534 54.1301 36.674 53.2738 33.629C54.1775 32.6423 54.4361 31.1476 53.8375 29.9266H53.8364Z" fill="#D6E4FF"/>
<path d="M49.2646 13.8222C48.9236 5.73185 43.2688 6.65979 37.135 8.44342C33.0691 9.62632 28.859 10.0454 24.8013 11.2912C20.4428 12.63 16.0359 13.8304 11.6732 15.1671C8.7995 16.0476 4.984 16.574 3.5765 19.6138C2.2947 22.3822 3.13961 26.1001 3.61153 28.9924C4.1226 32.124 5.00563 35.1783 6.20191 38.1149C7.41157 41.0845 8.69337 43.6784 11.802 44.9718C14.6438 46.1536 17.9112 46.6212 20.9384 47.0909C24.554 47.6524 28.1871 47.9992 31.844 48.1107C33.0361 48.1468 33.914 47.6875 34.4838 46.9907C34.5497 46.9402 34.6167 46.8927 34.6827 46.8369C37.2596 44.626 39.8243 42.4026 42.3745 40.1617C44.5166 38.279 47.4141 36.386 48.4042 33.5774C49.4161 30.7099 49.1791 27.1189 49.2801 24.1111C49.3944 20.6853 49.4078 17.248 49.2646 13.8222Z" fill="#C17459"/>
<path d="M49.0062 11.6639C47.1371 13.1977 45.2783 14.746 43.3813 16.2458C40.2119 18.752 36.926 21.1291 33.3609 23.0449C31.8483 23.8572 30.1997 24.5395 28.4758 24.6881C26.1596 24.8884 3.56742 19.5984 3.39844 20.0494C2.38454 22.7631 3.16351 26.2488 3.6107 28.9913C4.12177 32.123 5.0048 35.1773 6.20107 38.1139C7.41074 41.0835 8.69254 43.6774 11.8012 44.9707C14.643 46.1526 17.9103 46.6202 20.9376 47.0898C24.5532 47.6513 28.1863 47.9982 31.8431 48.1096C33.0353 48.1458 33.9132 47.6864 34.483 46.9897C34.5489 46.9391 34.6159 46.8917 34.6818 46.8359C37.2588 44.625 39.8234 42.4016 42.3736 40.1607C44.5158 38.278 47.4132 36.3849 48.4034 33.5763C49.4153 30.7089 49.1783 27.1179 49.2792 24.1101C49.3936 20.6842 49.408 17.247 49.2638 13.8212C49.2298 13.013 49.1401 12.2997 49.0052 11.6628L49.0062 11.6639Z" fill="#91462C"/>
<path d="M3.74573 29.7457C7.1295 31.2961 10.7812 32.2282 14.4256 32.9249C18.0186 33.6113 21.6919 34.1811 25.3374 34.4938C27.1488 34.6497 28.9509 34.5764 30.6912 34.0139C32.4491 33.4451 34.1337 32.4976 35.7205 31.5634C40.6488 28.6609 44.996 24.9233 49.3483 21.2198C49.3865 18.7539 49.3669 16.2859 49.2638 13.8231C49.2298 13.0149 49.1402 12.3017 49.0052 11.6648C47.1361 13.1986 45.2773 14.7469 43.3804 16.2467C40.2109 18.7529 36.925 21.13 33.3599 23.0458C31.8473 23.8581 30.1987 24.5404 28.4749 24.689C26.1586 24.8882 3.56644 19.5993 3.39746 20.0503C2.38357 22.764 3.16253 26.2497 3.60972 28.9922C3.65093 29.2441 3.69833 29.4939 3.74367 29.7447L3.74573 29.7457Z" fill="#B76C4D"/>
<path d="M17.9638 40.0544C21.4177 41.0041 25.0642 41.8432 28.6726 41.6647C32.2439 41.4882 35.1114 39.5187 37.9274 37.4987C41.8893 34.6571 45.6234 31.5089 49.2112 28.2007C49.2555 26.799 49.2369 25.4014 49.2802 24.1122C49.2915 23.7747 49.2967 23.4371 49.3059 23.0996C47.7212 24.4415 46.1334 25.7792 44.5116 27.0756C41.4544 29.5209 38.2788 31.8691 34.8105 33.7013C33.1475 34.5797 31.4227 35.4271 29.5587 35.7667C27.6731 36.1094 25.7803 35.999 23.8906 35.7574C17.2302 34.9079 10.3256 34.0873 4.0918 31.4501C4.56886 33.5475 5.21594 35.6016 6.00418 37.605C10.103 37.6907 14.0432 38.9768 17.9638 40.0555V40.0544Z" fill="#B76C4D"/>
<path d="M46.7238 32.315C43.746 34.8913 40.659 37.351 37.4195 39.5899C35.8956 40.6437 34.3603 41.6347 32.6179 42.2891C31.0991 42.8599 29.4794 43.1128 27.8596 43.1045C24.0864 43.087 20.3801 42.2096 16.7686 41.198C13.4353 40.2639 10.0701 39.2327 6.59668 39.0552C7.70846 41.6254 9.02735 43.8167 11.8032 44.9707C14.645 46.1526 17.9123 46.6202 20.9396 47.0898C24.5552 47.6513 28.1883 47.9981 31.8451 48.1096C33.0373 48.1457 33.9152 47.6864 34.485 46.9897C34.5509 46.9391 34.6179 46.8916 34.6838 46.8359C37.2608 44.6249 39.8254 42.4016 42.3756 40.1607C44.5178 38.278 47.4152 36.3849 48.4054 33.5763C48.7733 32.5328 48.9752 31.3932 49.0896 30.2217C48.3086 30.9267 47.5214 31.6255 46.7249 32.3139L46.7238 32.315Z" fill="#B76C4D"/>
<path d="M34.112 11.3099C33.1847 10.609 31.9153 10.2767 30.7695 10.6028C30.5933 10.6534 30.4233 10.7236 30.2584 10.8041C29.0652 10.0733 27.6371 9.89578 26.1235 10.7153C25.6104 10.2767 25.0097 9.93913 24.376 9.74817C21.7753 8.9668 19.3611 10.4748 17.9114 12.5764C16.5543 14.5427 16.1154 17.0375 17.5497 19.0875C18.6914 20.7194 20.2132 21.1766 21.8206 20.9692C23.3322 21.9167 24.9798 21.8021 26.6809 21.2788C26.6892 21.2819 26.6984 21.2871 26.7036 21.2891C27.2116 21.5059 27.6649 21.6225 28.208 21.7113C29.3053 21.8909 30.449 21.7939 31.5134 21.4636C33.5608 20.8288 35.7452 19.3837 36.3315 17.2244C36.9106 15.0898 35.8493 12.6239 34.1131 11.3109L34.112 11.3099Z" fill="white"/>
<path d="M33.1629 14.8927C33.1258 14.7998 33.0754 14.7245 33.0166 14.6605C32.8518 13.9101 31.604 13.9617 31.6143 14.8215C31.639 17.0005 28.6117 16.8043 27.1836 16.7465C26.1914 16.7063 25.1878 16.8394 24.1997 16.7527C23.4341 16.6856 22.515 16.3791 22.2543 15.5729C22.1667 15.3004 21.9709 15.1508 21.7525 15.1002C21.7618 14.4427 20.6376 14.228 20.3306 14.9753C19.7546 16.3791 20.8252 17.7055 22.0606 18.2453C23.5443 18.8945 25.2599 18.9585 26.8508 18.8264C27.6648 18.7583 28.4747 18.6396 29.2805 18.5095C30.01 18.3919 30.756 18.3 31.4453 18.0234C32.6488 17.5403 33.7018 16.2459 33.1619 14.8938L33.1629 14.8927Z" fill="#E5E6E7"/>
<path d="M31.8233 7.87683C30.9176 6.95508 29.7533 6.48956 28.5385 6.38634C26.3067 5.80315 23.7843 6.51846 22.1923 8.22571C20.1048 10.4645 19.8709 14.1763 22.1872 16.3491C23.5772 17.6538 25.4453 17.9851 27.2319 17.6662C29.2371 17.7229 31.1927 16.7857 32.2684 14.871C32.5703 14.3342 32.763 13.7624 32.865 13.1782C33.5276 11.4183 33.3565 9.43648 31.8243 7.87683H31.8233Z" fill="#F85551"/>
<path d="M27.9472 7.79816C27.7164 7.55044 27.3835 7.41315 27.0394 7.38012C26.6911 7.23665 26.3016 7.20465 25.94 7.29858C25.7689 7.07047 25.4804 6.94144 25.1857 7.02815C24.687 7.17575 24.2491 7.41315 24.0554 7.92306C23.8452 8.47528 24.1378 9.12247 24.7087 9.29691C24.9415 9.36813 25.2064 9.37432 25.467 9.35058C25.6917 9.42697 25.9441 9.44658 26.1801 9.42077C26.5943 9.37639 26.9838 9.26904 27.3557 9.0915C27.3588 9.0915 27.3629 9.08944 27.366 9.08841C27.3959 9.08015 27.4175 9.06157 27.4454 9.05022C27.567 9.01202 27.6865 8.96867 27.805 8.91397C28.0018 8.82313 28.1172 8.59708 28.144 8.39477C28.1749 8.16666 28.1048 7.96538 27.9482 7.79713L27.9472 7.79816Z" fill="#BD1E2D"/>
<path d="M23.5321 0.195142C22.8613 -0.425207 21.8546 0.579119 22.5274 1.20153C24.377 2.91085 25.4311 5.34167 25.3981 7.86435C25.3868 8.77991 26.8066 8.78094 26.8179 7.86435C26.855 4.98659 25.6443 2.14805 23.531 0.196174L23.5321 0.195142Z" fill="#15A208"/>
<g style="mix-blend-mode:multiply" opacity="0.33">
<path d="M31.6855 39.7148C31.3774 37.6948 31.0601 35.6759 30.785 33.6517C30.5851 32.1839 30.5078 30.7409 30.4274 29.2649C30.3646 28.0985 30.2873 26.7329 29.5722 25.7544C28.7963 24.6923 27.0859 24.4848 25.8937 24.2257C22.2761 23.4413 18.5801 23.0717 14.9439 22.3843C11.0676 21.6514 7.20675 20.7823 3.27275 20.4272C2.45669 23.0821 3.18414 26.3748 3.61072 28.9924C4.12179 32.1241 5.00482 35.1783 6.2011 38.1149C7.41076 41.0846 8.69256 43.6785 11.8012 44.9718C14.643 46.1537 17.9103 46.6213 20.9376 47.0909C24.5532 47.6524 28.1863 47.9992 31.8432 48.1107C32.1739 48.121 32.4779 48.089 32.7612 48.0281C32.5098 45.2453 32.1059 42.4749 31.6855 39.7148Z" fill="#91462C"/>
</g>
</svg>
