<svg width="54" height="52" viewBox="0 0 54 52" fill="none" xmlns="http://www.w3.org/2000/svg">
<path d="M50.1312 4.82012C50.014 4.68658 49.8967 4.55623 49.7763 4.42587C49.659 4.31142 49.5386 4.19696 49.4148 4.08568C45.3154 0.353079 39.1483 -1.09354 33.8344 0.890395C30.8778 1.99364 28.6832 3.76138 26.977 5.92972C25.8341 4.44495 24.4568 3.13822 22.7408 2.124C18.306 -0.498997 12.7316 -0.600737 8.10466 1.57396C-1.65388 6.165 -1.16221 18.4406 2.13948 26.9169C4.0964 31.9371 7.06922 36.544 10.423 40.779C13.7312 44.9535 17.6776 48.9564 22.8581 50.8099C33.4632 54.6093 42.551 42.8201 47.3277 35.3327C52.7198 26.8851 57.7179 13.4681 50.1247 4.82012H50.1312Z" fill="#EE8495"/>
</svg>
