<svg width="228" height="228" viewBox="0 0 228 228" fill="none" xmlns="http://www.w3.org/2000/svg">
<circle cx="114" cy="114" r="114" fill="#8480D4"/>
<g clip-path="url(#clip0_23_3381)">
<path d="M161.525 103.963L126.215 71.4867L121.164 56.0945C119.634 51.4456 114.632 48.9159 109.975 50.4436C105.319 51.9713 102.785 56.9652 104.315 61.614L110.09 79.2075C110.568 80.653 111.39 81.9344 112.509 82.9693L118.893 88.8337L79.3052 125.893C79.1077 126.058 78.9267 126.222 78.7457 126.419L68.2975 137.409C65.7636 140.086 65.8788 144.292 68.5443 146.821C69.8277 148.037 71.4896 148.645 73.135 148.645C74.8955 148.645 76.6726 147.955 77.9724 146.575L83.0073 141.581L79.2065 146.181C76.7055 149.203 77.1333 153.688 80.1772 156.185C81.51 157.269 83.106 157.811 84.7021 157.811C85.969 157.811 87.2195 157.483 88.3219 156.826C86.7917 159.52 87.1702 163.002 89.4573 165.318C90.8558 166.731 92.6822 167.437 94.5251 167.437C95.9236 167.437 97.4703 167.109 98.7373 166.32C96.4173 169.08 96.5324 173.203 99.0993 175.832C100.498 177.261 102.341 177.984 104.2 177.984C106.059 177.984 107.787 177.31 109.169 175.963L116.261 169.08C116.261 169.08 116.392 168.949 116.442 168.899L120.012 172.924L152.871 139.035L153.118 139.495H196.079V103.947H161.542L161.525 103.963Z" fill="#F9B256"/>
<path d="M160.571 142.107L154.664 134.172C152.328 131.018 147.869 130.361 144.709 132.71C142.867 134.074 141.879 136.16 141.83 138.279C139.642 136.292 136.351 135.799 133.619 137.294C130.164 139.183 128.897 143.503 130.789 146.936L135.693 155.889L129.391 146.969C127.12 143.766 122.678 142.994 119.469 145.261C116.261 147.528 115.487 151.963 117.758 155.166L121.46 160.423L118.021 156.3C115.668 153.474 111.456 153.08 108.626 155.429C105.796 157.778 105.401 161.984 107.754 164.809L114.632 173.072C115.948 174.665 117.857 175.47 119.765 175.47C121.263 175.47 122.776 174.961 124.027 173.926C126.084 172.218 126.857 169.54 126.215 167.109C127.614 168.768 129.638 169.671 131.678 169.671C133.093 169.671 134.524 169.244 135.775 168.374C138.309 166.6 139.312 163.462 138.523 160.653C139.888 162.115 141.797 162.936 143.755 162.936C144.907 162.936 146.075 162.657 147.161 162.066C150.616 160.177 151.883 155.856 149.991 152.423L148.675 150.025L149.119 150.616C150.518 152.489 152.673 153.491 154.845 153.491C156.326 153.491 157.807 153.031 159.09 152.094C162.249 149.762 162.907 145.294 160.554 142.156L160.571 142.107Z" fill="#FBD099"/>
<path d="M131.941 88.0616L106.915 73.0308C103.278 70.846 98.5891 71.8809 96.2033 75.3306C95.5451 75.8398 94.9363 76.4312 94.3933 77.1211L73.1348 103.979H35.1592V139.528H66.9317C67.195 138.214 73.5297 132.021 74.0727 131.331L112.41 95.0103L118.136 98.4435L113.743 111.322C112.312 115.495 114.549 120.045 118.745 121.474C119.601 121.77 120.473 121.901 121.328 121.901C124.669 121.901 127.778 119.815 128.914 116.48L135.397 97.4907C136.614 93.9261 135.183 90 131.941 88.0616Z" fill="#FBD099"/>
<path d="M58.5896 101.203H32V143.733H58.5896V101.203Z" fill="#E6E9F9"/>
<path d="M56.2365 136.292C56.2365 134.37 54.6734 132.825 52.7647 132.825C50.8561 132.825 49.293 134.386 49.293 136.292C49.293 138.197 50.8561 139.758 52.7647 139.758C54.6734 139.758 56.2365 138.197 56.2365 136.292ZM52.9128 135.503C52.9128 135.175 53.1761 134.928 53.4887 134.928C53.8013 134.928 54.0646 135.191 54.0646 135.503C54.0646 135.815 53.8013 136.078 53.4887 136.078C53.1761 136.078 52.9128 135.815 52.9128 135.503ZM51.4484 137.096C51.4484 136.768 51.7117 136.522 52.0243 136.522C52.3369 136.522 52.6002 136.784 52.6002 137.096C52.6002 137.409 52.3369 137.671 52.0243 137.671C51.7117 137.671 51.4484 137.409 51.4484 137.096Z" fill="#868686"/>
<path d="M47.4831 98.0657H32V152.439H47.4831V98.0657Z" fill="#223946"/>
<path d="M197 102.518H170.411V145.064H197V102.518Z" fill="#E6E9F9"/>
<path d="M197 99.3799H181.517V153.754H197V99.3799Z" fill="#223946"/>
</g>
<defs>
<clipPath id="clip0_23_3381">
<rect width="165" height="128" fill="white" transform="translate(32 50)"/>
</clipPath>
</defs>
</svg>
