<svg width="55" height="53" viewBox="0 0 55 53" fill="none" xmlns="http://www.w3.org/2000/svg">
<path d="M27.2384 0C31.9473 0 35.5735 17.0207 35.5735 17.0207C35.5735 17.0207 52.7611 15.236 54.214 19.7519C55.6709 24.2638 40.7242 32.9987 40.7242 32.9987C40.7242 32.9987 47.7179 48.9166 43.9086 51.7039C40.0993 54.4912 27.2344 42.8727 27.2344 42.8727C27.2344 42.8727 14.3695 54.4952 10.5602 51.7039C6.75089 48.9126 13.7446 32.9987 13.7446 32.9987C13.7446 32.9987 -1.20209 24.2638 0.254763 19.7519C1.71161 15.2401 18.8953 17.0207 18.8953 17.0207C18.8953 17.0207 22.5215 0 27.2304 0L27.2384 0Z" fill="#8D92EF"/>
</svg>
