<svg width="271" height="135" viewBox="0 0 271 135" fill="none" xmlns="http://www.w3.org/2000/svg">
<path fill-rule="evenodd" clip-rule="evenodd" d="M102.099 26.595C100.21 25.4508 97.5597 25.9223 96.1807 27.6482L77.0885 51.542L56.4399 29.6249C54.925 28.017 52.2394 27.754 50.4414 29.0376L25.8281 46.6089C24.0302 47.8925 23.8007 50.2365 25.3155 51.8444L53.1984 81.4403L29.4655 111.142C28.0864 112.868 28.5004 115.195 30.3902 116.339L56.5918 132.203C58.4815 133.347 61.1314 132.876 62.5104 131.15L79.7291 109.601L100.659 131.816C102.174 133.424 104.859 133.687 106.657 132.404L131.271 114.832C133.069 113.549 133.298 111.205 131.783 109.597L103.619 79.7026L129.226 47.6561C130.605 45.9303 130.191 43.6036 128.301 42.4594L102.099 26.595Z" fill="#EF8DD1"/>
<path fill-rule="evenodd" clip-rule="evenodd" d="M201.961 135C239.576 135 270.069 104.779 270.069 67.4999C270.069 30.2208 239.576 0 201.961 0C164.346 0 133.853 30.2208 133.853 67.4999C133.853 104.779 164.346 135 201.961 135ZM202.759 98C219.051 98 232.259 84.7924 232.259 68.5C232.259 52.2076 219.051 39 202.759 39C186.466 39 173.259 52.2076 173.259 68.5C173.259 84.7924 186.466 98 202.759 98Z" fill="#D5C1F6"/>
</svg>
