<svg width="54" height="53" viewBox="0 0 54 53" fill="none" xmlns="http://www.w3.org/2000/svg">
<path d="M28.8261 49.81C29.3146 48.3499 29.5161 46.7605 29.8284 45.2552C29.9895 44.4756 30.152 43.6972 30.3131 42.9176C30.458 42.2183 30.677 41.4951 30.7035 40.7783C30.7274 40.1167 30.5385 39.4726 30.0185 39.0332C29.3889 38.5022 28.5138 38.3992 27.7344 38.2134C25.8872 37.774 24.0401 37.3333 22.1929 36.8939C21.5444 36.7395 21.2234 37.2944 21.2976 37.8205C20.9048 37.6911 20.4654 37.8117 20.3319 38.3289C19.5588 41.3093 18.9305 44.3852 18.7252 47.4623C18.3424 53.1834 26.994 55.2925 28.8261 49.81Z" fill="#E2A069"/>
<g style="mix-blend-mode:multiply" opacity="0.15">
<path d="M23.7581 42.0915C23.7657 42.0425 23.7644 41.9923 23.7619 41.9433C24.3147 41.9848 24.8624 42.143 25.4315 42.1819C27.1503 42.2986 28.6537 42.4769 30.2843 43.0607C30.2944 43.013 30.3044 42.9653 30.3145 42.9176C30.4593 42.2183 30.6784 41.4951 30.7048 40.7783C30.7288 40.1167 30.5399 39.4726 30.0199 39.0332C29.3903 38.5022 28.5152 38.3992 27.7358 38.2134C25.8886 37.774 24.0414 37.3333 22.1943 36.8939C21.5458 36.7395 21.2247 37.2944 21.299 37.8205C20.9061 37.6911 20.4667 37.8117 20.3332 38.3289C19.5601 41.3093 18.9318 44.3852 18.7266 47.4623C18.7266 47.4748 18.7266 47.4874 18.7266 47.5C19.2604 46.0725 19.8888 44.5961 20.8583 43.4248C21.1769 43.0406 21.5458 42.7016 21.9601 42.4342C21.848 43.2264 21.7372 44.0199 21.6251 44.812C21.5622 45.2602 21.9361 45.736 22.3945 45.7662C22.8755 45.7976 23.2834 45.4799 23.3514 44.9991C23.4874 44.0299 23.6246 43.0607 23.7606 42.0902L23.7581 42.0915Z" fill="#FFE03B"/>
</g>
<path d="M45.2293 28.1723C46.3587 24.1913 46.8661 20.0094 46.2529 15.9907C43.8417 0.207232 26.8671 -4.63252 16.566 4.81096C8.45079 12.252 3.66728 29.365 14.3952 36.7131C17.7622 39.0181 23.2344 40.841 27.3254 41.4223C31.021 41.9471 34.9836 41.524 38.2536 39.2742C41.9517 36.7307 44.0469 32.3454 45.2305 28.1736L45.2293 28.1723Z" fill="#FFEF99"/>
<path d="M8.83976 28.9181C8.93671 29.006 9.03241 29.0926 9.13817 29.173C10.1921 29.9702 11.6955 30.3443 12.9521 29.8358C14.064 29.3851 14.9378 28.4875 15.8381 27.7267C17.781 26.0858 20.0701 25.1078 22.6274 25.9126C24.8272 26.6043 25.4605 28.6946 26.3356 30.5703C27.0067 32.0103 28.8098 33.9248 30.6621 33.1603C32.1844 32.5325 32.7485 30.3669 33.6525 29.1428C34.2519 28.3331 35.0011 27.6765 35.9316 27.276C37.0283 26.8039 38.4209 26.3344 39.6058 26.7763C41.4517 27.4643 41.4794 29.7743 42.702 31.0574C43.0672 31.4403 43.4651 31.7441 43.8793 31.9676C44.4258 30.7209 44.869 29.4366 45.2279 28.1711C46.3573 24.1901 46.8648 20.0082 46.2516 15.9895C43.8416 0.207284 26.867 -4.63246 16.5659 4.81101C10.663 10.2232 6.52922 20.7514 8.83976 28.9181Z" fill="#EF8DD1"/>
<g style="mix-blend-mode:multiply" opacity="0.15">
<path d="M27.6866 45.4222C27.7193 45.2954 27.7533 45.1686 27.786 45.0418C27.8314 44.935 27.849 44.8258 27.8364 44.7128C27.844 44.6011 27.8226 44.4931 27.7734 44.3889C27.7306 44.2784 27.6652 44.1881 27.5758 44.1152C27.499 44.0261 27.4033 43.9621 27.2887 43.9219C27.2156 43.9043 27.1426 43.8867 27.0696 43.8692C26.9185 43.8541 26.7737 43.8754 26.6339 43.9345L26.44 44.0487C26.3154 44.1479 26.2234 44.2709 26.1655 44.4178C26.1315 44.5446 26.0988 44.6714 26.066 44.7982C26.0207 44.9049 26.0031 45.0141 26.0157 45.1271C26.0081 45.2389 26.0295 45.3468 26.0786 45.451C26.1214 45.5615 26.1869 45.6519 26.2763 45.7247C26.3531 45.8139 26.4488 45.8779 26.5634 45.9181L26.7825 45.9708C26.9336 45.9859 27.0784 45.9645 27.2182 45.9055L27.4121 45.7913C27.5367 45.6921 27.6286 45.569 27.6866 45.4209V45.4222Z" fill="#FFE03B"/>
</g>
<g style="mix-blend-mode:multiply" opacity="0.15">
<path d="M23.2032 47.7849C23.2271 47.7121 23.251 47.6393 23.2749 47.5652C23.3203 47.4585 23.3379 47.3493 23.3253 47.2363C23.3329 47.1245 23.3115 47.0166 23.2623 46.9124C23.2195 46.8019 23.1541 46.7115 23.0647 46.6387C22.9879 46.5495 22.8909 46.4855 22.7776 46.4453C22.7045 46.4278 22.6315 46.4102 22.5585 46.3926C22.4074 46.3775 22.2626 46.3989 22.1228 46.4579C22.0586 46.4955 21.9931 46.5345 21.9289 46.5721C21.8043 46.6713 21.7123 46.7943 21.6544 46.9412C21.6305 47.014 21.6066 47.0869 21.5826 47.1609C21.5373 47.2676 21.5197 47.3769 21.5323 47.4899C21.5247 47.6016 21.5461 47.7096 21.5952 47.8138C21.638 47.9243 21.7035 48.0146 21.7929 48.0875C21.8697 48.1766 21.9654 48.2406 22.08 48.2808C22.153 48.2984 22.2261 48.3159 22.2991 48.3335C22.4502 48.3486 22.595 48.3272 22.7348 48.2682C22.799 48.2306 22.8645 48.1917 22.9287 48.154C23.0533 48.0548 23.1452 47.9318 23.2032 47.7849Z" fill="#FFE03B"/>
</g>
<g style="mix-blend-mode:multiply" opacity="0.25">
<path d="M44.4637 30.5239C42.031 33.0009 39.0657 34.9532 35.7517 36.0379C31.0777 37.567 25.8976 37.2958 21.4175 35.2457C17.5759 33.4868 14.6685 30.3783 12.9548 26.5479C11.1895 22.6033 10.6505 18.213 10.6191 13.9307C10.6178 13.721 10.6241 13.5114 10.6254 13.303C6.9839 21.4006 6.79251 31.5082 14.394 36.7146C17.7609 39.0196 23.2332 40.8425 27.3242 41.4237C31.0198 41.9485 34.9823 41.5254 38.2523 39.2757C41.2579 37.2079 43.2046 33.9237 44.4637 30.5265V30.5239Z" fill="#FFE03B"/>
</g>
<path d="M43.2562 16.424C43.1957 13.8465 42.4579 11.2779 41.1421 9.05825C40.9041 8.65651 40.4722 8.40291 40.0025 8.60378C39.6147 8.7695 39.3062 9.3357 39.5467 9.73996C40.8222 11.8905 41.4808 14.1805 41.54 16.6801C41.5513 17.1471 42.1041 17.471 42.5259 17.4082C43.0371 17.3316 43.2675 16.8935 43.2562 16.4252V16.424Z" fill="#FFF6F0"/>
<path d="M43.1795 18.5229C42.2818 17.86 41.248 19.2498 42.147 19.9139C43.0448 20.5768 44.0786 19.187 43.1795 18.5229Z" fill="#FFF6F0"/>
</svg>
