<svg width="38" height="29" viewBox="0 0 38 29" fill="none" xmlns="http://www.w3.org/2000/svg">
<g clip-path="url(#clip0_23_3030)">
<path d="M32.9649 21.9862L32.496 20.3483C32.0678 18.8463 32.2217 16.5772 32.8623 14.9536C33.2858 13.8799 33.4146 12.6965 33.2357 11.5309C32.8289 8.87537 30.7877 6.7125 28.156 6.14941C26.3522 5.7605 24.5174 6.13868 23.0142 7.19208H14.9843C13.4811 6.13987 11.6463 5.7617 9.84256 6.14941C7.21085 6.7125 5.16966 8.87537 4.76285 11.5309C4.5851 12.6965 4.71275 13.8799 5.13626 14.9536C5.77689 16.5772 5.93078 18.8451 5.5025 20.3471L5.03366 21.9862C4.79984 22.8106 4.68173 23.6612 4.68412 24.5165C4.6877 25.4888 5.49057 26.2798 6.47359 26.2798H8.82495C9.79842 26.2798 10.6979 25.7513 11.1835 24.8768L14.0657 19.1219H23.9328L26.8282 24.8983C27.3018 25.7513 28.2013 26.2798 29.1748 26.2798H31.5262C32.5092 26.2798 33.312 25.4888 33.3156 24.5153C33.318 23.6612 33.1999 22.8106 32.9649 21.9862ZM14.8244 14.35H13.035V16.1394C13.035 16.4687 12.7677 16.7359 12.4385 16.7359H10.0525C9.72326 16.7359 9.45604 16.4687 9.45604 16.1394V14.35H7.66657C7.3373 14.35 7.07008 14.0827 7.07008 13.7535V11.3675C7.07008 11.0382 7.3373 10.771 7.66657 10.771H9.45604V8.98155C9.45604 8.65229 9.72326 8.38506 10.0525 8.38506H12.4385C12.7677 8.38506 13.035 8.65229 13.035 8.98155V10.771H14.8244C15.1537 10.771 15.4209 11.0382 15.4209 11.3675V13.7535C15.4209 14.0827 15.1537 14.35 14.8244 14.35ZM17.2104 16.7359H16.0174C15.6882 16.7359 15.4209 16.4687 15.4209 16.1394C15.4209 15.8102 15.6882 15.5429 16.0174 15.5429H17.2104C17.5397 15.5429 17.8069 15.8102 17.8069 16.1394C17.8069 16.4687 17.5397 16.7359 17.2104 16.7359ZM21.9823 16.7359H20.7893C20.4601 16.7359 20.1929 16.4687 20.1929 16.1394C20.1929 15.8102 20.4601 15.5429 20.7893 15.5429H21.9823C22.3116 15.5429 22.5788 15.8102 22.5788 16.1394C22.5788 16.4687 22.3116 16.7359 21.9823 16.7359ZM29.1402 14.35C28.8563 14.35 28.5914 14.2772 28.354 14.1603C28.4709 14.3977 28.5437 14.6625 28.5437 14.9464C28.5437 15.933 27.7408 16.7359 26.7542 16.7359C25.7676 16.7359 24.9648 15.933 24.9648 14.9464C24.9648 14.6625 25.0375 14.3977 25.1545 14.1603C24.9171 14.2772 24.6522 14.35 24.3683 14.35C23.3817 14.35 22.5788 13.5471 22.5788 12.5605C22.5788 11.5739 23.3817 10.771 24.3683 10.771C24.6522 10.771 24.9171 10.8438 25.1545 10.9607C25.0375 10.7233 24.9648 10.4585 24.9648 10.1745C24.9648 9.18793 25.7676 8.38506 26.7542 8.38506C27.7408 8.38506 28.5437 9.18793 28.5437 10.1745C28.5437 10.4585 28.4709 10.7233 28.354 10.9607C28.5914 10.8438 28.8563 10.771 29.1402 10.771C30.1268 10.771 30.9297 11.5739 30.9297 12.5605C30.9297 13.5471 30.1268 14.35 29.1402 14.35Z" fill="black" fill-opacity="0.6"/>
<path d="M35.4843 17.9384C35.2019 16.731 34.87 15.658 34.6699 14.9828C34.5213 14.481 34.3308 13.9866 34.1674 13.4933C34.004 13.0005 33.8682 12.5104 33.8222 12.0224L33.8171 11.9691C34.0341 11.312 34.1536 10.608 34.1536 9.87421C34.1536 7.80921 33.2192 5.97301 31.7686 4.79866C31.3866 3.42537 30.1739 2.42114 28.7355 2.42114H27.2798C25.8419 2.42114 24.6287 3.42537 24.2463 4.79812C23.9777 5.01572 23.7265 5.25517 23.4962 5.5149H14.5033C14.2271 5.20291 13.9212 4.92079 13.5908 4.67119C13.1711 3.36351 11.9896 2.42114 10.5961 2.42114H9.14037C7.65654 2.42114 6.41269 3.48937 6.07263 4.92985C4.71287 6.10741 3.84637 7.88494 3.84586 9.87474C3.84586 10.6086 3.96534 11.3126 4.18235 11.9696L4.17724 12.0229C4.13129 12.5109 3.99546 13.001 3.83207 13.4938C3.66918 13.9866 3.47822 14.4815 3.32963 14.9834C3.12947 15.6585 2.79757 16.7316 2.51521 17.939C2.23386 19.1469 2 20.4898 2 21.7202C2.00051 22.6833 2.14195 23.5814 2.53665 24.2924C2.73375 24.647 2.99671 24.9531 3.33269 25.1862C3.66867 25.4192 4.07512 25.5776 4.5556 25.6475C4.72615 25.6726 4.89363 25.6843 5.05855 25.6843C5.84489 25.6843 6.55975 25.4096 7.20312 24.9745C8.16919 24.3206 8.98668 23.31 9.71328 22.2706C10.4383 21.2322 11.072 20.1608 11.6444 19.3907C11.6516 19.3811 11.6597 19.3704 11.6689 19.3581C12.1688 19.6387 12.7402 19.7981 13.3478 19.7981C15.0849 19.7981 16.5299 18.4952 16.8383 16.7742H21.1627C21.4711 18.4947 22.9161 19.7976 24.6532 19.7981C25.2608 19.7981 25.8322 19.6387 26.3321 19.3581C26.3408 19.3699 26.35 19.3816 26.3566 19.3907C26.7375 19.9037 27.1475 20.5517 27.5923 21.2338C28.2602 22.2572 29.0067 23.3585 29.8793 24.214C30.3159 24.6411 30.7846 25.0081 31.2942 25.2689C31.8033 25.5302 32.3537 25.6843 32.9425 25.6843C33.1074 25.6843 33.2749 25.6726 33.4454 25.6475C33.9254 25.5771 34.3323 25.4192 34.6678 25.1862C35.1723 24.8369 35.5088 24.3233 35.7141 23.726C35.9198 23.1281 36.0005 22.4428 36.0005 21.7202C36.0005 20.4898 35.7666 19.1469 35.4848 17.939L35.4843 17.9384Z" fill="#3C3C3B"/>
<path d="M12.9831 4.26589C12.8631 4.0515 12.7181 3.8547 12.5506 3.67978C12.0497 3.15713 11.3599 2.83447 10.596 2.83447H9.14026C8.37639 2.83447 7.68656 3.15766 7.18565 3.67978C6.95996 3.9155 6.77358 4.19229 6.63623 4.49788C7.60128 3.83924 8.75373 3.45472 9.99298 3.45472C11.0785 3.45472 12.0977 3.74964 12.9831 4.26589Z" fill="#C5BEC0"/>
<path d="M31.1814 4.37633C31.0512 4.11874 30.8852 3.88408 30.6902 3.67929C30.1893 3.15664 29.4994 2.83398 28.7356 2.83398H27.2798C26.5159 2.83398 25.8261 3.15717 25.3252 3.67929C25.1296 3.88355 24.9642 4.1182 24.834 4.37526C25.7602 3.79075 26.8463 3.45423 28.0074 3.45423C29.1686 3.45423 30.2556 3.79075 31.1819 4.37633H31.1814Z" fill="#C5BEC0"/>
<path d="M9.80038 16.2895C7.45617 16.2137 5.44283 14.769 4.47012 12.6938C4.40067 13.0117 4.30723 13.3226 4.20613 13.6282C4.03865 14.1338 3.84973 14.625 3.70778 15.1044C3.5066 15.7839 3.17827 16.8457 2.89999 18.0361C2.62171 19.2259 2.395 20.5437 2.39551 21.7197C2.39551 22.4103 2.47363 23.0508 2.65847 23.5857C2.84382 24.1217 3.12977 24.5489 3.55153 24.8422C3.8339 25.0379 4.18009 25.1755 4.61054 25.2385C4.76321 25.2609 4.91231 25.2715 5.05834 25.2715C5.58121 25.2715 6.06884 25.1361 6.53298 24.8982C6.99662 24.6609 7.43574 24.3201 7.85138 23.9126C8.68316 23.0988 9.41844 22.0199 10.0822 21.0013C10.5244 20.3229 10.9355 19.6728 11.3297 19.1405C10.4524 18.507 9.86114 17.4718 9.80038 16.2889V16.2895ZM4.16579 16.2825C4.0938 16.5172 3.99372 16.8532 3.88189 17.2579C3.82675 17.4606 3.76854 17.6803 3.70982 17.9129C3.65008 18.1454 3.59595 18.3923 3.53723 18.6472C3.51068 18.7752 3.48413 18.9054 3.45656 19.0371C3.43358 19.1693 3.4055 19.3021 3.38252 19.4376C3.35903 19.5725 3.33452 19.7085 3.31665 19.8456C3.2952 19.9827 3.27835 20.1202 3.26355 20.2584C3.2278 20.5341 3.20738 20.8104 3.19359 21.0823C3.19155 21.2183 3.18644 21.3538 3.18542 21.4866C3.19002 21.6194 3.18491 21.7522 3.19615 21.8802C3.20432 22.0092 3.21197 22.1362 3.22831 22.2588C3.23495 22.3207 3.2421 22.3815 3.24874 22.4418C3.25895 22.5015 3.26916 22.5602 3.27937 22.6183C3.2901 22.6764 3.29878 22.734 3.31103 22.79C3.32482 22.8455 3.33861 22.8999 3.35188 22.9537C3.37435 23.0631 3.40907 23.1639 3.44175 23.2609C3.4586 23.3095 3.47136 23.3585 3.49077 23.4033C3.51017 23.4487 3.52906 23.4924 3.54745 23.5351C3.56532 23.5788 3.58319 23.6209 3.60055 23.662C3.62148 23.7009 3.64191 23.7388 3.66131 23.775C3.70267 23.847 3.73433 23.9201 3.7762 23.9788C3.81654 24.039 3.8533 24.094 3.887 24.1441C3.91866 24.1964 3.95542 24.2353 3.98453 24.2716C4.01465 24.3078 4.03967 24.3388 4.0601 24.3633C4.10197 24.4134 4.12392 24.4406 4.12392 24.4406C4.12392 24.4406 4.09788 24.4177 4.04937 24.3756C4.02487 24.3542 3.99474 24.3281 3.959 24.2972C3.92325 24.2662 3.88087 24.2316 3.84207 24.1841C3.80122 24.1382 3.75628 24.0876 3.70727 24.0321C3.65518 23.9788 3.61638 23.9073 3.56481 23.838C3.5403 23.8022 3.51528 23.7654 3.48873 23.727C3.46626 23.687 3.44328 23.646 3.41979 23.6028C3.3963 23.5601 3.37231 23.5159 3.3478 23.4711C3.32329 23.4257 3.30593 23.3761 3.28346 23.3271C3.24057 23.2284 3.19563 23.1255 3.16193 23.014C3.14406 22.9585 3.12568 22.9025 3.1073 22.8449C3.09045 22.7873 3.07819 22.7276 3.06288 22.6679C3.04858 22.6076 3.03377 22.5463 3.01896 22.4844C3.00824 22.422 2.99701 22.3591 2.98577 22.2946C2.95922 22.1666 2.95003 22.0348 2.93522 21.8999C2.9102 21.6317 2.89999 21.3533 2.90663 21.0706C2.91735 20.789 2.93471 20.5026 2.96841 20.2194C2.98577 20.0776 3.00518 19.9363 3.02867 19.7965C3.04909 19.6557 3.07615 19.5176 3.10168 19.3795C3.15274 19.1043 3.21963 18.8376 3.28448 18.58C3.35086 18.323 3.42388 18.0771 3.49843 17.8457C3.56991 17.6137 3.64804 17.3982 3.72105 17.1998C4.01414 16.4062 4.28119 15.9119 4.28119 15.9119C4.28119 15.9119 4.23728 16.0457 4.16579 16.2809V16.2825Z" fill="#DBD5D7"/>
<path d="M34.2923 15.1044C34.1503 14.625 33.9614 14.1338 33.7939 13.6282C33.6923 13.3226 33.5994 13.0112 33.5299 12.6938C32.5572 14.769 30.5439 16.2137 28.1997 16.2895C28.1389 17.4723 27.5481 18.5075 26.6704 19.1411C27.2617 19.9395 27.8928 21.0066 28.6066 22.0284C29.32 23.0513 30.1165 24.0246 31.0121 24.6283C31.6095 25.0315 32.2458 25.2715 32.9422 25.2721C33.0888 25.2721 33.2379 25.2614 33.3906 25.239C33.821 25.1761 34.1672 25.0385 34.4496 24.8427C34.7314 24.647 34.9515 24.3921 35.1225 24.0849C35.4652 23.4721 35.6061 22.6418 35.6056 21.7202C35.6056 20.5442 35.3794 19.2264 35.1011 18.0366C34.8228 16.8462 34.4945 15.7844 34.2933 15.105L34.2923 15.1044ZM34.6834 21.901C34.6686 22.0354 34.6594 22.1676 34.6329 22.2956C34.6216 22.3596 34.6104 22.4231 34.5997 22.4855C34.5849 22.5474 34.5706 22.6082 34.5563 22.669C34.541 22.7287 34.5282 22.7884 34.5118 22.846C34.4935 22.9031 34.4751 22.9596 34.4572 23.0151C34.4235 23.1265 34.3786 23.2295 34.3357 23.3281C34.3137 23.3772 34.2959 23.4268 34.2714 23.4721C34.2468 23.5175 34.2228 23.5612 34.1994 23.6039C34.1759 23.6465 34.1524 23.6881 34.1304 23.7281C34.1044 23.7665 34.0789 23.8033 34.0549 23.839C34.0033 23.9084 33.9645 23.9798 33.9124 24.0332C33.8634 24.0886 33.8184 24.1393 33.7776 24.1852C33.7393 24.2326 33.6964 24.2673 33.6607 24.2982C33.6249 24.3292 33.5948 24.3548 33.5703 24.3766C33.5218 24.4188 33.4957 24.4417 33.4957 24.4417C33.4957 24.4417 33.5177 24.4145 33.5596 24.3644C33.58 24.3393 33.6055 24.3084 33.6356 24.2726C33.6647 24.2358 33.7015 24.1974 33.7332 24.1452C33.7664 24.0956 33.8036 24.0401 33.844 23.9798C33.8858 23.9212 33.9175 23.8481 33.9589 23.7761C33.9783 23.7393 33.9987 23.702 34.0196 23.663C34.037 23.622 34.0543 23.5799 34.0727 23.5361C34.0911 23.4935 34.11 23.4492 34.1294 23.4044C34.1488 23.3596 34.1616 23.3105 34.1784 23.262C34.2111 23.1644 34.2453 23.0636 34.2683 22.9548C34.2816 22.9009 34.2954 22.8465 34.3091 22.7911C34.3214 22.7351 34.3301 22.6775 34.3408 22.6194C34.351 22.5612 34.3612 22.5026 34.3714 22.4428C34.3781 22.3826 34.3847 22.3212 34.3919 22.2599C34.4082 22.1372 34.4159 22.0103 34.424 21.8812C34.4358 21.7533 34.4307 21.6205 34.4347 21.4877C34.4337 21.3549 34.4286 21.2194 34.4266 21.0834C34.4128 20.8114 34.3924 20.5352 34.3566 20.2594C34.3418 20.1218 34.325 19.9837 34.3035 19.8467C34.2851 19.7096 34.2606 19.5736 34.2371 19.4387C34.2147 19.3037 34.1861 19.1704 34.1631 19.0382C34.136 18.9064 34.109 18.7763 34.0824 18.6483C34.0242 18.3934 33.9696 18.1465 33.9098 17.9139C33.8511 17.6809 33.7929 17.4617 33.7378 17.259C33.6259 16.8542 33.5259 16.5188 33.4539 16.2836C33.3819 16.0484 33.3385 15.9145 33.3385 15.9145C33.3385 15.9145 33.6055 16.4089 33.8986 17.2025C33.9716 17.4009 34.0497 17.6163 34.1212 17.8483C34.1953 18.0798 34.2683 18.3256 34.3347 18.5827C34.3995 18.8403 34.4664 19.1069 34.5175 19.3821C34.543 19.5197 34.5696 19.6584 34.59 19.7992C34.6135 19.9389 34.6329 20.0802 34.6497 20.2221C34.6834 20.5058 34.7008 20.7917 34.7115 21.0733C34.7181 21.3559 34.7084 21.6343 34.6829 21.9026L34.6834 21.901Z" fill="#DBD5D7"/>
<path d="M35.4843 17.9384C35.2019 16.731 34.87 15.658 34.6699 14.9828C34.5213 14.481 34.3308 13.9866 34.1674 13.4933C34.004 13.0005 33.8682 12.5104 33.8222 12.0224L33.8171 11.9691C34.0341 11.312 34.1536 10.608 34.1536 9.87421C34.1536 7.80921 33.2192 5.97301 31.7686 4.79866C31.3866 3.42537 30.1739 2.42114 28.7355 2.42114H27.2798C25.8419 2.42114 24.6287 3.42537 24.2463 4.79812C23.9777 5.01572 23.7265 5.25517 23.4962 5.5149H14.5033C14.2271 5.20291 13.9212 4.92079 13.5908 4.67066C13.1711 3.36351 11.9896 2.42114 10.5961 2.42114H9.14037C7.65654 2.42114 6.41269 3.48937 6.07263 4.92985C4.71287 6.10741 3.84637 7.88494 3.84586 9.87474C3.84586 10.6086 3.96534 11.3126 4.18235 11.9691L4.17724 12.0224C4.13129 12.5104 3.99546 13.0005 3.83207 13.4933C3.66918 13.9861 3.47822 14.481 3.32963 14.9828C3.12947 15.658 2.79757 16.731 2.51521 17.9384C2.23386 19.1469 2 20.4898 2 21.7202C2.00051 22.6833 2.14195 23.5814 2.53665 24.2924C2.73375 24.647 2.99671 24.9531 3.33269 25.1862C3.66867 25.4192 4.07512 25.5776 4.5556 25.6475C4.72615 25.6726 4.89363 25.6843 5.05855 25.6843C5.84489 25.6843 6.55975 25.4096 7.20312 24.9745C8.16919 24.3206 8.98668 23.31 9.71328 22.2706C10.4383 21.2322 11.072 20.1608 11.6444 19.3907C11.6516 19.3811 11.6597 19.3704 11.6689 19.3581C12.1688 19.6387 12.7402 19.7981 13.3478 19.7981C15.0849 19.7981 16.5299 18.4952 16.8383 16.7742H21.1627C21.4711 18.4947 22.9161 19.7976 24.6532 19.7981C25.2608 19.7981 25.8322 19.6387 26.3321 19.3581C26.3408 19.3699 26.35 19.3816 26.3566 19.3907C26.7375 19.9037 27.1475 20.5517 27.5923 21.2338C28.2602 22.2572 29.0067 23.3585 29.8793 24.214C30.3159 24.6411 30.7846 25.0081 31.2942 25.2689C31.8033 25.5302 32.3537 25.6843 32.9425 25.6843C33.1074 25.6843 33.2749 25.6726 33.4454 25.6475C33.9254 25.5771 34.3323 25.4192 34.6678 25.1862C35.1723 24.8369 35.5088 24.3233 35.7141 23.726C35.9198 23.1281 36.0005 22.4428 36.0005 21.7202C36.0005 20.4898 35.7666 19.1469 35.4848 17.939L35.4843 17.9384ZM25.3247 3.67923C25.8256 3.15658 26.5154 2.83393 27.2793 2.83393H28.735C29.4989 2.83393 30.1887 3.15712 30.6896 3.67923C30.8852 3.88349 31.0512 4.11868 31.1809 4.37627C30.2541 3.79123 29.168 3.45417 28.0064 3.45417C26.8448 3.45417 25.7597 3.79069 24.833 4.37521C24.9632 4.11815 25.1286 3.88349 25.3242 3.67923H25.3247ZM7.18576 3.67923C7.68666 3.15658 8.3765 2.83393 9.14037 2.83393H10.5961C11.36 2.83393 12.0498 3.15712 12.5507 3.67923C12.7182 3.85416 12.8632 4.05095 12.9832 4.26534C12.0978 3.74909 11.0786 3.45417 9.99309 3.45417C8.75435 3.45417 7.6019 3.83869 6.63634 4.49733C6.77369 4.19228 6.95956 3.91549 7.18576 3.67923ZM10.0819 21.0018C9.41814 22.0199 8.68287 23.0988 7.85108 23.9132C7.43544 24.3206 6.99632 24.6614 6.53269 24.8987C6.06854 25.1366 5.58091 25.272 5.05804 25.272C4.9115 25.272 4.7624 25.2614 4.61024 25.239C4.17979 25.1761 3.8336 25.0385 3.55123 24.8427C3.12896 24.5494 2.84353 24.1222 2.65818 23.5862C2.47334 23.0513 2.39521 22.4108 2.39521 21.7202C2.39521 20.5442 2.62141 19.2264 2.8997 18.0366C3.17798 16.8462 3.5063 15.7844 3.70748 15.105C3.84943 14.6255 4.03836 14.1343 4.20584 13.6287C4.30745 13.3231 4.40038 13.0117 4.46982 12.6944C5.44253 14.7695 7.45587 16.2142 9.80008 16.29C9.86084 17.4729 10.4521 18.508 11.3294 19.1416C10.9352 19.6739 10.5241 20.324 10.0819 21.0023V21.0018ZM15.5797 18.4195C15.0078 19.0168 14.2199 19.3848 13.3473 19.3848C12.4747 19.3848 11.6868 19.0163 11.1149 18.4195C10.543 17.8222 10.1902 16.9993 10.1902 16.0878C10.1902 15.1769 10.5435 14.3535 11.1149 13.7562C11.6868 13.1594 12.4752 12.7904 13.3473 12.7904C14.2194 12.7904 15.0078 13.1589 15.5797 13.7562C16.151 14.3535 16.5044 15.1769 16.5044 16.0878C16.5044 16.9993 16.151 17.8222 15.5797 18.4195ZM21.1111 16.362H16.8889C16.895 16.2713 16.8996 16.1801 16.8996 16.0884C16.8996 14.1066 15.4122 12.4885 13.5398 12.384C13.476 12.3802 13.4116 12.3781 13.3473 12.3781C11.626 12.3781 10.1912 13.6565 9.86493 15.354C9.86391 15.3588 9.8634 15.3641 9.86237 15.3695C9.83123 15.5348 9.81029 15.7044 9.8011 15.8772C8.28867 15.8255 6.92534 15.1663 5.92608 14.1231C4.88495 13.0352 4.24158 11.5349 4.24158 9.87527C4.24158 8.2156 4.88495 6.71539 5.92608 5.62743C6.96773 4.54053 8.40407 3.86856 9.99309 3.86856C11.5821 3.86856 13.0185 4.54053 14.0601 5.62743C15.1012 6.71539 15.7446 8.2156 15.7446 9.87527H16.1398C16.1398 8.38626 15.6532 7.01724 14.8393 5.92822H23.1612C22.3473 7.01671 21.8607 8.38626 21.8607 9.87527H22.2559C22.2559 8.2156 22.8993 6.71539 23.9404 5.62743C24.9821 4.54053 26.4184 3.86856 28.0074 3.86856C29.5964 3.86856 31.0328 4.54053 32.0744 5.62743C33.1156 6.71539 33.7589 8.2156 33.7589 9.87527C33.7589 11.5349 33.1156 13.0352 32.0744 14.1231C31.0752 15.1663 29.7118 15.8255 28.1994 15.8772C28.0942 13.9263 26.5471 12.3786 24.6532 12.3786C24.5889 12.3786 24.5245 12.3808 24.4607 12.3845C22.5883 12.489 21.1014 14.1071 21.1009 16.0889C21.1009 16.1812 21.105 16.2724 21.1116 16.3625L21.1111 16.362ZM24.6527 19.3853C23.7806 19.3853 22.9922 19.0168 22.4203 18.42C21.8484 17.8227 21.4956 16.9998 21.4956 16.0884C21.4956 15.1775 21.8489 14.354 22.4203 13.7567C22.9922 13.16 23.7801 12.7909 24.6527 12.7909C25.5253 12.7909 26.3132 13.1594 26.8851 13.7567C27.4565 14.354 27.8098 15.1775 27.8098 16.0884C27.8098 16.9998 27.4565 17.8227 26.8851 18.42C26.3132 19.0173 25.5248 19.3853 24.6527 19.3853ZM35.1217 24.0849C34.9507 24.3921 34.7306 24.6465 34.4488 24.8427C34.1664 25.0385 33.8202 25.1761 33.3898 25.239C33.2371 25.2614 33.088 25.272 32.9414 25.272C32.245 25.272 31.6087 25.0315 31.0113 24.6283C30.1157 24.0246 29.3197 23.0513 28.6059 22.0284C27.892 21.0066 27.2614 19.9394 26.6696 19.1411C27.5468 18.5075 28.1381 17.4723 28.1989 16.2894C30.5431 16.2137 32.5559 14.769 33.5292 12.6938C33.5986 13.0117 33.692 13.3226 33.7931 13.6282C33.9606 14.1338 34.1495 14.625 34.2915 15.1044C34.4927 15.7839 34.821 16.8457 35.0993 18.036C35.3776 19.2259 35.6038 20.5437 35.6038 21.7196C35.6043 22.6412 35.4633 23.4716 35.1207 24.0844L35.1217 24.0849Z" fill="#3C3C3B"/>
<path d="M24.4604 12.3834C24.5242 12.3797 24.5885 12.3775 24.6529 12.3775C26.5467 12.3775 28.0944 13.9257 28.199 15.8761C29.7115 15.8243 31.0748 15.1652 32.0741 14.122C33.1152 13.034 33.7586 11.5338 33.7586 9.87415C33.7586 8.21447 33.1152 6.71426 32.0741 5.6263C31.0324 4.53941 29.5961 3.86743 28.0071 3.86743C26.418 3.86743 24.9817 4.53941 23.94 5.6263C22.8989 6.71426 22.2555 8.21447 22.2555 9.87415H21.8603C21.8603 8.38513 22.3469 7.01612 23.1609 5.92709H14.8389C15.6528 7.01558 16.1395 8.38513 16.1395 9.87415H15.7442C15.7442 8.21447 15.1009 6.71426 14.0597 5.6263C13.0181 4.53941 11.5817 3.86743 9.99272 3.86743C8.40371 3.86743 6.96736 4.53941 5.92571 5.6263C4.88458 6.71426 4.24121 8.21447 4.24121 9.87415C4.24121 11.5338 4.88458 13.034 5.92571 14.122C6.92498 15.1652 8.28831 15.8243 9.80074 15.8761C9.80993 15.7033 9.83086 15.5342 9.86201 15.3683C9.84516 15.3683 9.82729 15.3683 9.80686 15.3683C9.74661 15.3689 9.67155 15.3694 9.58373 15.3699C9.53981 15.3699 9.49233 15.3721 9.44229 15.3699C9.39174 15.3646 9.33812 15.3587 9.28196 15.3523C9.1686 15.339 9.04197 15.3278 8.90461 15.3092C8.76981 15.2793 8.62378 15.2468 8.46804 15.2116C8.3889 15.1977 8.31282 15.1636 8.23112 15.139C8.14993 15.1118 8.0667 15.0836 7.98143 15.0548C7.89412 15.0302 7.81293 14.9838 7.72562 14.9454C7.63932 14.9054 7.55099 14.8644 7.4601 14.8222C7.37125 14.7769 7.28547 14.7209 7.19509 14.6692C7.15016 14.6425 7.10471 14.6158 7.05927 14.5886C7.01331 14.562 6.96685 14.5348 6.92447 14.5006C6.75137 14.37 6.56296 14.2457 6.3965 14.082C6.04213 13.7812 5.72504 13.3946 5.44114 12.9663C5.37477 12.8554 5.30788 12.7439 5.24048 12.6314C5.17461 12.5183 5.12406 12.3946 5.06431 12.2757C5.03572 12.2154 5.00713 12.1546 4.97802 12.0938L4.90807 11.9039C4.86364 11.7759 4.81258 11.649 4.77531 11.5173C4.62162 10.9898 4.55013 10.432 4.53583 9.87308L4.55677 9.4587C4.56238 9.39043 4.55932 9.3259 4.57158 9.25497L4.60272 9.04431L4.63438 8.83472L4.65021 8.73019L4.67472 8.62939C4.70842 8.49553 4.74161 8.36167 4.77531 8.22834C4.81207 8.09661 4.86416 7.97022 4.90756 7.84169L4.97751 7.65183C5.00662 7.59103 5.03521 7.53077 5.0638 7.4705C5.12303 7.35051 5.17359 7.22731 5.23996 7.11425C5.30737 7.00225 5.37425 6.89026 5.44063 6.77933C5.72504 6.35107 6.04162 5.96442 6.39599 5.6631C6.56193 5.49991 6.75137 5.37564 6.92396 5.24498C6.96685 5.21138 7.0128 5.18418 7.05927 5.15752C7.10471 5.12979 7.15016 5.10312 7.19509 5.07645C7.28547 5.02472 7.37125 4.96872 7.4601 4.92339C7.55048 4.88126 7.63881 4.8402 7.72562 4.8002C7.81293 4.7618 7.89412 4.7154 7.98143 4.69087C8.06721 4.66207 8.15044 4.6338 8.23112 4.6066C8.31282 4.58207 8.3889 4.54741 8.46804 4.53407C8.62378 4.49941 8.76981 4.46688 8.90461 4.43648C9.04095 4.41835 9.16758 4.40715 9.28042 4.39381C9.3371 4.38741 9.39072 4.38208 9.44075 4.37621C9.49131 4.37408 9.53879 4.37621 9.58321 4.37621C9.67155 4.37675 9.74661 4.37728 9.80737 4.37781C9.92839 4.37835 9.99323 4.37941 9.99323 4.37941C9.99323 4.37941 9.9289 4.38635 9.80839 4.40021C9.74814 4.40715 9.6741 4.41515 9.5873 4.42528C9.5439 4.43061 9.49692 4.43434 9.44739 4.44234C9.39837 4.45301 9.34629 4.46368 9.29115 4.47541C9.18136 4.49941 9.05933 4.52287 8.9281 4.55381C8.79943 4.59487 8.66003 4.6386 8.51093 4.68554C8.43536 4.70527 8.36388 4.74473 8.28729 4.77513C8.21121 4.80766 8.13308 4.84126 8.05292 4.87593C7.97122 4.90633 7.89514 4.95593 7.81395 4.99806C7.73327 5.04179 7.65107 5.08659 7.56733 5.13245C7.48512 5.18098 7.40597 5.24072 7.32274 5.29511C7.28138 5.32338 7.24003 5.35164 7.19815 5.37991C7.15577 5.40818 7.11339 5.43644 7.07459 5.47164C6.91783 5.6071 6.74269 5.72976 6.59257 5.89349C6.51547 5.97242 6.43275 6.04655 6.35769 6.13188C6.28569 6.21881 6.21217 6.30734 6.13813 6.39641C6.06052 6.48227 5.99822 6.58253 5.9298 6.6796C5.8961 6.72813 5.8624 6.77666 5.82819 6.82572L5.77662 6.89932L5.73219 6.97772C5.47587 7.3889 5.29154 7.85875 5.1404 8.34407C5.11078 8.4678 5.08065 8.59206 5.05053 8.71686L5.02806 8.81072L5.01479 8.90458L4.98823 9.09284L4.96066 9.2811C4.94943 9.34243 4.95249 9.4139 4.94738 9.48003L4.93002 9.87361C4.94024 10.3925 5.00151 10.9109 5.13989 11.4026C5.29052 11.8885 5.47536 12.3578 5.73117 12.769C5.99005 13.1743 6.26833 13.5545 6.59206 13.8537C6.74218 14.0169 6.91732 14.1396 7.07408 14.2756C7.11288 14.3103 7.15526 14.3391 7.19764 14.3673C7.23951 14.3956 7.28087 14.4238 7.32223 14.4521C7.40546 14.507 7.4841 14.5662 7.5663 14.6148C7.65056 14.6606 7.73276 14.7054 7.81344 14.7492C7.89463 14.7913 7.97071 14.8409 8.05241 14.8713C8.13257 14.906 8.2107 14.9396 8.28678 14.9721C8.36337 15.0025 8.43536 15.0425 8.51042 15.0617C8.65901 15.1086 8.79841 15.1529 8.92708 15.1934C9.0578 15.2249 9.17932 15.2478 9.28859 15.2718C9.34374 15.283 9.39582 15.2942 9.44484 15.3049C9.49437 15.3129 9.54186 15.3166 9.58526 15.3219C9.67257 15.3321 9.74712 15.3401 9.80737 15.347C9.8278 15.3491 9.84669 15.3513 9.86405 15.3534C10.1903 13.6559 11.6251 12.3775 13.3464 12.3775C13.4107 12.3775 13.4751 12.3797 13.5389 12.3834C15.4113 12.4879 16.8982 14.106 16.8987 16.0878C16.8987 16.1801 16.8946 16.2712 16.888 16.3614H21.1102C21.1041 16.2707 21.0995 16.1795 21.0995 16.0878C21.0995 14.106 22.5869 12.4879 24.4593 12.3834H24.4604Z" fill="#C5BEC0"/>
<path d="M28.0069 13.1108C27.3641 13.1108 26.8433 12.5663 26.8433 11.8954C26.8433 11.2244 27.3641 10.6799 28.0069 10.6799C28.6498 10.6799 29.1706 11.2239 29.1706 11.8954C29.1706 12.5668 28.6498 13.1108 28.0069 13.1108Z" fill="#C5BEC0"/>
<path d="M31.1057 9.87416C31.1057 10.5456 30.5849 11.0896 29.942 11.0901C29.2991 11.0901 28.7783 10.5461 28.7783 9.87416C28.7783 9.20272 29.2991 8.6582 29.942 8.6582C30.5849 8.6582 31.1057 9.20218 31.1057 9.87416Z" fill="#C5BEC0"/>
<path d="M28.0069 6.63794C28.6498 6.63794 29.1706 7.18245 29.1706 7.85336C29.1706 8.52427 28.6498 9.06932 28.0069 9.06932C27.3641 9.06932 26.8433 8.52534 26.8433 7.85336C26.8433 7.18139 27.3641 6.63794 28.0069 6.63794Z" fill="#C5BEC0"/>
<path d="M26.0724 8.65869C26.7152 8.65869 27.2361 9.20267 27.2366 9.87465C27.2366 10.5461 26.7152 11.0901 26.0724 11.0906C25.4295 11.0906 24.9087 10.5466 24.9087 9.87465C24.9087 9.2032 25.43 8.65869 26.0724 8.65869Z" fill="#C5BEC0"/>
<path d="M8.83643 7.83808C8.83643 7.17091 9.35367 6.63013 9.99245 6.63013C10.6312 6.63013 11.1485 7.17091 11.1485 7.83808V8.54846C11.1485 9.21563 8.83643 9.21563 8.83643 8.54846V7.83808Z" fill="#C5BEC0"/>
<path d="M8.04323 11.0821C7.40497 11.0821 6.88721 10.5418 6.88721 9.87466C6.88721 9.20748 7.40497 8.66724 8.04323 8.66724H8.72336C9.36162 8.66724 9.36162 11.0821 8.72336 11.0821H8.04323Z" fill="#C5BEC0"/>
<path d="M11.149 11.911C11.149 12.5781 10.6317 13.1189 9.99294 13.1189C9.35416 13.1189 8.83691 12.5781 8.83691 11.911V11.2006C8.83691 10.5334 11.149 10.5334 11.149 11.2006V11.911Z" fill="#C5BEC0"/>
<path d="M11.9425 11.0821H11.2624C10.6241 11.0821 10.6241 8.66724 11.2624 8.66724H11.9425C12.5813 8.66724 13.0991 9.20748 13.0991 9.87466C13.0991 10.5418 12.5813 11.0821 11.9425 11.0821Z" fill="#C5BEC0"/>
<path d="M18.3369 11.449H16.6855V12.3695H18.3369V11.449Z" fill="#C5BEC0"/>
<path d="M21.3144 11.449H19.6631V12.3695H21.3144V11.449Z" fill="#C5BEC0"/>
<path d="M9.58605 15.3219C9.54264 15.3166 9.49516 15.3129 9.44563 15.3049C9.39661 15.2942 9.34453 15.2835 9.28938 15.2718C9.1796 15.2478 9.05807 15.2249 8.92787 15.1934C8.79919 15.1529 8.6598 15.1086 8.51121 15.0617C8.43564 15.0425 8.36415 15.0025 8.28756 14.9721C8.21148 14.9395 8.13336 14.906 8.05319 14.8713C7.97201 14.8409 7.89541 14.7908 7.81423 14.7492C7.73355 14.7054 7.65134 14.6606 7.56709 14.6148C7.48488 14.5662 7.40574 14.507 7.32302 14.4521C7.28166 14.4238 7.2403 14.3956 7.19843 14.3673C7.15605 14.339 7.11367 14.3102 7.07486 14.2756C6.91811 14.1396 6.74297 14.0174 6.59285 13.8537C6.26912 13.5545 5.99084 13.1743 5.73196 12.769C5.47614 12.3583 5.2913 11.8885 5.14067 11.4026C5.0023 10.9114 4.94102 10.3925 4.93081 9.8736L4.94817 9.48001C4.95277 9.41388 4.95022 9.34242 4.96145 9.28109L4.98902 9.09283L5.01557 8.90457L5.02885 8.8107L5.05132 8.71684C5.08144 8.59205 5.11157 8.46778 5.14118 8.34406C5.29232 7.85874 5.47665 7.38889 5.73298 6.97771L5.7774 6.89931L5.82898 6.82571C5.86319 6.77665 5.89689 6.72758 5.93059 6.67958C5.99901 6.58305 6.0613 6.48279 6.13892 6.39639C6.21295 6.30733 6.28648 6.21933 6.35848 6.13187C6.43354 6.04654 6.51626 5.97241 6.59336 5.89348C6.74348 5.72975 6.91862 5.60762 7.07537 5.47163C7.11418 5.43643 7.15656 5.40816 7.19894 5.3799C7.24081 5.35163 7.28217 5.32283 7.32353 5.2951C7.40676 5.2407 7.48539 5.18097 7.56811 5.13244C7.65236 5.08657 7.73457 5.04178 7.81474 4.99804C7.89593 4.95591 7.97201 4.90631 8.0537 4.87591C8.13387 4.84125 8.21199 4.80765 8.28807 4.77512C8.36467 4.74472 8.43666 4.70472 8.51172 4.68552C8.66031 4.63859 8.79971 4.59432 8.92889 4.55379C9.06012 4.52286 9.18215 4.49939 9.29193 4.4754C9.34708 4.46366 9.39916 4.453 9.44818 4.44233C9.49771 4.43486 9.54469 4.43113 9.58809 4.42526C9.67489 4.41513 9.74893 4.40713 9.80918 4.4002C9.92969 4.38633 9.99402 4.3794 9.99402 4.3794C9.99402 4.3794 9.92917 4.37887 9.80816 4.3778C9.7474 4.3778 9.67234 4.37673 9.584 4.3762C9.53958 4.3762 9.49209 4.3746 9.44154 4.3762C9.3915 4.38207 9.33789 4.3874 9.28121 4.3938C9.16837 4.40713 9.04225 4.41833 8.9054 4.43646C8.7706 4.46686 8.62457 4.49939 8.46883 4.53406C8.38969 4.54793 8.3136 4.58206 8.23191 4.60659C8.15072 4.63379 8.06749 4.66206 7.98222 4.69085C7.8949 4.71539 7.81372 4.76179 7.7264 4.80018C7.6396 4.84018 7.55126 4.88125 7.46089 4.92338C7.37204 4.96871 7.28626 5.02418 7.19588 5.07644C7.15095 5.10311 7.1055 5.12977 7.06006 5.1575C7.0141 5.18417 6.96764 5.21137 6.92474 5.24497C6.75216 5.37616 6.56323 5.49989 6.39677 5.66309C6.0419 5.96441 5.72532 6.35053 5.44142 6.77931C5.37504 6.89024 5.30815 7.0017 5.24075 7.11423C5.17437 7.2273 5.12433 7.35102 5.06459 7.47049C5.036 7.53075 5.0074 7.59102 4.9783 7.65181L4.90835 7.84167C4.86494 7.9702 4.81286 8.0966 4.7761 8.22833C4.74291 8.36165 4.70921 8.49498 4.67551 8.62938L4.651 8.73017L4.63517 8.8347L4.60351 9.0443L4.57236 9.25496C4.56011 9.32589 4.56317 9.39042 4.55756 9.45868L4.53662 9.87307C4.55092 10.432 4.62291 10.9898 4.7761 11.5173C4.81337 11.649 4.86443 11.7759 4.90886 11.9039L4.97881 12.0938C5.00791 12.1546 5.03651 12.2148 5.0651 12.2756C5.12484 12.3946 5.17539 12.5183 5.24126 12.6314C5.30866 12.7439 5.37555 12.8554 5.44193 12.9663C5.72634 13.3945 6.04292 13.7812 6.39728 14.082C6.56374 14.2457 6.75216 14.37 6.92526 14.5006C6.96815 14.5342 7.0141 14.5614 7.06006 14.5886C7.10601 14.6158 7.15095 14.6425 7.19588 14.6692C7.28626 14.7209 7.37204 14.7769 7.46089 14.8222C7.55126 14.8644 7.6396 14.9054 7.7264 14.9454C7.81372 14.9838 7.8949 15.0297 7.98222 15.0547C8.06749 15.0835 8.15072 15.1118 8.23191 15.139C8.3136 15.1641 8.38969 15.1982 8.46883 15.2115C8.62457 15.2462 8.7706 15.2793 8.9054 15.3091C9.04276 15.3283 9.16939 15.339 9.28274 15.3523C9.33942 15.3582 9.39303 15.3641 9.44307 15.3699C9.49362 15.3721 9.5406 15.3699 9.58451 15.3699C9.67234 15.3694 9.74689 15.3689 9.80765 15.3683C9.82756 15.3683 9.84595 15.3683 9.8628 15.3683C9.86382 15.3635 9.86433 15.3582 9.86535 15.3529C9.84799 15.3507 9.82961 15.3486 9.80867 15.3465C9.74842 15.3395 9.67387 15.3315 9.58656 15.3214L9.58605 15.3219Z" fill="white"/>
<path d="M27.8098 16.0878C27.8098 15.1769 27.4565 14.3534 26.8851 13.7561C26.3132 13.1593 25.5248 12.7903 24.6527 12.7903C23.7806 12.7903 22.9922 13.1588 22.4203 13.7561C21.8484 14.3534 21.4956 15.1769 21.4956 16.0878C21.4956 16.9992 21.8489 17.8221 22.4203 18.4194C22.9922 19.0167 23.7801 19.3847 24.6527 19.3847C25.5253 19.3847 26.3132 19.0162 26.8851 18.4194C27.4565 17.8221 27.8098 16.9992 27.8098 16.0878ZM24.6527 18.5154C23.3695 18.5154 22.3289 17.429 22.3289 16.0883C22.3289 14.7475 23.369 13.6617 24.6527 13.6612C25.9364 13.6612 26.9765 14.7481 26.977 16.0883C26.977 17.429 25.9364 18.5154 24.6527 18.5154Z" fill="#C5BEC0"/>
<path d="M13.3475 12.7903C12.4749 12.7903 11.687 13.1588 11.1151 13.7561C10.5433 14.3534 10.1904 15.1769 10.1904 16.0878C10.1904 16.9992 10.5438 17.8221 11.1151 18.4194C11.687 19.0167 12.4754 19.3847 13.3475 19.3847C14.2197 19.3847 15.008 19.0162 15.5799 18.4194C16.1513 17.8221 16.5046 16.9992 16.5046 16.0878C16.5046 15.1769 16.1513 14.3534 15.5799 13.7561C15.008 13.1593 14.2202 12.7903 13.3475 12.7903ZM13.3475 18.5154C12.0639 18.5154 11.0237 17.429 11.0232 16.0883C11.0232 14.7481 12.0639 13.6617 13.3475 13.6612C14.6307 13.6612 15.6713 14.7481 15.6713 16.0883C15.6713 17.4285 14.6312 18.5154 13.3475 18.5154Z" fill="#C5BEC0"/>
<path d="M13.3475 14.0735C12.8139 14.0735 12.3329 14.2985 11.9837 14.6633C11.6344 15.0287 11.4189 15.5305 11.4189 16.0878C11.4189 16.6451 11.6344 17.147 11.9837 17.5123C12.3334 17.8776 12.8144 18.1021 13.3475 18.1021C13.8806 18.1021 14.3616 17.8771 14.7114 17.5123C15.0606 17.1475 15.2761 16.6451 15.2761 16.0878C15.2761 15.5305 15.0606 15.0287 14.7114 14.6633C14.3616 14.2985 13.8806 14.0735 13.3475 14.0735Z" fill="#4B4949"/>
<path d="M14.869 15.3608C14.9053 15.4494 14.9446 15.532 14.9656 15.6168C14.9773 15.6584 14.9885 15.6995 14.9998 15.7389C15.0064 15.7789 15.013 15.8184 15.0192 15.8557C15.0345 15.9293 15.0365 15.9992 15.0386 16.06C15.0396 16.0904 15.0406 16.1187 15.0416 16.1453C15.0396 16.1715 15.0381 16.1955 15.0365 16.2173C15.0294 16.3043 15.0233 16.3528 15.0233 16.3528C15.0233 16.3528 15.0125 16.3037 14.9972 16.22C14.9936 16.1992 14.9896 16.1757 14.985 16.1507C14.9783 16.1261 14.9712 16.0995 14.964 16.0707C14.9492 16.0141 14.9344 15.9507 14.9094 15.8835C14.8982 15.8499 14.8864 15.8152 14.8742 15.7789C14.8593 15.7437 14.844 15.708 14.8282 15.6712C14.8006 15.5955 14.7531 15.5246 14.7169 15.4462C14.6699 15.3736 14.6255 15.2968 14.5698 15.2259C14.5198 15.1512 14.4555 15.0862 14.3957 15.0179C14.3304 14.9555 14.2681 14.8888 14.1961 14.836C14.1287 14.7779 14.0546 14.7315 13.9852 14.6824C13.9101 14.6446 13.8427 14.595 13.7702 14.5662C13.735 14.5497 13.7003 14.5337 13.6671 14.5182C13.6323 14.5054 13.5992 14.4931 13.567 14.4809C13.5027 14.4547 13.4429 14.4393 13.3888 14.4243C13.3617 14.4163 13.3362 14.4094 13.3127 14.4025C13.2882 14.3977 13.2657 14.3934 13.2458 14.3897C13.1646 14.3737 13.1182 14.3625 13.1182 14.3625C13.1182 14.3625 13.1651 14.3561 13.2473 14.3491C13.2678 14.3475 13.2908 14.3454 13.3153 14.3433C13.3403 14.3443 13.3679 14.3454 13.397 14.3465C13.4557 14.3491 13.5236 14.3513 13.5941 14.3667C13.6298 14.3731 13.6676 14.3801 13.7059 14.387C13.7437 14.3987 13.7825 14.4105 13.8223 14.4227C13.904 14.4441 13.9831 14.4851 14.0679 14.523C14.1465 14.5715 14.2344 14.6131 14.3099 14.6766C14.3906 14.7331 14.4611 14.8046 14.5351 14.8723C14.6 14.9496 14.6684 15.0232 14.7225 15.1075C14.7838 15.1859 14.8231 15.2776 14.8696 15.3603L14.869 15.3608Z" fill="#4B4949"/>
<path d="M13.3472 13.6606C12.0636 13.6606 11.0235 14.7475 11.0229 16.0878C11.0229 17.4285 12.0636 18.5149 13.3472 18.5149C14.6304 18.5149 15.671 17.4285 15.671 16.0878C15.671 14.747 14.6309 13.6612 13.3472 13.6606ZM14.7111 17.5122C14.3613 17.8776 13.8803 18.1021 13.3472 18.1021C12.8142 18.1021 12.3327 17.877 11.9834 17.5122C11.6341 17.1475 11.4187 16.6451 11.4187 16.0878C11.4187 15.5304 11.6341 15.0286 11.9834 14.6633C12.3332 14.2985 12.8142 14.0734 13.3472 14.0734C13.8803 14.0734 14.3613 14.2985 14.7111 14.6633C15.0603 15.0286 15.2758 15.5304 15.2758 16.0878C15.2758 16.6451 15.0603 17.1469 14.7111 17.5122Z" fill="#3C3C3B"/>
<path d="M26.0165 14.6633C25.6668 14.2985 25.1858 14.0735 24.6527 14.0735C24.1196 14.0735 23.6386 14.2985 23.2889 14.6633C22.9396 15.0287 22.7241 15.5305 22.7241 16.0878C22.7241 16.6451 22.9396 17.147 23.2889 17.5123C23.6386 17.8776 24.1196 18.1021 24.6527 18.1021C25.1858 18.1021 25.6673 17.8771 26.0165 17.5123C26.3658 17.1475 26.5813 16.6451 26.5813 16.0878C26.5813 15.5305 26.3658 15.0287 26.0165 14.6633Z" fill="#4B4949"/>
<path d="M26.2224 16.3535C26.2224 16.3535 26.2117 16.3045 26.1964 16.2207C26.1923 16.1999 26.1887 16.1765 26.1842 16.1514C26.1775 16.1269 26.1704 16.1002 26.1632 16.0714C26.1489 16.0149 26.1336 15.9514 26.1086 15.8842C26.0973 15.8506 26.0856 15.8159 26.0733 15.7797C26.0585 15.7445 26.0427 15.7087 26.0274 15.6719C25.9998 15.5962 25.9523 15.5253 25.9161 15.4469C25.8691 15.3744 25.8242 15.2976 25.769 15.2266C25.719 15.152 25.6546 15.0869 25.5949 15.0186C25.5295 14.9562 25.4673 14.8896 25.3958 14.8368C25.3284 14.7786 25.2543 14.7322 25.1849 14.6832C25.1098 14.6453 25.0424 14.5957 24.9699 14.5669C24.9342 14.5504 24.9 14.5344 24.8663 14.5189C24.8321 14.5061 24.7984 14.4939 24.7667 14.4816C24.7024 14.4555 24.6421 14.44 24.5885 14.4251C24.5614 14.4171 24.5359 14.4101 24.5124 14.4032C24.4879 14.3984 24.4654 14.3941 24.445 14.3904C24.3638 14.3744 24.3179 14.3632 24.3179 14.3632C24.3179 14.3632 24.3648 14.3568 24.4471 14.3499C24.4675 14.3483 24.4905 14.3461 24.5155 14.344C24.5405 14.3451 24.5681 14.3461 24.5972 14.3472C24.6564 14.3499 24.7238 14.352 24.7943 14.3675C24.83 14.3739 24.8673 14.3808 24.9061 14.3877C24.9439 14.3995 24.9827 14.4112 25.0225 14.4235C25.1042 14.4448 25.1834 14.4859 25.2681 14.5237C25.3473 14.5723 25.4346 14.6139 25.5101 14.6773C25.5908 14.7338 25.6613 14.8053 25.7353 14.873C25.8007 14.9504 25.8686 15.024 25.9227 15.1082C25.984 15.1866 26.0233 15.2784 26.0698 15.361C26.106 15.4496 26.1453 15.5322 26.1658 15.617C26.1775 15.6586 26.1893 15.6997 26.2 15.7391C26.2066 15.7791 26.2133 15.8186 26.2194 15.8559C26.2347 15.9295 26.2362 15.9994 26.2383 16.0602C26.2393 16.0906 26.2403 16.1189 26.2413 16.1455C26.2398 16.1717 26.2378 16.1957 26.2362 16.2175C26.2291 16.3045 26.223 16.353 26.223 16.353L26.2224 16.3535Z" fill="#4B4949"/>
<path d="M24.6529 13.6606C23.3697 13.6606 22.3291 14.7475 22.3291 16.0878C22.3291 17.428 23.3692 18.5149 24.6529 18.5149C25.9366 18.5149 26.9767 17.4285 26.9772 16.0878C26.9772 14.7475 25.9366 13.6612 24.6529 13.6606ZM26.0167 17.5122C25.667 17.8776 25.186 18.1021 24.6529 18.1021C24.1198 18.1021 23.6388 17.877 23.289 17.5122C22.9398 17.1475 22.7243 16.6451 22.7243 16.0878C22.7243 15.5304 22.9398 15.0286 23.289 14.6633C23.6388 14.2985 24.1198 14.0734 24.6529 14.0734C25.1865 14.0734 25.6675 14.2985 26.0167 14.6633C26.366 15.0286 26.5815 15.5304 26.5815 16.0878C26.5815 16.6451 26.366 17.1469 26.0167 17.5122Z" fill="#3C3C3B"/>
<path d="M11.149 8.54846V7.83808C11.149 7.17091 10.6317 6.63013 9.99294 6.63013C9.35416 6.63013 8.83691 7.17091 8.83691 7.83808V8.54846C8.83691 9.21563 11.149 9.21563 11.149 8.54846ZM9.99294 7.3453L10.3274 8.06581H9.65798L9.99294 7.3453Z" fill="#666666"/>
<path d="M9.99316 7.34521L9.6582 8.06572H10.3276L9.99316 7.34521Z" fill="white"/>
<path d="M8.83643 11.2011V11.9114C8.83643 12.5786 9.35367 13.1194 9.99245 13.1194C10.6312 13.1194 11.1485 12.5786 11.1485 11.9114V11.2011C11.1485 10.5339 8.83643 10.5339 8.83643 11.2011ZM9.99296 12.4032L9.658 11.6826H10.3274L9.99296 12.4032Z" fill="#666666"/>
<path d="M9.99316 12.4031L10.3276 11.6831H9.6582L9.99316 12.4031Z" fill="white"/>
<path d="M11.9425 8.66675H11.2624C10.6241 8.66675 10.6241 11.0816 11.2624 11.0816H11.9425C12.5813 11.0816 13.0991 10.5413 13.0991 9.87417C13.0991 9.207 12.5813 8.66675 11.9425 8.66675ZM11.725 10.224V9.52485L12.4143 9.87417L11.725 10.2235V10.224Z" fill="#666666"/>
<path d="M11.7251 10.2241L12.4144 9.87422L11.7251 9.5249V10.2241Z" fill="white"/>
<path d="M8.72336 8.66675H8.04323C7.40497 8.66675 6.88721 9.207 6.88721 9.87417C6.88721 10.5413 7.40497 11.0816 8.04323 11.0816H8.72336C9.36162 11.0816 9.36162 8.66675 8.72336 8.66675ZM8.26126 10.224L7.57194 9.8747L8.26126 9.52538V10.2246V10.224Z" fill="#666666"/>
<path d="M8.2611 10.2241V9.5249L7.57178 9.87422L8.2611 10.2241Z" fill="white"/>
<path d="M28.0071 8.86303C28.2741 8.86303 28.5151 8.7505 28.6903 8.56758C28.8654 8.38465 28.9732 8.13292 28.9732 7.854C28.9732 7.57508 28.8654 7.32335 28.6903 7.14043C28.5151 6.9575 28.2741 6.84497 28.0071 6.84497C27.74 6.84497 27.499 6.9575 27.3239 7.14043C27.1488 7.32335 27.041 7.57508 27.041 7.854C27.041 8.13292 27.1488 8.38465 27.3239 8.56758C27.499 8.7505 27.74 8.86303 28.0071 8.86303Z" fill="white"/>
<path d="M28.0069 9.06932C28.6498 9.06932 29.1706 8.52534 29.1706 7.85336C29.1706 7.18139 28.6498 6.63794 28.0069 6.63794C27.3641 6.63794 26.8433 7.18245 26.8433 7.85336C26.8433 8.52427 27.3641 9.06932 28.0069 9.06932ZM27.3237 7.13979C27.4989 6.95686 27.7399 6.84433 28.0069 6.84433C28.274 6.84433 28.515 6.95686 28.6901 7.13979C28.8653 7.32271 28.973 7.57444 28.973 7.85336C28.973 8.13229 28.8653 8.38401 28.6901 8.56694C28.515 8.74986 28.274 8.86239 28.0069 8.86239C27.7399 8.86239 27.4989 8.74986 27.3237 8.56694C27.1486 8.38401 27.0409 8.13229 27.0409 7.85336C27.0409 7.57444 27.1486 7.32271 27.3237 7.13979Z" fill="#B3B3B3"/>
<path d="M28.0071 10.8865C27.74 10.8865 27.499 10.999 27.3239 11.1819C27.1488 11.3649 27.041 11.6166 27.041 11.8955C27.041 12.1744 27.1488 12.4262 27.3239 12.6091C27.499 12.7915 27.74 12.9045 28.0071 12.9045C28.2741 12.9045 28.5151 12.7915 28.6903 12.6091C28.8654 12.4262 28.9732 12.1739 28.9732 11.8955C28.9732 11.6171 28.8654 11.3649 28.6903 11.1819C28.5151 10.999 28.2741 10.8865 28.0071 10.8865Z" fill="white"/>
<path d="M28.0069 10.6799C27.3641 10.6799 26.8433 11.2239 26.8433 11.8954C26.8433 12.5668 27.3641 13.1108 28.0069 13.1108C28.6498 13.1108 29.1706 12.5663 29.1706 11.8954C29.1706 11.2244 28.6498 10.6799 28.0069 10.6799ZM28.6901 12.6089C28.515 12.7913 28.274 12.9044 28.0069 12.9044C27.7399 12.9044 27.4989 12.7913 27.3237 12.6089C27.1486 12.426 27.0409 12.1737 27.0409 11.8954C27.0409 11.617 27.1486 11.3647 27.3237 11.1818C27.4989 10.9989 27.7399 10.8863 28.0069 10.8863C28.274 10.8863 28.515 10.9989 28.6901 11.1818C28.8653 11.3647 28.973 11.6164 28.973 11.8954C28.973 12.1743 28.8653 12.426 28.6901 12.6089Z" fill="#B3B3B3"/>
<path d="M29.2585 10.5878C29.4336 10.7708 29.6746 10.8833 29.9417 10.8833C30.2092 10.8833 30.4497 10.7708 30.6249 10.5878C30.8 10.4049 30.9077 10.1532 30.9077 9.87426C30.9077 9.59481 30.8 9.34362 30.6249 9.16069C30.4497 8.97776 30.2087 8.86523 29.9417 8.86523C29.6746 8.86523 29.4336 8.97776 29.2585 9.16069C29.0833 9.34362 28.9756 9.59534 28.9756 9.87426C28.9756 10.1532 29.0838 10.4049 29.2585 10.5878Z" fill="white"/>
<path d="M28.7778 9.87416C28.7778 10.5456 29.2987 11.0896 29.9415 11.0901C30.5844 11.0901 31.1052 10.5461 31.1052 9.87416C31.1052 9.20218 30.5844 8.6582 29.9415 8.6582C29.2987 8.6582 28.7778 9.20218 28.7778 9.87416ZM29.9415 8.86513C30.2091 8.86513 30.4496 8.97766 30.6247 9.16059C30.7998 9.34351 30.9076 9.59524 30.9076 9.87416C30.9076 10.1531 30.7998 10.4048 30.6247 10.5877C30.4496 10.7707 30.2086 10.8832 29.9415 10.8832C29.6745 10.8832 29.4335 10.7707 29.2583 10.5877C29.0832 10.4048 28.9754 10.1531 28.9754 9.87416C28.9754 9.5947 29.0837 9.34351 29.2583 9.16059C29.4335 8.97766 29.6745 8.86513 29.9415 8.86513Z" fill="#B3B3B3"/>
<path d="M26.072 10.8838C26.3391 10.8838 26.5801 10.7713 26.7552 10.5883C26.9299 10.4054 27.0381 10.1537 27.0381 9.87475C27.0381 9.59583 26.9299 9.34411 26.7552 9.16118C26.5801 8.97825 26.3391 8.86572 26.072 8.86572C25.805 8.86572 25.564 8.97825 25.3888 9.16118C25.2137 9.34411 25.106 9.59583 25.106 9.87475C25.106 10.1537 25.2137 10.4054 25.3888 10.5883C25.564 10.7713 25.805 10.8838 26.072 10.8838Z" fill="white"/>
<path d="M26.0724 11.0901C26.7152 11.0901 27.2361 10.5461 27.2366 9.87416C27.2366 9.20272 26.7152 8.6582 26.0724 8.6582C25.4295 8.6582 24.9087 9.20218 24.9087 9.87416C24.9087 10.5456 25.43 11.0896 26.0724 11.0901ZM25.3892 9.16059C25.5643 8.97766 25.8053 8.86513 26.0724 8.86513C26.3394 8.86513 26.5804 8.97766 26.7556 9.16059C26.9302 9.34351 27.0384 9.59524 27.0384 9.87416C27.0384 10.1531 26.9302 10.4048 26.7556 10.5877C26.5804 10.7707 26.3394 10.8832 26.0724 10.8832C25.8053 10.8832 25.5643 10.7707 25.3892 10.5877C25.214 10.4048 25.1063 10.1531 25.1063 9.87416C25.1063 9.59524 25.214 9.34351 25.3892 9.16059Z" fill="#B3B3B3"/>
<path d="M18.3369 11.449H16.6855V12.3695H18.3369V11.449Z" fill="white"/>
<path d="M21.3144 11.449H19.6631V12.3695H21.3144V11.449Z" fill="white"/>
<path d="M3.49856 17.8467C3.42452 18.0782 3.3515 18.3241 3.28461 18.5811C3.21977 18.8387 3.15288 19.1054 3.10182 19.3806C3.07628 19.5182 3.04973 19.6568 3.0288 19.7976C3.00531 19.9373 2.98591 20.0787 2.96855 20.2205C2.93485 20.5043 2.91749 20.7901 2.90676 21.0717C2.90012 21.3544 2.91034 21.6327 2.93536 21.901C2.95016 22.0354 2.95936 22.1677 2.98591 22.2957C2.99714 22.3597 3.00837 22.4231 3.0191 22.4855C3.0339 22.5474 3.0482 22.6082 3.06301 22.669C3.07833 22.7287 3.09058 22.7884 3.10743 22.846C3.12632 22.9031 3.1442 22.9596 3.16207 23.0151C3.19577 23.1266 3.2407 23.2295 3.28359 23.3281C3.30555 23.3772 3.32342 23.4268 3.34793 23.4721C3.37244 23.5175 3.39644 23.5612 3.41993 23.6039C3.44341 23.6465 3.46639 23.6881 3.48886 23.7281C3.5149 23.7665 3.54043 23.8033 3.56494 23.8391C3.61651 23.9084 3.65532 23.9799 3.7074 24.0332C3.75642 24.0887 3.80135 24.1393 3.8422 24.1852C3.8805 24.2326 3.92339 24.2673 3.95913 24.2982C3.99436 24.3292 4.025 24.3548 4.04951 24.3766C4.09853 24.4188 4.12406 24.4417 4.12406 24.4417C4.12406 24.4417 4.1021 24.4145 4.06023 24.3644C4.03981 24.3393 4.01428 24.3084 3.98466 24.2726C3.95556 24.2359 3.91879 24.1975 3.88713 24.1452C3.85343 24.0956 3.81667 24.0401 3.77633 23.9799C3.73395 23.9212 3.70229 23.8481 3.66144 23.7761C3.64204 23.7393 3.62162 23.702 3.60068 23.6631C3.58332 23.622 3.56596 23.5799 3.54758 23.5361C3.5292 23.4935 3.5103 23.4492 3.4909 23.4044C3.4715 23.3596 3.45873 23.3105 3.44188 23.262C3.4092 23.1644 3.37499 23.0636 3.35201 22.9548C3.33823 22.901 3.32495 22.8466 3.31117 22.7911C3.29891 22.7351 3.29023 22.6775 3.27951 22.6194C3.2693 22.5612 3.25908 22.5026 3.24887 22.4428C3.24223 22.3826 3.23508 22.3213 3.22845 22.2599C3.21211 22.1373 3.20445 22.0103 3.19628 21.8813C3.18453 21.7533 3.18964 21.6205 3.18556 21.4877C3.18658 21.3549 3.19168 21.2194 3.19373 21.0834C3.20751 20.8114 3.22794 20.5352 3.26368 20.2595C3.27849 20.1219 3.29585 19.9837 3.31678 19.8467C3.33516 19.7096 3.35967 19.5736 3.38265 19.4387C3.40563 19.3038 3.43371 19.1704 3.45669 19.0382C3.48375 18.9064 3.51081 18.7763 3.53737 18.6483C3.59609 18.3934 3.65021 18.1465 3.70995 17.9139C3.76867 17.6809 3.82688 17.4617 3.88203 17.259C3.99385 16.8543 4.09393 16.5188 4.16593 16.2836C4.23792 16.0484 4.28132 15.9146 4.28132 15.9146C4.28132 15.9146 4.01428 16.4089 3.72119 17.2025C3.64817 17.4009 3.57004 17.6164 3.49856 17.8483V17.8467Z" fill="white"/>
<path d="M34.6501 20.2204C34.6333 20.0786 34.6139 19.9372 34.5904 19.7975C34.5699 19.6567 34.5429 19.5186 34.5179 19.3804C34.4668 19.1053 34.3999 18.8386 34.3351 18.581C34.2687 18.324 34.1957 18.0781 34.1216 17.8466C34.0501 17.6146 33.972 17.3992 33.899 17.2008C33.6059 16.4072 33.3389 15.9128 33.3389 15.9128C33.3389 15.9128 33.3828 16.0467 33.4543 16.2819C33.5263 16.5166 33.6263 16.8525 33.7382 17.2573C33.7933 17.46 33.8515 17.6797 33.9102 17.9122C33.97 18.1448 34.0241 18.3917 34.0828 18.6466C34.1094 18.7746 34.1364 18.9047 34.1635 19.0365C34.1865 19.1687 34.2146 19.3015 34.2375 19.437C34.261 19.5719 34.2855 19.7079 34.3039 19.845C34.3254 19.982 34.3422 20.1196 34.357 20.2578C34.3928 20.5335 34.4132 20.8097 34.427 21.0817C34.429 21.2177 34.4341 21.3532 34.4351 21.486C34.4306 21.6188 34.4357 21.7516 34.4244 21.8796C34.4163 22.0086 34.4086 22.1355 34.3923 22.2582C34.3851 22.3201 34.3785 22.3809 34.3718 22.4411C34.3616 22.5009 34.3514 22.5595 34.3412 22.6177C34.3305 22.6758 34.3218 22.7334 34.3095 22.7894C34.2958 22.8449 34.282 22.8993 34.2687 22.9531C34.2462 23.0624 34.2115 23.1632 34.1788 23.2603C34.162 23.3088 34.1492 23.3579 34.1298 23.4027C34.1104 23.448 34.0915 23.4918 34.0731 23.5344C34.0553 23.5782 34.0374 23.6203 34.02 23.6614C33.9991 23.7003 33.9792 23.7382 33.9593 23.7744C33.9179 23.8464 33.8862 23.9195 33.8444 23.9781C33.804 24.0384 33.7668 24.0933 33.7336 24.1435C33.7019 24.1957 33.6651 24.2347 33.636 24.2709C33.6064 24.3072 33.5809 24.3381 33.56 24.3627C33.5186 24.4128 33.4961 24.44 33.4961 24.44C33.4961 24.44 33.5222 24.4171 33.5707 24.3749C33.5952 24.3536 33.6253 24.3275 33.6611 24.2965C33.6968 24.2656 33.7392 24.2309 33.778 24.1835C33.8188 24.1376 33.8638 24.0869 33.9128 24.0315C33.9649 23.9781 34.0037 23.9067 34.0553 23.8374C34.0798 23.8016 34.1048 23.7648 34.1308 23.7264C34.1533 23.6864 34.1763 23.6454 34.1998 23.6022C34.2232 23.5595 34.2472 23.5152 34.2718 23.4704C34.2963 23.4251 34.3141 23.3755 34.3361 23.3264C34.379 23.2278 34.4244 23.1248 34.4576 23.0134C34.4755 22.9579 34.4939 22.9019 34.5122 22.8443C34.5291 22.7867 34.5419 22.727 34.5567 22.6673C34.571 22.607 34.5853 22.5457 34.6001 22.4838C34.6108 22.4214 34.622 22.3585 34.6333 22.2939C34.6598 22.1659 34.669 22.0342 34.6838 21.8993C34.7088 21.631 34.719 21.3526 34.7124 21.07C34.7017 20.7884 34.6843 20.502 34.6506 20.2188L34.6501 20.2204Z" fill="white"/>
<path d="M14.3099 14.6778C14.2344 14.6143 14.147 14.5727 14.0679 14.5242C13.9836 14.4863 13.904 14.4453 13.8223 14.4239C13.7825 14.4117 13.7437 14.3999 13.7059 14.3882C13.6676 14.3813 13.6298 14.3743 13.5941 14.3679C13.5236 14.3519 13.4562 14.3498 13.397 14.3477C13.3679 14.3466 13.3403 14.3455 13.3153 14.3445C13.2908 14.3461 13.2678 14.3482 13.2473 14.3503C13.1651 14.3578 13.1182 14.3637 13.1182 14.3637C13.1182 14.3637 13.1646 14.3749 13.2458 14.3909C13.2662 14.3951 13.2882 14.3994 13.3127 14.4037C13.3362 14.4106 13.3617 14.4181 13.3888 14.4255C13.4429 14.4405 13.5027 14.4565 13.567 14.4821C13.5992 14.4938 13.6323 14.5066 13.6671 14.5194C13.7003 14.5349 13.735 14.5509 13.7702 14.5674C13.8422 14.5962 13.9101 14.6458 13.9852 14.6837C14.0546 14.7327 14.1287 14.7791 14.1961 14.8373C14.2681 14.8901 14.3298 14.9567 14.3957 15.0191C14.4555 15.0874 14.5193 15.1525 14.5698 15.2271C14.6255 15.298 14.6699 15.3748 14.7169 15.4474C14.7531 15.5258 14.8006 15.5967 14.8282 15.6724C14.844 15.7092 14.8593 15.745 14.8742 15.7802C14.8864 15.8164 14.8982 15.8511 14.9094 15.8847C14.9339 15.9514 14.9492 16.0154 14.964 16.0719C14.9717 16.1007 14.9783 16.1268 14.985 16.1519C14.9896 16.1769 14.9936 16.2004 14.9972 16.2212C15.0125 16.3049 15.0233 16.354 15.0233 16.354C15.0233 16.354 15.0294 16.3055 15.0365 16.2185C15.0381 16.1967 15.0401 16.1721 15.0416 16.1465C15.0406 16.1199 15.0396 16.0916 15.0386 16.0612C15.0365 16.0004 15.0345 15.9306 15.0192 15.857C15.013 15.8191 15.0064 15.7802 14.9998 15.7402C14.9885 15.7007 14.9773 15.6602 14.9656 15.618C14.9451 15.5327 14.9053 15.45 14.869 15.362C14.8226 15.2799 14.7833 15.1882 14.722 15.1093C14.6679 15.025 14.6 14.9514 14.5346 14.8741C14.4606 14.8063 14.3901 14.7349 14.3094 14.6783L14.3099 14.6778Z" fill="white"/>
<path d="M26.2383 16.0602C26.2362 15.9994 26.2342 15.9295 26.2194 15.8559C26.2133 15.8181 26.2066 15.7791 26.2 15.7391C26.1887 15.6997 26.1775 15.6591 26.1658 15.617C26.1453 15.5317 26.1055 15.449 26.0698 15.361C26.0233 15.2789 25.984 15.1872 25.9227 15.1082C25.8686 15.024 25.8007 14.9504 25.7353 14.873C25.6618 14.8053 25.5908 14.7338 25.5101 14.6773C25.4346 14.6139 25.3473 14.5723 25.2681 14.5237C25.1839 14.4859 25.1042 14.4448 25.0225 14.4235C24.9827 14.4112 24.9439 14.3995 24.9061 14.3877C24.8673 14.3808 24.83 14.3739 24.7943 14.3675C24.7238 14.3515 24.6564 14.3493 24.5972 14.3472C24.5681 14.3461 24.541 14.3451 24.5155 14.344C24.4905 14.3456 24.468 14.3477 24.4471 14.3499C24.3648 14.3573 24.3179 14.3632 24.3179 14.3632C24.3179 14.3632 24.3638 14.3744 24.445 14.3904C24.4649 14.3947 24.4879 14.3989 24.5124 14.4032C24.5359 14.4101 24.5614 14.4176 24.5885 14.4251C24.6421 14.44 24.7024 14.456 24.7667 14.4816C24.7984 14.4933 24.8321 14.5061 24.8663 14.5189C24.8995 14.5344 24.9342 14.5504 24.9699 14.5669C25.0424 14.5957 25.1098 14.6453 25.1849 14.6832C25.2543 14.7322 25.3284 14.7786 25.3958 14.8368C25.4678 14.8896 25.5295 14.9562 25.5949 15.0186C25.6546 15.0869 25.7185 15.152 25.769 15.2266C25.8247 15.2976 25.8691 15.3744 25.9161 15.4469C25.9523 15.5253 25.9998 15.5962 26.0274 15.6719C26.0432 15.7087 26.0585 15.7445 26.0733 15.7797C26.0856 15.8159 26.0973 15.8506 26.1086 15.8842C26.1336 15.9509 26.1484 16.0149 26.1632 16.0714C26.1709 16.1002 26.1775 16.1263 26.1842 16.1514C26.1887 16.1765 26.1928 16.1999 26.1964 16.2207C26.2117 16.3045 26.2224 16.3535 26.2224 16.3535C26.2224 16.3535 26.2286 16.305 26.2357 16.2181C26.2373 16.1962 26.2393 16.1717 26.2408 16.1461C26.2398 16.1194 26.2388 16.0911 26.2378 16.0607L26.2383 16.0602Z" fill="white"/>
</g>
<defs>
<clipPath id="clip0_23_3030">
<rect width="34" height="25.9474" fill="white" transform="translate(2 1.52637)"/>
</clipPath>
</defs>
</svg>
