<svg width="54" height="53" viewBox="0 0 54 53" fill="none" xmlns="http://www.w3.org/2000/svg">
<g clip-path="url(#clip0_23_3297)">
<path d="M49.5054 37.0488C48.637 39.1006 46.3275 40.7658 43.8415 42.0733C38.6309 44.8169 32.2323 46.4011 25.9194 46.5061C19.6066 46.611 13.4084 45.2464 8.55566 42.6697C6.70906 41.6868 4.94357 40.3698 4.91972 38.695C4.86723 34.6057 12.1487 33.2554 16.5815 32.3679C23.3094 31.0127 30.2139 30.2016 37.0993 29.9582C38.1108 29.9248 39.1224 29.8914 40.134 29.8771C41.9949 29.8532 43.9179 29.9057 45.5354 30.4735C48.6036 31.5519 50.5313 34.6248 49.5006 37.044L49.5054 37.0488Z" fill="#E4B070"/>
<path d="M51.2279 29.5621C51.9723 30.6643 52.0343 32.1865 51.3901 33.3507C50.6887 34.62 49.3145 35.3453 48.0071 35.9656C41.5607 39.0337 34.7039 41.4004 27.599 42.078C20.4941 42.7555 13.1077 41.6628 6.87603 38.1796C5.20598 37.2491 3.5073 35.9751 3.08263 34.1142C2.8345 33.0263 3.10648 31.8047 3.88425 31.0127C4.8004 30.0822 6.20324 29.8675 7.50111 29.7005C13.456 28.9466 19.4158 28.1927 25.4041 27.7537C31.4067 27.3147 37.4523 27.1906 43.455 27.7155C44.9103 27.8443 46.3943 28.1688 47.8401 28.0066C49.1523 27.8586 50.4835 28.4551 51.2231 29.5621H51.2279Z" fill="#FFA800"/>
<path d="M5.66406 28.5125L48.2886 26.0837C48.3411 27.4198 48.5224 28.7463 48.8278 30.0442C42.3671 33.9425 35.3528 36.7435 27.8662 37.6835C20.3796 38.6235 12.5495 37.5594 5.88356 34.0237C5.81675 32.2152 5.73086 30.3161 5.66406 28.5077V28.5125Z" fill="#FF4C4C"/>
<path d="M52.5304 20.6775C52.9789 20.9304 53.4943 21.2978 53.4418 21.8084C53.3798 22.4335 52.5018 22.777 52.5352 23.4069C52.5734 24.0749 53.5611 24.2228 53.8903 24.805C54.2196 25.3823 53.7281 26.141 53.103 26.3748C52.4779 26.6086 51.0274 26.9474 50.3641 26.9188C47.9831 26.8186 45.8979 26.6897 43.9034 27.9971C42.701 28.7844 42.5721 30.3591 41.2599 30.946C40.1482 31.4422 38.6022 30.9412 37.414 31.1989C36.5361 31.3897 35.5961 32.7449 34.7038 32.8355C33.8974 32.9166 32.9956 32.5731 32.3037 33.0025C31.3732 33.5799 30.9772 34.7823 30.0467 35.3597C29.2308 35.8655 28.1858 35.7844 27.2458 35.5983C24.3733 35.04 21.5008 33.723 18.6426 34.3529C17.1396 34.6869 15.4743 35.5172 14.1908 34.6726C13.0456 33.9187 12.9072 32.1866 11.7906 31.3897C10.4832 30.4593 8.55551 31.2704 7.10972 30.5738C5.9216 30.006 5.32038 28.5411 4.08454 28.083C3.38312 27.8254 2.61012 27.9447 1.87053 27.8969C1.12616 27.854 0.291131 27.5486 0.0477807 26.8472C-0.176484 26.1935 0.462908 25.5207 0.744432 24.8861C0.878036 24.5807 1.02596 24.0415 1.1357 23.5643C1.26453 23.0156 1.70352 22.6005 2.25702 22.505C4.10363 22.1806 7.46759 21.231 9.26648 20.4246C12.4396 19.0075 16.1328 19.5133 19.5492 18.893C24.4831 17.9959 29.3453 15.3954 34.2505 16.4404C36.2068 16.8555 37.9962 17.8337 39.8523 18.5828C41.8946 19.4035 43.975 19.7328 46.1604 19.4083C47.234 19.2508 48.2694 19.0361 49.3478 19.2747C50.4882 19.5228 51.5188 20.1097 52.5256 20.6728L52.5304 20.6775Z" fill="#69EA9D"/>
<path d="M49.9587 21.2739C51.0275 21.584 51.1039 23.0728 50.0827 23.5118L30.9057 31.6903C29.312 32.3726 27.6849 33.0597 25.9576 33.2076C24.0156 33.3746 22.0879 32.8545 20.2126 32.3344C14.4676 30.7502 8.67972 29.1518 3.29737 26.6276C2.42894 26.222 2.34305 25.0243 3.159 24.5233C4.28509 23.8267 5.50661 23.0012 5.80722 22.8342C7.45342 21.9324 9.11393 21.0639 10.7935 20.2289C14.1814 18.5398 17.636 16.989 21.1431 15.5766C23.4525 14.6462 25.7906 13.773 28.1478 12.9666C28.3339 12.8998 28.5343 12.8425 28.7299 12.8664C29.4695 12.9618 30.4477 13.7109 31.1205 14.0354C34.4415 15.6339 37.8293 17.0844 41.2792 18.3775C44.1373 19.4511 47.0337 20.415 49.9635 21.2691L49.9587 21.2739Z" fill="#FFE7A6"/>
<path d="M3.38334 22.6147C4.27085 28.4408 11.705 28.6746 16.2428 28.9132C23.1472 29.2711 30.0803 28.8321 36.8608 27.5676C37.8628 27.3959 38.8648 27.1955 39.8478 26.9807C41.6848 26.5799 43.541 26.055 45.0011 24.8812C46.5996 23.5738 47.6684 21.3837 47.9642 19.1506C48.1694 17.5569 48.0024 15.9345 47.3487 14.6033C46.0222 11.893 43.3692 10.0512 40.6399 8.76761C34.9092 6.07643 28.2958 5.31298 22.0927 6.62994C17.1828 7.67014 12.5448 10.0225 8.77045 13.3388V13.3531C7.78751 14.212 6.87136 15.1424 6.02202 16.1206C4.44263 17.9386 3.01115 20.2194 3.38811 22.6147H3.38334Z" fill="#F1C185"/>
<path d="M39.0171 10.805C39.9667 10.7144 40.1146 12.1936 39.1603 12.2842C38.2107 12.3749 38.0628 10.8957 39.0171 10.805Z" fill="white"/>
<path d="M34.6606 8.98701C36.5645 8.80569 36.8507 11.7641 34.9421 11.9454C33.0383 12.1267 32.752 9.16833 34.6606 8.98701Z" fill="white"/>
<path d="M27.8042 10.4471C28.7538 10.3565 28.9017 11.8356 27.9474 11.9263C26.9978 12.017 26.8499 10.5378 27.8042 10.4471Z" fill="white"/>
<path d="M23.7241 8.5434C25.6279 8.36208 25.9142 11.3205 24.0056 11.5018C22.1017 11.6831 21.8154 8.72472 23.7241 8.5434Z" fill="white"/>
<path d="M27.8567 7.40293C28.811 7.31227 28.9541 8.79146 27.9998 8.88212C27.0455 8.97278 26.9024 7.49359 27.8567 7.40293Z" fill="white"/>
<path d="M17.2253 13.1241C18.1749 13.0335 18.3228 14.5126 17.3685 14.6033C16.4142 14.694 16.271 13.2148 17.2253 13.1241Z" fill="white"/>
<path d="M13.7375 15.6388C14.6871 15.5481 14.835 17.0273 13.8807 17.118C12.9264 17.2086 12.7832 15.7294 13.7375 15.6388Z" fill="white"/>
<path d="M13.5751 10.9482C15.479 10.7669 15.7653 13.7252 13.8567 13.9066C11.9528 14.0879 11.6665 11.1295 13.5751 10.9482Z" fill="white"/>
<path d="M21.3337 14.7369C22.288 14.6463 22.4312 16.1254 21.4769 16.2161C20.5226 16.3068 20.3794 14.8276 21.3337 14.7369Z" fill="white"/>
<path opacity="0.33" d="M3.38311 22.6148C4.27063 28.4409 11.7048 28.6747 16.2425 28.9133C23.147 29.2712 30.0801 28.8322 36.8605 27.5677C37.8626 27.3959 38.8646 27.1955 39.8475 26.9808C41.6846 26.58 43.5407 26.0551 45.0009 24.8813C46.5993 23.5739 47.6682 21.3837 47.964 19.1506C46.2128 21.2406 43.7746 22.7007 41.2075 23.6073C38.0153 24.7382 34.6322 25.1103 31.2682 25.43C26.1579 25.9358 20.9187 26.3796 15.961 25.0531C14.1764 24.5807 12.4109 23.8506 11.0844 22.548C9.67206 21.1213 8.91338 19.1554 8.6748 17.1513C8.53642 15.8869 8.59368 14.6081 8.76069 13.3484C7.77774 14.2073 6.8616 15.1377 6.01226 16.1159C4.43286 17.9339 3.00139 20.2147 3.37834 22.61L3.38311 22.6148Z" fill="black" fill-opacity="0.2"/>
</g>
<defs>
<clipPath id="clip0_23_3297">
<rect width="54" height="40.5107" fill="white" transform="translate(0 6)"/>
</clipPath>
</defs>
</svg>
