<svg width="30" height="22" viewBox="0 0 30 22" fill="none" xmlns="http://www.w3.org/2000/svg">
<path d="M12.1854 2.96497C12.8613 2.2867 12.8613 1.18699 12.1854 0.508709C11.5095 -0.16957 10.4136 -0.16957 9.7377 0.508709L0.506931 9.77187C0.168977 10.111 0 10.5555 0 11C0 11.2355 0.0467056 11.46 0.131329 11.6648C0.21579 11.8697 0.34099 12.0616 0.506931 12.2281L9.7377 21.4913C10.4136 22.1696 11.5095 22.1696 12.1854 21.4913C12.8613 20.813 12.8613 19.7133 12.1854 19.035L5.90922 12.7368H28.2692C29.2251 12.7368 30 11.9592 30 11C30 10.0408 29.2251 9.26316 28.2692 9.26316H5.90922L12.1854 2.96497Z" fill="#232946"/>
</svg>
